<?xml version="1.0" standalone="no"?>
<!DOCTYPE svg PUBLIC "-//W3C//DTD SVG 20010904//EN"
 "http://www.w3.org/TR/2001/REC-SVG-20010904/DTD/svg10.dtd">
<svg version="1.0" xmlns="http://www.w3.org/2000/svg"
 width="1800.000000pt" height="1920.000000pt" viewBox="0 0 1800.000000 1920.000000"
 preserveAspectRatio="xMidYMid meet">
<g transform="translate(0.000000,1920.000000) scale(0.100000,-0.100000)"
fill="#000000" stroke="none">
<path d="M8665 17104 c-483 -45 -766 -85 -1055 -149 -188 -41 -219 -48 -260
-60 -25 -7 -76 -20 -115 -30 -235 -57 -647 -198 -970 -332 -584 -243 -1416
-745 -1815 -1096 -14 -12 -70 -60 -125 -107 -311 -262 -781 -747 -981 -1011
-532 -705 -776 -1118 -1059 -1789 -173 -411 -310 -852 -404 -1295 -17 -82 -38
-180 -46 -216 -8 -37 -15 -77 -15 -90 0 -13 -6 -60 -14 -104 -41 -224 -72
-538 -88 -883 l-12 -254 13 -291 c7 -161 17 -328 22 -372 6 -44 14 -129 19
-190 5 -60 19 -168 30 -240 12 -71 25 -157 30 -190 14 -105 109 -534 157 -710
45 -165 143 -474 163 -514 4 -9 18 -45 30 -81 13 -36 31 -87 40 -115 17 -48
152 -369 169 -403 5 -10 57 -116 117 -237 59 -121 117 -236 129 -255 12 -19
39 -66 60 -105 20 -38 44 -77 51 -86 8 -8 14 -20 14 -25 0 -5 20 -40 45 -77
25 -38 45 -71 45 -73 0 -3 9 -17 19 -32 11 -15 49 -72 84 -127 106 -163 319
-457 406 -561 14 -17 53 -66 86 -109 33 -43 86 -111 118 -152 l57 -73 20 0
c11 0 20 6 21 13 0 6 1 73 2 147 l2 135 14 60 c170 746 932 1395 2251 1916 69
27 134 54 145 59 24 10 134 53 190 73 183 66 246 86 285 91 49 7 236 49 315
71 28 8 68 18 90 23 22 6 96 26 165 46 231 66 505 144 548 156 l42 11 0 42 c0
40 -12 184 -45 527 -8 86 -15 233 -15 327 0 94 -3 178 -6 187 l-6 16 -23 0
-22 0 -39 -77 c-158 -318 -353 -529 -555 -599 l-54 -19 -140 1 -140 1 -75 21
c-421 115 -658 415 -845 1072 -80 282 -107 890 -56 1270 5 41 17 145 26 230 9
85 23 183 31 217 8 34 14 76 14 94 0 29 7 73 40 244 5 28 30 154 56 280 25
127 50 250 54 275 8 49 52 234 75 315 8 28 23 88 34 135 10 47 43 175 71 285
28 110 58 227 66 260 18 74 46 175 92 325 19 63 41 138 48 165 149 544 430
1078 656 1245 l76 57 66 18 65 18 63 -5 c266 -23 541 -235 1023 -790 141 -162
346 -358 484 -461 106 -80 260 -167 296 -167 9 0 37 -6 63 -14 26 -8 64 -17
84 -21 l38 -6 9 -17 10 -18 -48 -74 c-151 -237 -338 -693 -430 -1050 -12 -47
-28 -105 -36 -130 -7 -25 -20 -79 -29 -120 -9 -41 -23 -100 -31 -130 -8 -30
-22 -93 -31 -140 -8 -47 -22 -114 -29 -150 -72 -341 -180 -1170 -205 -1575
-18 -280 -1 -1076 25 -1146 2 -8 9 -104 15 -214 17 -340 31 -530 40 -539 l8
-8 199 21 c965 103 1519 93 1779 -30 l82 -39 56 -51 56 -51 36 -74 35 -74 18
0 c9 0 57 14 106 31 93 33 134 45 272 83 45 12 85 25 89 28 7 8 -12 284 -32
466 -9 74 -19 241 -23 372 l-6 237 -13 16 c-23 28 -40 8 -115 -136 -88 -172
-157 -266 -269 -372 l-84 -80 -60 -32 c-32 -17 -86 -39 -119 -49 l-60 -18
-105 2 -105 1 -95 20 c-370 77 -644 364 -805 845 -13 39 -28 85 -34 101 -38
109 -82 337 -103 530 l-10 100 5 340 c3 187 10 367 16 400 6 33 17 132 25 220
9 88 22 196 30 240 9 44 20 121 26 170 6 50 15 106 20 125 5 19 16 78 25 130
9 52 23 127 32 165 8 39 21 99 28 135 28 134 46 217 60 275 7 33 21 94 30 135
10 41 23 98 30 125 8 28 28 109 45 180 17 72 37 153 45 180 32 109 67 242 74
280 4 22 17 72 29 110 12 39 40 137 62 218 65 235 169 535 255 737 210 494
451 760 689 760 257 0 539 -207 1008 -740 175 -199 365 -385 501 -493 l108
-85 90 -46 c49 -25 106 -50 127 -56 43 -11 127 -30 159 -36 12 -2 27 -12 32
-22 l9 -17 -60 -100 c-106 -177 -205 -392 -285 -615 -77 -217 -120 -362 -189
-625 -28 -109 -70 -309 -118 -565 -9 -47 -23 -120 -31 -162 -8 -42 -15 -92
-15 -110 0 -18 -7 -58 -15 -88 -8 -30 -15 -72 -15 -92 0 -20 -6 -79 -14 -130
-31 -201 -51 -365 -88 -753 l-13 -130 0 -395 0 -395 13 -170 c7 -93 17 -224
22 -290 5 -66 17 -234 25 -374 9 -139 20 -262 26 -273 l10 -19 17 5 c81 26
589 68 1098 92 l340 16 155 -17 154 -16 85 -26 c220 -65 349 -181 400 -360
l20 -68 0 -77 0 -76 -18 -59 c-36 -113 -104 -188 -215 -238 l-56 -24 -102 -17
-102 -16 -106 17 c-111 18 -248 55 -316 85 -22 10 -71 32 -110 50 l-69 32
-362 -6 c-411 -6 -739 -23 -767 -38 l-19 -10 6 -36 c3 -21 10 -219 15 -442 6
-223 13 -499 16 -615 l6 -210 -16 -360 c-16 -354 -20 -410 -51 -690 -24 -218
-85 -546 -135 -730 -167 -609 -512 -1076 -941 -1274 -104 -49 -261 -111 -278
-111 -8 0 -28 -7 -44 -15 -15 -8 -36 -15 -45 -15 -9 0 -34 -9 -56 -20 -22 -11
-51 -20 -66 -20 -28 0 -59 -22 -59 -42 l0 -10 28 7 c15 3 54 10 87 15 100 13
184 28 193 34 4 3 51 14 103 25 52 11 126 29 164 40 151 41 292 82 325 95 19
8 64 23 100 35 36 11 79 25 95 30 17 6 71 25 120 41 50 17 106 37 125 45 19 7
73 27 120 45 149 55 293 115 435 180 76 34 437 214 490 244 128 71 174 98 308
178 81 49 196 122 255 162 59 40 130 88 157 106 108 74 466 349 495 380 3 3
68 60 145 126 237 204 556 526 739 744 235 281 387 482 543 718 53 81 104 159
114 174 25 37 120 192 154 253 101 181 133 243 230 440 59 121 113 234 120
250 71 162 145 348 195 490 18 50 38 106 45 125 13 33 37 111 105 335 16 54
30 107 30 117 0 9 6 32 14 50 20 48 87 339 121 528 8 47 19 110 25 141 42 235
78 606 91 949 l13 325 -18 345 c-9 190 -21 372 -26 405 -4 33 -16 119 -25 190
-19 156 -38 276 -72 450 -14 72 -29 151 -34 178 -4 26 -12 62 -18 80 -5 17
-17 64 -26 102 -9 39 -23 93 -31 120 -7 28 -28 97 -44 155 -58 202 -121 396
-166 513 -8 20 -20 54 -28 75 -151 396 -408 916 -617 1251 -33 51 -59 94 -59
96 0 20 -371 534 -501 695 -267 330 -667 736 -990 1005 -57 47 -124 103 -149
124 -263 220 -722 524 -1097 727 -164 89 -514 264 -528 264 -3 0 -66 26 -138
57 -139 60 -248 101 -412 159 -55 19 -113 39 -130 45 -531 185 -1124 301
-1865 364 l-185 15 -330 -1 -330 -2 -150 -13z m1025 -361 c58 -3 110 -10 117
-15 6 -5 40 -9 75 -8 85 2 210 -10 225 -22 l12 -10 30 7 29 6 7 -10 6 -11 55
0 c30 0 62 -4 72 -9 19 -10 129 -31 182 -35 19 -1 42 -5 50 -8 17 -7 84 -18
115 -19 10 0 24 -4 30 -8 5 -5 21 -11 35 -14 14 -3 52 -13 85 -21 167 -42 192
-48 212 -49 12 -1 25 -5 29 -9 4 -5 20 -8 35 -8 15 0 31 -5 34 -11 4 -6 13 -8
21 -5 8 3 29 -3 46 -14 18 -10 56 -22 83 -26 28 -4 59 -13 70 -20 11 -8 31
-14 45 -14 14 0 34 -7 44 -15 11 -8 31 -15 45 -15 14 0 35 -7 45 -15 11 -8 29
-15 41 -15 11 0 38 -10 60 -22 22 -12 49 -22 60 -23 11 0 48 -15 83 -33 34
-18 67 -30 71 -27 5 3 38 -11 74 -30 36 -19 72 -35 82 -35 23 0 656 -315 680
-339 11 -11 55 -36 98 -55 42 -20 77 -40 77 -46 0 -6 20 -20 44 -30 24 -11 50
-27 57 -37 8 -9 42 -29 75 -44 34 -16 64 -35 67 -44 4 -8 13 -15 20 -15 8 0
28 -13 45 -30 18 -16 39 -30 47 -30 8 0 25 -11 37 -25 12 -14 27 -25 33 -25 6
0 22 -11 34 -24 13 -13 34 -27 47 -30 13 -4 28 -15 34 -26 6 -11 17 -20 24
-20 7 0 25 -10 39 -22 65 -58 120 -103 129 -107 12 -4 19 -10 108 -91 36 -33
68 -60 73 -60 8 0 19 -9 122 -105 44 -41 84 -75 89 -75 7 0 103 -91 208 -198
7 -8 70 -71 141 -142 70 -70 127 -132 127 -137 0 -8 77 -96 146 -167 16 -16
31 -35 34 -42 5 -11 63 -83 101 -124 9 -10 18 -22 20 -28 4 -10 50 -67 107
-130 12 -14 22 -31 22 -38 0 -7 8 -17 17 -22 9 -5 24 -23 32 -39 28 -52 71
-113 80 -113 5 0 14 -13 20 -30 5 -16 15 -30 21 -30 6 0 20 -20 31 -45 11 -25
24 -45 30 -45 6 0 21 -24 34 -54 13 -30 30 -58 38 -63 8 -4 28 -38 45 -75 17
-36 37 -70 45 -75 8 -4 27 -35 41 -68 15 -33 34 -65 41 -71 19 -14 325 -625
319 -635 -2 -5 16 -49 41 -98 25 -50 45 -99 45 -108 0 -10 11 -38 25 -62 14
-23 25 -53 25 -65 1 -11 14 -46 30 -76 17 -30 30 -64 30 -75 0 -12 4 -25 8
-30 5 -6 15 -37 22 -70 7 -33 21 -75 32 -93 10 -19 16 -38 13 -42 -3 -5 2 -24
12 -42 9 -18 18 -42 19 -53 2 -21 20 -77 35 -107 5 -10 9 -29 9 -42 0 -14 5
-28 10 -31 6 -4 8 -15 5 -25 -3 -10 -1 -21 5 -25 5 -3 10 -19 10 -35 0 -16 5
-32 11 -35 6 -4 8 -14 5 -22 -4 -9 -2 -21 3 -27 4 -6 12 -33 16 -61 4 -27 10
-54 15 -60 4 -5 10 -39 14 -74 3 -35 10 -69 15 -75 5 -6 11 -31 14 -56 3 -25
8 -58 12 -75 3 -16 9 -48 12 -70 3 -22 9 -45 14 -51 5 -6 6 -25 3 -41 l-6 -31
11 -6 11 -7 0 -59 c0 -32 5 -62 10 -65 l10 -6 -6 -40 -7 -40 11 -22 c10 -22
20 -96 29 -232 6 -94 5 -1138 -1 -1245 -9 -147 -18 -235 -26 -245 -4 -5 -11
-59 -15 -120 -4 -60 -11 -115 -16 -120 -4 -6 -8 -20 -7 -30 0 -11 -5 -49 -11
-85 -7 -36 -12 -74 -12 -85 0 -10 -4 -24 -8 -30 -5 -5 -11 -28 -14 -50 -3 -22
-9 -53 -12 -70 -4 -16 -9 -50 -12 -75 -3 -25 -10 -51 -15 -57 -6 -7 -8 -19 -5
-26 3 -7 -2 -38 -10 -68 -8 -30 -21 -79 -28 -109 -25 -103 -32 -125 -42 -145
-5 -11 -16 -47 -23 -80 -7 -33 -17 -64 -22 -69 -4 -6 -8 -19 -8 -30 0 -12 -7
-34 -15 -50 -8 -15 -15 -36 -15 -45 0 -9 -7 -29 -15 -45 -8 -15 -15 -36 -15
-45 0 -9 -11 -38 -25 -64 -14 -26 -23 -52 -20 -57 3 -5 -4 -24 -15 -42 -11
-18 -20 -42 -20 -53 0 -11 -13 -45 -30 -75 -16 -30 -29 -63 -30 -73 0 -10 -16
-49 -35 -87 -19 -38 -35 -77 -35 -87 0 -23 -300 -623 -311 -623 -5 0 -28 -39
-51 -87 -23 -49 -48 -94 -55 -101 -7 -7 -13 -18 -13 -23 0 -6 -11 -25 -24 -42
-13 -18 -27 -42 -30 -54 -4 -11 -13 -24 -21 -27 -8 -3 -26 -30 -39 -59 -13
-30 -31 -57 -40 -60 -9 -4 -16 -13 -16 -20 0 -8 -14 -28 -30 -45 -17 -18 -30
-39 -30 -47 0 -8 -11 -25 -25 -37 -14 -12 -25 -27 -25 -33 0 -6 -11 -22 -25
-35 -14 -13 -25 -29 -25 -36 0 -7 -20 -34 -45 -61 -25 -26 -45 -53 -45 -60 0
-6 -20 -33 -45 -60 -25 -26 -45 -51 -45 -55 0 -5 -8 -16 -17 -27 -38 -41 -98
-114 -103 -125 -3 -7 -18 -26 -33 -42 -100 -104 -177 -190 -177 -197 0 -11
-466 -477 -477 -477 -4 0 -34 -25 -66 -55 -33 -30 -62 -55 -67 -55 -4 0 -20
-16 -36 -35 -15 -19 -32 -35 -38 -35 -9 0 -57 -39 -128 -104 -10 -9 -21 -16
-26 -16 -4 0 -28 -19 -54 -43 -76 -69 -99 -87 -110 -87 -6 0 -21 -10 -33 -23
-41 -40 -76 -67 -90 -67 -8 0 -19 -8 -24 -19 -6 -10 -29 -26 -51 -35 -22 -9
-40 -21 -40 -26 0 -6 -20 -20 -45 -31 -25 -11 -45 -24 -45 -30 0 -6 -24 -21
-54 -34 -30 -13 -58 -30 -63 -38 -4 -8 -34 -26 -65 -41 -32 -14 -58 -30 -58
-36 0 -6 -38 -28 -84 -49 -46 -22 -86 -46 -89 -55 -4 -9 -15 -16 -26 -16 -11
0 -23 -4 -26 -10 -3 -5 -81 -46 -173 -90 -92 -45 -174 -85 -182 -91 -36 -22
-60 -27 -123 -22 l-67 6 -2 36 c-4 72 4 122 23 156 11 19 18 39 14 44 -3 6 -2
18 3 28 21 41 47 128 65 213 7 30 15 60 19 65 3 6 9 33 13 60 4 28 11 55 15
60 4 6 11 40 15 77 3 37 11 71 17 74 l10 6 -6 33 -7 33 11 7 c5 3 10 26 10 50
0 24 4 46 9 49 4 3 12 51 15 106 4 55 11 102 16 105 4 3 11 69 15 147 4 78 11
149 16 158 15 25 31 504 35 1050 l5 515 10 45 c5 25 11 54 13 65 2 11 4 23 5
27 0 4 20 16 44 27 23 11 49 24 57 29 50 29 95 35 160 19 14 -3 116 -8 227
-10 l201 -3 15 -12 c8 -7 35 -15 61 -18 26 -4 64 -15 83 -25 20 -10 40 -16 45
-13 5 3 15 1 22 -5 7 -6 35 -14 62 -17 27 -4 54 -11 60 -15 13 -10 94 -22 141
-20 18 0 35 -4 38 -9 l6 -10 89 0 89 0 7 11 6 11 25 -5 c28 -5 81 7 130 29 17
8 37 14 45 14 32 0 140 64 191 113 30 29 69 63 86 77 17 14 31 31 31 38 0 7
11 17 25 22 24 9 36 40 15 40 -5 0 -10 7 -10 15 0 17 16 20 25 4 l7 -10 20 18
c25 23 108 189 108 217 0 12 6 28 13 35 l12 12 0 157 -1 157 -27 50 c-15 27
-27 60 -27 72 0 12 -10 34 -22 50 -13 15 -31 45 -42 65 -33 66 -196 229 -287
288 -12 8 -32 25 -43 36 -25 25 -138 84 -162 84 -9 0 -30 6 -47 14 -76 32 -90
36 -107 31 -10 -3 -21 -1 -25 5 -3 5 -24 10 -45 10 -21 0 -42 5 -45 10 l-6 10
-53 -6 -53 -6 -7 11 -7 11 -284 0 -284 0 -7 -11 -6 -11 -127 1 c-69 0 -196 -1
-282 -2 l-156 -2 -46 40 c-53 47 -77 90 -77 137 0 19 -3 38 -7 42 -5 4 -9 24
-10 44 -1 21 -8 93 -15 162 l-12 125 0 505 c-1 462 6 681 22 720 3 8 11 76 18
150 19 202 65 559 75 575 4 6 10 53 14 105 4 52 10 99 13 105 4 5 13 48 19 95
7 47 16 96 19 110 3 14 8 43 11 65 2 22 8 49 13 60 5 11 18 72 30 135 12 63
25 124 30 135 5 11 11 44 15 74 3 30 13 67 21 82 7 15 14 39 14 53 0 14 4 27
9 30 5 4 12 29 16 58 4 29 11 59 15 68 12 25 31 82 41 125 6 22 14 44 20 50 5
5 9 17 9 27 0 9 6 32 14 50 20 48 37 98 47 139 4 20 20 56 34 80 13 24 25 53
25 64 0 11 13 45 30 75 16 30 29 64 30 75 0 11 13 45 30 75 16 30 29 64 30 75
0 11 9 37 20 58 11 20 20 48 20 61 0 14 5 28 10 31 l10 6 -10 20 -11 19 16 6
15 6 0 58 0 59 -11 6 c-6 4 -8 14 -5 22 7 18 -34 101 -63 127 -12 11 -21 23
-21 29 0 5 -42 49 -92 97 -51 48 -102 98 -114 109 -12 12 -25 21 -31 21 -5 0
-25 14 -43 30 -18 17 -39 30 -45 30 -7 0 -26 14 -43 30 -18 17 -38 30 -46 30
-16 0 -38 17 -128 100 -33 30 -65 57 -71 59 -16 6 -263 253 -268 268 -2 7 -41
50 -86 97 -46 47 -83 88 -83 91 0 17 -350 345 -380 357 -9 3 -20 13 -23 22 -4
9 -13 16 -21 16 -9 0 -20 9 -26 20 -6 11 -17 20 -25 20 -9 0 -23 9 -33 21 -9
11 -41 31 -69 44 -29 13 -53 29 -53 34 0 14 -178 104 -190 96 -5 -3 -24 4 -43
15 l-34 20 -16 -5 c-8 -4 -18 -2 -22 4 -3 6 -17 11 -30 11 -13 0 -26 3 -28 8
-14 21 -263 3 -324 -24 -17 -8 -38 -14 -47 -14 -24 0 -96 -38 -96 -51 0 -5
-17 -18 -38 -27 -20 -9 -48 -27 -62 -40 -14 -13 -32 -29 -41 -37 -9 -8 -20
-15 -25 -15 -12 0 -214 -202 -214 -215 0 -6 -9 -16 -20 -23 -11 -7 -20 -17
-20 -23 0 -6 -13 -27 -30 -46 -16 -18 -30 -39 -30 -46 0 -7 -13 -28 -29 -47
-32 -40 -181 -333 -181 -359 0 -9 -16 -47 -35 -85 -19 -37 -35 -76 -35 -85 0
-9 -13 -41 -30 -71 -16 -30 -29 -65 -30 -78 0 -12 -6 -33 -14 -45 -8 -12 -17
-38 -20 -58 -4 -21 -13 -42 -21 -49 -8 -7 -15 -20 -15 -30 0 -17 -74 -100 -89
-100 -4 0 -18 9 -31 20 -13 11 -34 20 -47 20 -12 0 -31 7 -40 15 -48 41 -91
72 -115 83 -16 6 -28 16 -28 22 0 6 -18 17 -40 26 -22 9 -45 25 -51 35 -5 11
-15 19 -23 19 -7 0 -28 14 -46 30 -18 17 -40 30 -47 30 -19 0 -129 107 -696
676 -202 203 -291 286 -318 296 -10 4 -19 12 -19 18 0 6 -11 15 -25 20 -14 5
-25 14 -25 19 0 6 -20 19 -45 30 -25 11 -45 24 -45 30 0 12 -255 141 -279 141
-9 0 -29 7 -45 15 -15 8 -43 15 -62 15 -18 0 -35 3 -37 8 -7 10 -234 5 -277
-6 -74 -20 -251 -120 -321 -182 -10 -8 -35 -30 -56 -47 -102 -87 -133 -117
-133 -127 0 -7 -16 -25 -35 -40 -19 -16 -35 -33 -35 -38 0 -6 -13 -26 -30 -45
-16 -18 -30 -40 -30 -47 0 -7 -10 -21 -21 -32 -12 -10 -41 -61 -65 -111 -24
-51 -48 -93 -53 -93 -13 0 -41 -53 -41 -77 0 -10 -20 -58 -45 -107 -25 -48
-45 -95 -45 -102 0 -8 -13 -41 -30 -74 -16 -33 -30 -67 -30 -76 0 -9 -8 -35
-19 -58 -23 -52 -40 -100 -52 -149 -5 -21 -13 -45 -18 -55 -13 -26 -32 -84
-38 -112 -2 -14 -10 -38 -18 -55 -23 -53 -34 -96 -29 -110 3 -7 1 -16 -5 -20
-6 -3 -11 -17 -11 -31 0 -13 -4 -32 -9 -42 -16 -31 -33 -87 -35 -109 0 -12 -4
-25 -8 -29 -5 -4 -8 -20 -8 -35 0 -15 -4 -30 -9 -33 -5 -4 -12 -30 -16 -59 -4
-28 -11 -56 -15 -62 -4 -5 -11 -30 -15 -55 -4 -25 -12 -54 -18 -65 -11 -21
-27 -78 -31 -110 -1 -11 -5 -27 -8 -35 -9 -21 -22 -72 -23 -90 -1 -8 -4 -22
-7 -30 -9 -21 -22 -72 -23 -90 -1 -8 -4 -22 -7 -30 -18 -47 -49 -199 -49 -237
1 -12 -4 -25 -9 -28 -6 -3 -10 -19 -10 -35 0 -16 -5 -32 -11 -36 -6 -3 -9 -14
-6 -24 2 -10 -2 -42 -10 -71 -8 -30 -15 -64 -14 -76 0 -12 -4 -25 -9 -28 -6
-3 -10 -19 -10 -35 0 -16 -5 -32 -11 -36 l-11 -6 6 -31 c3 -16 2 -35 -3 -41
-8 -10 -19 -69 -22 -116 0 -8 -4 -24 -8 -35 -23 -58 -31 -96 -26 -118 l7 -25
-11 -6 c-6 -4 -11 -27 -11 -51 0 -24 -5 -47 -11 -51 l-11 -6 6 -31 c3 -16 2
-35 -3 -41 -9 -11 -23 -104 -25 -168 0 -20 -4 -40 -8 -44 -5 -4 -8 -27 -8 -50
0 -24 -5 -46 -10 -49 l-11 -7 1 -51 c2 -77 -11 -231 -20 -242 -15 -19 -21
-871 -7 -985 14 -121 32 -229 40 -236 4 -4 7 -20 7 -35 0 -15 5 -31 10 -34 6
-4 8 -15 5 -25 -3 -10 -1 -21 5 -25 5 -3 10 -19 10 -35 0 -16 5 -32 10 -35 6
-4 8 -15 5 -25 -3 -10 -1 -21 5 -25 5 -3 10 -19 10 -34 0 -15 3 -31 7 -35 4
-4 13 -26 19 -49 20 -70 35 -107 90 -223 30 -61 54 -116 54 -122 0 -6 6 -17
14 -24 7 -8 26 -40 41 -71 14 -31 31 -57 36 -57 5 0 15 -15 22 -32 8 -18 24
-42 36 -52 11 -11 21 -25 21 -32 0 -7 9 -18 20 -24 11 -6 20 -16 20 -23 0 -14
171 -187 184 -187 5 0 16 -7 25 -15 79 -73 118 -105 129 -105 7 0 30 -18 51
-40 21 -22 45 -40 54 -40 9 0 27 -10 41 -23 l25 -23 2 -50 c3 -58 -6 -77 -29
-69 l-17 5 -28 -30 -28 -29 -36 -7 c-19 -4 -61 -20 -92 -35 -31 -16 -65 -29
-76 -29 -11 -1 -45 -14 -75 -30 -30 -17 -64 -30 -74 -30 -11 0 -43 -14 -73
-30 -29 -17 -62 -30 -73 -30 -11 0 -64 -23 -118 -50 -54 -27 -106 -50 -115
-50 -23 0 -635 -308 -644 -324 -5 -8 -38 -27 -75 -44 -36 -17 -70 -37 -75 -45
-4 -8 -26 -22 -48 -32 -22 -10 -55 -31 -73 -47 -18 -15 -39 -28 -46 -28 -7 0
-23 -11 -36 -25 -13 -14 -29 -25 -35 -25 -6 0 -21 -11 -33 -25 -12 -14 -27
-25 -33 -25 -7 0 -22 -10 -35 -22 -46 -46 -61 -58 -68 -58 -10 0 -68 -45 -110
-87 -18 -18 -38 -33 -43 -33 -17 0 -333 -315 -333 -331 0 -9 -16 -28 -35 -43
-19 -16 -35 -33 -35 -40 0 -6 -9 -17 -20 -24 -11 -7 -20 -19 -20 -27 0 -8 -11
-25 -25 -37 -14 -12 -25 -27 -25 -33 0 -6 -11 -22 -25 -35 -14 -13 -25 -29
-25 -36 0 -7 -31 -43 -68 -81 l-69 -69 -59 28 -59 28 -12 27 c-6 16 -27 44
-47 62 -20 19 -36 40 -36 47 0 6 -12 27 -27 47 -71 92 -93 125 -93 135 0 6
-13 26 -29 44 -15 18 -44 67 -63 108 -19 41 -42 81 -51 89 -9 7 -17 19 -17 27
0 7 -6 19 -13 26 -19 20 -297 583 -297 602 0 9 -16 47 -35 85 -19 37 -35 76
-35 87 -1 10 -14 44 -30 74 -17 30 -30 64 -30 76 0 11 -4 24 -9 30 -6 5 -14
27 -20 49 -10 44 -27 93 -47 143 -8 18 -14 40 -14 50 0 9 -9 32 -20 50 -11 18
-18 38 -14 43 3 5 -4 25 -15 44 -11 19 -18 41 -15 49 3 8 1 17 -5 21 -6 3 -11
18 -11 33 0 15 -6 36 -14 47 -7 11 -17 43 -21 70 -4 28 -10 55 -15 60 -4 6
-11 33 -15 60 -4 28 -10 55 -13 60 -4 6 -12 35 -18 65 -7 30 -19 81 -28 113
-9 32 -13 63 -10 68 3 6 1 15 -4 22 -9 11 -21 79 -23 132 -1 27 -19 96 -30
118 -6 10 -7 28 -3 39 3 11 1 30 -4 42 -6 11 -16 71 -22 131 -7 61 -16 146
-22 190 -5 44 -9 108 -8 143 l1 63 -11 14 -11 13 5 568 c5 573 7 627 24 764 6
41 15 125 21 185 7 61 16 117 20 126 5 8 12 51 16 95 4 43 11 84 15 89 4 6 11
39 14 75 4 36 11 69 15 75 4 5 18 64 30 130 12 66 26 127 30 135 5 9 12 36 15
60 4 25 11 54 15 65 22 55 34 95 45 145 7 30 15 62 18 70 22 64 31 92 44 140
8 30 22 75 33 100 26 63 41 108 52 155 6 22 14 44 20 50 5 5 9 17 9 27 0 10
14 45 30 78 17 33 30 67 30 76 0 10 20 57 45 105 25 48 45 95 45 104 0 22 285
594 309 619 11 12 35 55 54 96 19 41 44 84 56 94 11 11 21 25 21 32 0 7 14 29
30 48 17 18 37 51 46 72 9 21 24 44 34 51 10 7 24 29 30 48 6 19 16 35 21 35
9 0 49 56 80 110 8 15 27 42 42 60 15 17 27 38 27 45 0 8 9 19 20 25 11 6 20
17 20 25 0 14 17 36 87 113 24 26 43 52 43 59 0 7 9 17 20 23 11 6 20 16 20
23 0 7 18 31 40 52 22 21 40 43 40 49 0 5 7 16 15 25 155 163 195 207 195 214
0 12 465 477 477 477 5 0 38 27 74 59 35 33 72 66 81 75 10 9 22 16 26 16 5 0
37 27 73 59 35 33 72 66 82 75 9 9 20 16 25 16 4 0 25 17 46 38 22 20 51 44
66 52 55 30 110 71 110 80 0 6 6 10 13 10 7 0 31 18 53 40 23 22 58 47 78 55
20 8 36 20 36 26 0 5 25 21 55 35 31 13 58 31 61 39 3 8 21 19 40 25 19 6 40
19 46 29 7 10 39 29 71 44 31 14 57 31 57 37 0 6 35 26 78 46 42 19 82 40 87
47 15 18 26 24 325 172 350 174 331 165 347 165 8 0 44 16 82 35 37 19 76 35
87 35 10 1 44 14 74 30 30 17 64 30 75 30 11 0 35 9 53 20 18 11 49 24 70 29
46 11 100 30 127 44 11 6 36 14 55 18 19 4 51 13 70 20 61 21 65 22 85 25 21
2 78 21 107 35 10 5 29 9 42 9 14 0 28 5 31 11 4 6 14 8 22 5 9 -4 21 -2 27 2
6 5 31 12 56 16 48 7 104 23 132 37 10 5 24 6 32 3 8 -3 17 -1 21 5 3 6 19 11
35 11 16 0 32 5 36 11 l6 11 25 -7 c23 -5 77 7 116 26 9 5 28 7 42 3 13 -3 30
-2 37 3 22 14 121 31 149 26 l27 -5 6 11 c4 6 26 11 50 11 23 0 46 3 50 8 4 4
24 8 44 9 21 1 73 7 117 13 44 7 110 11 147 10 l66 -1 7 10 6 11 87 1 c48 1
97 4 110 7 26 8 787 3 952 -5z m-870 -7743 c11 -11 20 -29 20 -40 0 -10 9 -24
21 -30 l21 -12 -6 -15 -6 -16 15 -17 c9 -10 17 -30 19 -46 3 -16 11 -42 20
-59 9 -16 16 -37 16 -46 0 -9 13 -43 30 -75 16 -32 30 -67 30 -76 0 -9 11 -38
25 -64 14 -26 25 -53 25 -59 0 -7 6 -18 14 -24 7 -6 23 -43 35 -81 12 -38 26
-72 32 -75 5 -4 9 -14 9 -24 0 -10 7 -24 15 -31 9 -7 13 -20 10 -27 -2 -8 -1
-22 4 -31 l9 -17 -43 -37 -43 -38 -90 -6 -90 -6 -12 21 -11 22 -19 -6 -18 -6
-19 28 c-33 47 -51 92 -46 112 2 10 0 22 -6 25 l-11 7 0 69 0 69 -10 6 -10 6
0 258 0 259 16 13 16 13 -5 32 c-8 49 9 58 43 24z"/>
<path d="M7363 13373 c-11 -8 -66 -128 -84 -183 -4 -14 -22 -63 -40 -110 -17
-47 -39 -112 -49 -145 -10 -33 -31 -103 -48 -155 -26 -84 -70 -228 -117 -385
-41 -138 -68 -234 -90 -318 -58 -225 -193 -767 -202 -812 -6 -27 -27 -126 -46
-220 -47 -221 -74 -367 -91 -490 -8 -55 -19 -125 -25 -155 -9 -50 -17 -112
-51 -420 -19 -162 -32 -546 -25 -735 7 -234 28 -371 77 -528 l22 -68 33 -39
34 -39 33 -7 34 -6 43 20 c155 69 405 532 619 1147 23 66 48 136 55 155 8 19
22 60 31 90 9 30 23 71 30 90 15 40 60 188 104 340 17 58 35 119 40 135 16 52
102 386 125 490 13 55 28 120 34 145 18 69 61 288 71 355 5 33 18 119 29 190
11 72 29 226 41 343 l20 213 0 234 0 234 -21 107 c-54 281 -174 429 -410 504
-73 24 -159 34 -176 23z m200 -773 l17 -20 1 -298 c1 -392 1 -393 -10 -406 -8
-10 -15 -54 -25 -166 -6 -69 -19 -135 -28 -147 l-10 -12 7 -30 6 -29 -10 -7
c-6 -3 -11 -26 -11 -50 0 -24 -5 -47 -11 -50 -6 -4 -8 -14 -5 -22 4 -9 2 -21
-3 -27 -9 -11 -21 -81 -21 -123 0 -12 -5 -25 -10 -28 -6 -3 -10 -19 -10 -35 0
-16 -5 -32 -10 -35 -6 -4 -8 -15 -5 -25 3 -10 1 -21 -5 -25 -5 -3 -10 -19 -10
-35 0 -16 -5 -32 -10 -35 -6 -4 -8 -15 -5 -25 3 -10 1 -21 -5 -25 -5 -3 -10
-19 -10 -35 0 -16 -5 -32 -10 -35 -6 -4 -8 -15 -5 -25 3 -10 1 -21 -5 -25 -5
-3 -10 -19 -10 -35 0 -16 -5 -32 -11 -35 -6 -4 -8 -13 -5 -21 3 -8 -3 -29 -14
-47 -11 -17 -20 -47 -20 -65 0 -18 -7 -46 -15 -63 -9 -16 -13 -34 -10 -39 3
-4 -4 -24 -15 -43 l-20 -34 5 -16 c4 -8 2 -18 -4 -22 -6 -3 -11 -16 -11 -28 0
-12 -7 -35 -15 -50 -8 -15 -17 -43 -21 -63 -3 -19 -10 -36 -14 -39 -5 -3 -11
-23 -15 -45 -4 -22 -10 -42 -15 -45 -5 -3 -11 -23 -15 -45 -4 -22 -11 -42 -16
-46 -5 -3 -9 -14 -9 -25 0 -23 -46 -126 -61 -135 -5 -3 -7 -14 -4 -24 l6 -19
-21 -11 -21 -11 6 -19 6 -19 -21 -11 -22 -12 6 -13 c5 -15 -34 -65 -51 -65 -7
0 -18 10 -24 22 l-12 23 -3 210 c-1 115 2 215 6 220 7 9 20 136 20 199 0 15 4
33 9 40 8 10 18 78 24 168 1 20 5 40 10 44 4 4 7 24 7 45 0 21 5 41 10 44 6 4
9 16 8 28 -3 31 13 120 24 134 5 6 8 17 7 25 -3 19 12 111 21 123 4 6 11 40
15 77 3 37 11 71 16 74 6 3 8 12 5 20 -3 8 -2 22 4 32 9 18 23 67 25 92 1 8 4
22 7 30 16 46 27 92 33 145 4 33 10 65 15 70 4 6 11 30 15 55 4 25 13 59 20
75 14 33 28 81 30 105 1 8 4 22 7 30 9 21 19 71 19 92 0 10 4 20 10 23 5 4 9
15 9 27 0 11 6 34 14 51 15 35 27 82 27 109 0 10 4 20 10 23 5 4 9 16 9 28 0
12 7 35 15 51 8 15 15 36 15 45 0 9 7 29 15 45 8 15 15 36 15 45 0 9 6 28 14
42 7 14 16 42 20 61 4 20 13 42 22 49 8 7 12 19 9 26 l-5 15 37 38 c45 44 53
47 76 20z"/>
<path d="M10834 13324 c-55 -126 -87 -218 -208 -594 -20 -62 -67 -222 -105
-360 -18 -63 -37 -128 -42 -145 -14 -42 -40 -133 -49 -175 -5 -19 -13 -48 -18
-65 -20 -56 -129 -498 -178 -720 -8 -38 -22 -97 -29 -130 -17 -75 -39 -184
-60 -300 -9 -49 -23 -117 -31 -151 -8 -33 -14 -71 -14 -84 0 -14 -11 -94 -24
-180 -14 -85 -35 -247 -48 -360 l-23 -205 0 -420 0 -420 23 -120 c25 -139 50
-211 89 -268 l28 -40 34 -14 35 -15 41 12 40 12 60 61 c126 129 308 469 442
825 12 34 34 92 48 130 90 236 185 527 265 802 10 36 30 103 44 150 13 47 27
96 31 110 3 14 21 84 40 155 36 136 41 155 55 220 5 22 17 78 28 125 20 83 66
332 96 520 17 105 38 276 58 475 l13 130 -1 220 0 220 -17 89 c-25 131 -35
162 -79 256 l-41 85 -58 57 c-94 92 -221 150 -356 164 l-63 7 -26 -59z m228
-731 l-3 -22 21 -11 21 -11 -5 -242 c-2 -133 -4 -268 -5 -300 0 -32 -4 -64 -9
-70 -6 -7 -13 -39 -16 -72 -3 -33 -8 -78 -10 -100 -9 -91 -19 -151 -28 -162
-5 -7 -7 -21 -3 -32 l6 -19 -11 -7 c-5 -3 -10 -26 -10 -50 0 -24 -4 -46 -9
-49 -4 -3 -11 -37 -15 -76 -4 -38 -11 -72 -15 -75 -5 -2 -11 -36 -15 -75 -4
-38 -12 -72 -17 -76 -5 -3 -7 -14 -4 -24 3 -10 1 -21 -5 -25 -5 -3 -10 -19
-10 -35 0 -16 -5 -32 -10 -35 -6 -4 -8 -15 -5 -25 3 -10 1 -21 -5 -25 -5 -3
-10 -19 -10 -35 0 -16 -5 -32 -10 -35 -6 -4 -8 -15 -5 -25 3 -10 1 -21 -5 -25
-5 -3 -10 -19 -10 -34 0 -15 -4 -31 -8 -37 -5 -5 -17 -45 -27 -89 -10 -44 -24
-93 -32 -108 -8 -15 -11 -32 -8 -37 3 -4 -4 -24 -15 -43 l-20 -34 5 -16 c4 -8
2 -18 -4 -22 -6 -3 -11 -17 -11 -30 0 -13 -5 -37 -11 -52 -6 -15 -16 -39 -21
-53 -6 -14 -14 -32 -18 -41 -5 -9 -12 -33 -15 -53 -4 -20 -11 -38 -15 -41 -5
-3 -11 -23 -15 -45 -4 -22 -11 -42 -16 -46 -5 -3 -9 -15 -9 -27 0 -12 -9 -39
-19 -59 -11 -19 -17 -38 -15 -41 5 -5 -48 -119 -88 -192 -6 -11 -14 -27 -18
-35 l-7 -15 -34 3 c-51 5 -51 5 -45 213 2 107 5 222 5 256 l0 61 10 7 11 6 0
54 0 54 11 7 11 6 -7 35 -6 35 9 11 c6 7 12 37 15 67 3 30 8 69 12 85 4 17 9
50 12 75 3 25 10 50 15 57 l10 12 -7 30 -6 29 10 7 c6 3 11 26 11 50 0 24 5
47 11 50 6 4 8 13 5 21 -3 8 -2 22 3 32 16 32 29 87 36 150 4 34 11 64 15 67
5 3 9 18 8 33 0 15 10 63 21 106 12 44 21 89 21 102 0 13 5 26 10 29 6 4 8 15
5 25 -3 10 -1 21 5 25 5 3 10 19 10 35 0 16 5 32 10 35 6 4 8 15 5 25 -3 10
-1 21 5 25 5 3 10 17 10 31 0 13 4 32 9 42 16 31 33 87 35 109 0 12 4 25 9 29
4 4 7 20 7 35 0 15 5 31 10 34 6 4 8 15 5 25 -3 10 -1 21 5 25 5 3 10 15 10
27 0 11 6 34 14 51 15 35 27 82 27 109 0 10 4 20 10 23 5 4 9 16 9 28 0 12 7
35 15 51 8 15 15 36 15 45 0 9 7 29 15 45 8 15 15 36 15 45 0 9 8 32 18 51 11
19 17 40 15 47 -2 6 5 17 17 23 l22 12 -6 15 -6 15 37 38 c21 21 45 37 53 36
l15 -1 -3 -22z"/>
<path d="M9180 6934 c-14 -2 -104 -8 -200 -14 -306 -18 -454 -31 -467 -42
l-13 -10 0 -163 c0 -221 -1 -220 103 -158 195 115 468 242 648 302 37 12 75
31 84 41 l18 20 -13 15 -12 15 -62 -1 c-33 -1 -72 -3 -86 -5z"/>
<path d="M7620 6748 c-269 -21 -462 -41 -535 -53 -269 -47 -270 -47 -470 -107
-256 -77 -729 -316 -1080 -546 -688 -452 -1060 -901 -1115 -1348 l-13 -101 16
-139 c15 -132 50 -283 82 -349 8 -16 25 -56 39 -89 59 -133 182 -305 301 -418
17 -16 100 -75 185 -132 405 -268 595 -373 730 -400 41 -8 110 -22 153 -30
l78 -16 177 0 177 0 125 26 c187 38 193 40 217 52 12 7 29 12 39 12 9 0 70 27
135 59 188 95 326 206 464 375 l75 93 0 26 c0 14 -13 49 -30 77 -16 28 -30 53
-30 55 0 3 -11 28 -25 57 -56 121 -118 333 -145 493 l-22 130 -5 195 -5 195
30 140 c73 344 241 631 531 907 l102 97 -12 362 -13 361 -14 14 c-7 8 -19 13
-25 12 -7 0 -59 -5 -117 -10z m-302 -430 l33 -10 -6 -18 -6 -19 20 -10 20 -11
-3 -53 -3 -52 -42 -87 c-23 -47 -48 -89 -56 -92 -8 -3 -15 -12 -15 -19 0 -13
-20 -40 -69 -92 -10 -11 -22 -30 -25 -42 -4 -11 -13 -24 -21 -27 -8 -3 -28
-33 -45 -68 -17 -34 -39 -71 -49 -82 -25 -28 -111 -201 -111 -224 0 -11 -14
-45 -30 -76 -17 -31 -28 -61 -25 -66 3 -5 -2 -21 -11 -35 -18 -28 -37 -102
-61 -240 l-16 -90 0 -205 0 -205 12 -80 c7 -44 12 -90 12 -102 0 -12 4 -25 9
-28 6 -3 10 -26 10 -50 0 -24 5 -47 10 -50 6 -4 8 -15 5 -25 -3 -10 -2 -21 3
-24 6 -3 13 -30 17 -61 3 -30 11 -57 16 -60 5 -4 9 -19 9 -34 0 -15 5 -32 12
-39 l12 -12 1 -108 0 -107 -23 -47 c-12 -27 -28 -48 -35 -48 -6 0 -31 -17 -54
-39 -24 -21 -78 -55 -120 -75 -43 -21 -85 -41 -93 -45 -8 -4 -40 -14 -70 -21
-30 -8 -60 -18 -67 -23 -7 -5 -26 -6 -43 -2 l-31 7 -15 -13 -15 -12 -189 0
-189 0 -15 12 -15 13 -20 -7 -19 -6 -7 11 c-3 5 -23 10 -43 10 l-37 0 -47 25
c-26 14 -53 22 -61 19 -7 -2 -20 2 -27 11 -7 8 -20 15 -30 15 -10 0 -23 7 -30
15 -7 8 -17 15 -23 15 -19 0 -97 41 -97 51 0 6 -20 19 -45 30 -24 11 -47 24
-50 29 -3 6 -14 10 -23 10 -9 0 -28 12 -41 25 -13 14 -29 25 -36 25 -14 0 -50
27 -90 68 -12 12 -28 22 -34 22 -14 0 -191 173 -191 187 0 6 -9 18 -20 28 -12
10 -29 38 -40 62 -10 24 -24 43 -29 43 -13 0 -63 99 -56 111 3 4 -1 23 -9 41
-40 97 -53 155 -62 285 l-7 83 10 12 c6 7 14 42 17 77 4 35 13 73 21 85 8 11
19 43 26 69 l12 48 17 9 c10 5 28 34 41 65 12 30 26 55 31 55 7 0 45 52 74
102 6 10 32 38 58 61 25 24 46 47 46 52 1 6 21 28 46 50 25 22 60 55 78 73 18
17 38 32 43 32 5 0 37 26 71 58 88 83 112 102 127 102 8 0 19 8 24 19 6 10 29
26 51 35 22 9 43 23 46 31 3 8 20 19 38 25 18 6 44 22 56 35 13 14 30 25 37
25 8 0 25 11 38 24 13 13 52 37 87 54 35 16 72 39 82 51 11 11 27 21 37 21 10
0 20 4 23 8 6 11 449 232 463 232 6 0 16 7 23 15 7 9 19 14 27 11 7 -3 22 4
32 15 l19 21 12 -7 c6 -3 30 5 55 19 24 14 55 26 69 26 14 0 27 4 31 9 3 5 31
15 63 21 31 6 65 15 74 20 10 6 36 10 57 10 22 0 43 5 46 10 4 6 15 8 25 5 10
-3 21 -1 25 5 l7 11 121 -1 c67 -1 137 -6 155 -12z"/>
<path d="M11120 6749 c-440 -36 -584 -55 -825 -111 -96 -22 -295 -82 -323 -98
-9 -5 -39 -19 -67 -31 -460 -198 -924 -477 -1303 -783 l-69 -56 -7 -322 c-10
-508 -65 -1082 -121 -1278 -7 -25 -21 -83 -30 -130 -9 -47 -21 -94 -26 -105
-14 -30 -40 -125 -46 -166 l-5 -36 74 -66 c230 -206 401 -320 617 -411 60 -25
114 -46 119 -46 6 0 26 -6 44 -14 18 -8 69 -21 113 -30 44 -9 112 -23 152 -31
l72 -15 179 0 c99 0 201 4 228 10 382 76 575 164 783 356 160 148 335 422 412
644 50 143 89 266 89 281 0 8 6 35 14 60 8 24 21 78 29 119 45 225 47 240 78
565 l20 220 1 275 c0 151 -5 327 -11 390 -6 63 -16 268 -22 455 l-12 340 -15
13 c-9 6 -21 11 -26 11 -6 -1 -58 -6 -116 -10z m-300 -438 l11 -21 23 0 24 0
15 -23 c8 -12 18 -38 22 -57 4 -19 10 -39 14 -45 20 -32 19 -1230 -1 -1251 -5
-4 -8 -33 -8 -65 l0 -58 -11 -7 -11 -6 6 -33 7 -33 -9 -6 c-8 -5 -25 -84 -26
-128 -1 -9 -4 -20 -8 -24 -5 -4 -8 -23 -8 -41 0 -19 -5 -44 -12 -56 -12 -24
-28 -80 -32 -112 -1 -11 -10 -35 -19 -53 -10 -18 -15 -37 -12 -42 3 -5 -4 -24
-15 -42 -11 -18 -20 -41 -20 -50 0 -22 -56 -144 -69 -153 -6 -3 -11 -14 -11
-23 0 -20 -59 -107 -111 -165 -22 -23 -39 -48 -39 -55 0 -7 -24 -35 -52 -62
-29 -28 -67 -63 -84 -80 -17 -17 -45 -35 -63 -41 -17 -6 -36 -20 -42 -30 -5
-10 -18 -19 -28 -19 -10 0 -24 -7 -31 -15 -7 -8 -20 -15 -30 -15 -10 0 -23 -7
-30 -15 -7 -8 -28 -17 -49 -21 -20 -4 -41 -11 -48 -16 -7 -5 -16 -7 -21 -4
-10 6 -63 -9 -97 -27 l-20 -11 -233 -4 -232 -4 -15 12 -14 12 -20 -7 -19 -6
-7 11 c-3 5 -23 10 -43 10 -20 0 -49 6 -64 14 -15 8 -42 17 -60 21 -18 4 -37
11 -43 15 -5 4 -26 10 -46 14 -21 4 -42 13 -49 21 -7 8 -18 15 -24 15 -17 0
-93 38 -101 50 -3 5 -13 10 -22 10 -9 0 -23 7 -32 15 -88 81 -111 108 -135
157 l-28 56 6 94 c6 102 28 264 39 288 6 15 17 98 40 320 7 63 15 120 19 125
3 6 9 93 13 195 4 102 11 190 15 195 4 6 10 76 13 158 l5 147 12 14 c6 8 10
20 9 28 -1 7 6 40 16 73 l18 60 61 58 c85 80 94 87 121 97 14 5 25 14 25 20 0
6 20 19 45 30 25 11 45 24 45 30 0 6 33 26 73 44 40 19 79 41 86 49 7 9 55 36
106 61 52 25 97 50 100 56 3 5 14 10 24 10 10 0 28 11 41 25 13 14 31 25 41
25 9 0 22 7 29 15 7 8 20 15 30 15 10 0 23 7 30 15 7 8 28 17 48 21 20 4 70
24 111 45 41 22 90 42 108 45 18 3 36 10 39 15 3 5 13 9 23 9 10 0 24 6 30 14
6 7 32 16 59 19 26 3 61 13 77 21 17 9 47 16 67 16 20 0 39 4 42 9 3 4 29 11
57 14 28 4 56 11 63 16 15 12 48 16 178 19 l107 3 11 -20z"/>
<path d="M7903 2918 c-92 -122 -259 -271 -398 -355 -21 -13 -24 -14 -128 -61
l-67 -31 0 -25 0 -25 33 -6 c17 -3 84 -14 147 -26 63 -11 140 -24 170 -29 30
-5 78 -13 105 -19 28 -5 95 -17 150 -26 55 -9 125 -20 155 -25 30 -5 82 -12
115 -15 33 -4 103 -12 155 -20 253 -36 628 -55 1084 -55 397 0 468 4 487 26
l11 14 -28 11 c-16 6 -121 17 -234 25 -240 16 -383 31 -425 43 -16 5 -50 13
-75 16 -104 15 -329 92 -522 178 -92 41 -265 144 -376 223 -109 79 -130 96
-229 187 -77 70 -73 70 -130 -5z"/>
<path d="M9946 2267 c-22 -16 -15 -22 35 -31 l37 -6 27 10 28 11 -9 9 c-6 6
-30 12 -54 16 l-45 6 -19 -15z"/>
</g>
</svg>
