<?xml version="1.0" standalone="no"?> <!DOCTYPE svg PUBLIC "-//W3C//DTD SVG 20010904//EN" "http://www.w3.org/TR/2001/REC-SVG-20010904/DTD/svg10.dtd"> <svg version="1.0" xmlns="http://www.w3.org/2000/svg" width="600.000000pt" height="640.000000pt" viewBox="0 0 600.000000 640.000000" preserveAspectRatio="xMidYMid meet"> <g transform="translate(0.000000,640.000000) scale(0.100000,-0.100000)" fill="#000000" stroke="none"> <path d="M2885 5704 c-16 -2 -73 -9 -125 -15 -561 -64 -1083 -324 -1485 -741 -198 -204 -323 -383 -445 -633 -115 -236 -182 -446 -227 -713 -26 -154 -26 -600 0 -757 73 -441 250 -837 532 -1190 80 -100 80 -100 86 -28 4 39 15 93 25 120 46 123 165 256 324 362 161 108 491 256 645 290 28 6 119 30 203 54 154 42 154 42 148 87 -4 25 -9 107 -13 183 -3 75 -9 137 -12 137 -3 0 -17 -21 -31 -47 -34 -64 -84 -122 -133 -155 -34 -24 -50 -28 -106 -28 -79 1 -126 16 -185 61 -83 64 -149 191 -181 350 -27 128 -16 380 24 612 35 195 120 549 177 726 65 208 147 357 220 402 53 32 127 23 196 -23 64 -44 101 -79 240 -230 111 -119 192 -183 256 -200 20 -5 43 -11 49 -13 9 -3 3 -19 -17 -52 -92 -150 -175 -444 -220 -783 -40 -299 -44 -399 -25 -673 9 -139 18 -253 20 -255 1 -2 61 2 131 9 71 6 201 12 289 13 131 1 169 -2 212 -17 48 -17 104 -64 115 -97 3 -9 24 -6 78 10 41 13 78 25 81 29 3 3 -2 87 -11 186 -16 180 -16 180 -42 130 -35 -67 -102 -141 -149 -165 -72 -37 -181 -24 -266 33 -130 87 -205 294 -205 562 1 229 34 445 127 815 99 393 158 551 252 668 46 57 84 75 144 70 79 -8 146 -57 311 -230 156 -165 244 -234 309 -244 22 -4 39 -9 39 -12 0 -4 -18 -41 -40 -82 -52 -101 -94 -218 -130 -360 -60 -235 -110 -610 -110 -813 0 -110 26 -496 33 -504 3 -2 63 1 133 8 71 6 203 12 294 13 158 1 167 0 221 -25 78 -37 104 -76 104 -156 0 -54 -3 -65 -29 -92 -56 -59 -185 -63 -291 -9 -38 20 -51 21 -223 15 -101 -4 -187 -9 -190 -11 -4 -2 -4 -96 0 -208 8 -225 -4 -510 -28 -657 -55 -350 -184 -537 -431 -627 -42 -15 -72 -29 -66 -31 18 -6 278 65 408 112 522 189 950 529 1252 991 547 840 528 1957 -49 2771 -94 132 -152 201 -271 321 -395 400 -860 633 -1430 718 -98 14 -450 27 -512 18z m545 -68 c192 -34 266 -52 385 -91 153 -50 351 -138 459 -203 37 -23 72 -42 76 -42 5 0 10 -3 12 -7 2 -5 30 -25 63 -47 33 -21 79 -54 103 -73 23 -19 42 -32 42 -29 0 3 19 -13 43 -36 23 -22 57 -52 76 -67 32 -24 152 -141 146 -141 -2 0 13 -17 34 -37 122 -124 274 -350 382 -568 88 -180 182 -450 203 -585 3 -19 13 -80 23 -135 13 -77 17 -158 17 -355 0 -245 -3 -286 -38 -465 -16 -82 -61 -252 -72 -273 -8 -15 -14 -33 -14 -40 0 -38 -144 -361 -186 -418 -13 -17 -20 -34 -17 -38 4 -3 1 -6 -5 -6 -7 0 -12 -6 -12 -14 0 -8 -6 -21 -12 -28 -7 -7 -31 -40 -52 -73 -33 -51 -81 -115 -156 -209 -8 -10 -30 -35 -49 -55 -18 -20 -47 -52 -65 -71 -17 -19 -70 -69 -116 -110 -46 -41 -94 -85 -106 -98 -13 -13 -26 -23 -29 -22 -4 1 -21 -9 -38 -23 -69 -56 -127 -97 -127 -89 0 4 -4 2 -8 -4 -9 -15 -217 -132 -302 -171 -36 -17 -95 -41 -130 -53 -36 -13 -69 -27 -74 -32 -13 -11 -46 -10 -46 1 0 6 15 32 32 58 86 126 142 305 173 548 6 40 11 299 15 673 0 24 4 41 9 38 5 -4 11 -2 13 3 2 6 66 11 148 11 128 1 152 -1 205 -21 45 -17 82 -23 146 -23 82 -1 90 1 130 30 54 38 72 72 77 145 7 92 -42 163 -142 204 -50 21 -214 32 -346 23 -184 -12 -249 -13 -260 -2 -26 26 -40 510 -20 689 6 50 13 113 16 140 6 61 21 155 34 215 6 25 17 79 25 120 29 139 81 293 151 448 13 29 24 61 24 71 0 17 -55 71 -72 71 -26 0 -134 84 -214 166 -50 52 -89 94 -87 94 3 0 -30 34 -74 76 -84 81 -173 132 -242 138 -89 7 -189 -75 -258 -215 -51 -104 -123 -316 -158 -469 -2 -8 -9 -31 -15 -50 -6 -19 -15 -53 -20 -75 -5 -22 -18 -83 -30 -135 -57 -252 -90 -495 -90 -656 0 -100 20 -251 41 -309 43 -118 81 -187 136 -244 63 -66 63 -66 -83 -75 -54 -4 -127 -9 -161 -12 -60 -6 -63 -5 -72 19 -15 40 -26 225 -26 442 1 203 15 350 56 580 11 61 21 119 23 130 2 11 9 40 16 65 7 25 14 51 16 57 11 55 74 232 105 291 20 39 35 72 33 72 -2 0 1 11 5 23 12 31 -23 71 -86 98 -60 26 -99 57 -195 157 -223 232 -292 286 -387 304 -101 18 -200 -60 -276 -217 -25 -51 -45 -98 -45 -105 0 -6 -7 -24 -15 -38 -44 -80 -180 -620 -214 -852 -34 -226 -38 -275 -35 -410 2 -116 8 -164 27 -240 65 -247 194 -383 374 -395 75 -5 119 10 186 62 37 29 62 42 68 36 5 -5 11 -40 12 -77 1 -50 -2 -69 -13 -76 -19 -12 -162 -56 -212 -65 -21 -4 -38 -11 -38 -17 0 -5 -4 -6 -10 -3 -14 9 -111 -19 -230 -65 -201 -79 -294 -125 -439 -218 -133 -86 -282 -228 -321 -307 -14 -27 -27 -52 -30 -55 -3 -3 -12 -24 -20 -48 -7 -24 -18 -46 -23 -49 -9 -5 -78 59 -88 82 -12 27 -73 115 -80 115 -5 0 -9 5 -9 10 0 6 -19 41 -42 78 -91 148 -195 387 -238 550 -24 88 -25 92 -33 112 -9 24 -46 247 -56 345 -13 119 -6 433 13 565 38 274 147 611 258 803 15 26 28 50 28 53 0 10 152 239 164 246 6 4 7 8 1 8 -6 0 -6 3 0 8 6 4 21 20 33 36 80 104 291 323 376 389 23 17 46 37 51 43 14 17 250 173 310 207 45 24 83 43 221 108 22 10 46 19 52 19 7 0 12 4 12 8 0 5 6 9 13 9 6 1 73 21 147 46 149 50 278 80 415 96 50 6 101 13 115 15 61 11 509 -3 590 -18z m250 -3032 c0 -65 -7 -77 -51 -87 -20 -5 -34 1 -68 31 -43 37 -43 37 6 72 26 18 57 44 68 56 18 20 21 20 33 6 6 -9 12 -43 12 -78z"/> <path d="M2433 4403 c-67 -176 -175 -577 -216 -803 -37 -203 -50 -344 -45 -502 4 -118 8 -151 26 -190 26 -60 51 -63 97 -12 84 91 208 409 289 743 53 215 70 337 71 511 0 143 -2 159 -24 203 -27 56 -81 96 -138 104 -38 5 -38 5 -60 -54z m99 -13 c13 -6 34 -28 48 -48 21 -33 25 -50 28 -150 4 -113 -12 -325 -27 -372 -5 -14 -19 -72 -31 -130 -12 -58 -29 -119 -36 -137 -8 -17 -14 -37 -14 -44 0 -21 -51 -191 -71 -236 -11 -24 -19 -48 -19 -55 -1 -28 -126 -263 -147 -276 -21 -13 -22 -12 -34 30 -14 50 -17 262 -6 363 13 116 16 139 43 277 42 221 44 229 76 338 17 58 32 115 33 127 3 24 40 144 55 178 15 34 24 69 22 83 -2 6 2 12 8 12 5 0 10 6 10 13 0 14 19 37 32 37 4 0 17 -5 30 -10z"/> <path d="M3592 4383 c-62 -164 -160 -529 -206 -768 -36 -192 -49 -332 -44 -511 3 -134 6 -165 23 -199 28 -55 52 -56 100 -4 102 113 267 585 331 949 33 187 39 410 11 481 -20 53 -68 102 -116 118 -62 20 -67 17 -99 -66z m138 -22 c20 -21 38 -45 39 -52 10 -74 11 -244 2 -315 -15 -116 -49 -308 -63 -359 -6 -22 -12 -44 -12 -50 -3 -24 -112 -348 -143 -425 -37 -89 -86 -184 -109 -211 -27 -31 -42 -18 -53 46 -27 152 -5 403 61 715 24 117 96 398 108 425 11 26 24 78 21 89 -1 4 2 13 7 20 5 6 19 41 31 78 30 92 53 100 111 39z"/> <path d="M2903 2303 c-63 -4 -63 -4 -63 -67 0 -62 0 -62 103 -11 56 28 120 58 142 67 40 16 40 16 -40 15 -44 0 -108 -2 -142 -4z"/> <path d="M2430 2243 c-60 -6 -193 -34 -237 -48 -70 -24 -252 -119 -348 -182 -251 -166 -364 -316 -365 -483 0 -200 91 -320 350 -462 139 -77 324 -77 473 -2 63 33 171 139 164 163 -3 9 -18 45 -32 80 -30 70 -54 189 -55 263 -1 124 57 260 157 368 65 70 65 70 61 188 -4 117 -4 117 -68 118 -36 1 -81 -1 -100 -3z m108 -55 c7 -7 12 -42 12 -87 0 -69 -3 -79 -28 -106 -187 -203 -229 -422 -133 -698 15 -42 18 -64 11 -82 -21 -54 -133 -126 -229 -146 -85 -18 -225 -7 -286 22 -86 41 -208 121 -251 165 -75 78 -123 209 -110 307 15 111 119 254 251 344 22 16 42 31 45 34 11 12 105 73 109 70 2 -1 7 1 10 7 15 23 230 122 316 146 111 31 263 44 283 24z"/> <path d="M3566 2239 c-205 -27 -437 -131 -648 -291 -68 -52 -68 -52 -68 -112 0 -180 -31 -441 -67 -566 -16 -54 -16 -54 23 -88 136 -117 269 -171 424 -172 133 0 256 49 345 139 164 165 224 473 191 974 -8 127 -8 127 -70 126 -33 -1 -92 -6 -130 -10z m145 -66 c17 -44 17 -502 0 -593 -8 -41 -15 -82 -16 -90 -1 -8 -4 -22 -7 -30 -3 -8 -11 -33 -18 -55 -23 -75 -68 -160 -100 -192 -18 -18 -29 -33 -25 -33 20 0 -105 -79 -150 -95 -66 -24 -212 -31 -284 -15 -79 18 -188 73 -239 121 -41 38 -44 42 -38 82 3 23 10 58 15 77 16 58 31 189 40 351 8 161 15 187 58 210 12 7 20 16 18 20 -3 4 5 11 17 14 13 4 48 24 78 45 112 77 325 175 406 186 22 3 62 9 89 14 28 4 71 8 98 9 43 1 48 -2 58 -26z"/> <path d="M2625 958 c-35 -41 -121 -108 -157 -120 -16 -6 -28 -13 -28 -17 0 -8 116 -31 276 -57 112 -17 599 -31 574 -16 -8 5 -58 12 -110 15 -164 11 -316 69 -449 172 -39 30 -73 55 -75 55 -2 0 -16 -15 -31 -32z m130 -97 c37 -27 60 -51 53 -53 -17 -7 -164 11 -194 23 -31 11 -30 20 2 53 38 37 66 33 139 -23z"/> </g> </svg>