<?xml version="1.0" encoding="UTF-8"?>
<svg version="1.1" viewBox="0 0 1926 2048" width="763" height="811" xmlns="http://www.w3.org/2000/svg">
<path transform="translate(0)" d="m0 0h1926v2048h-1926z" />
<path transform="translate(870,118)" d="m0 0h68l44 3 44 6 38 7 44 11 36 12 24 10 24 11 26 14 19 12 19 13 19 14 11 9 13 11 10 9 7 7 2 1v2l4 2 9 10 10 11 13 17 14 21 11 19 10 21 11 30 8 27 9 41 6 37 5 40 4 49 2 41 1 28v124h-193l-1-227h-229l-12 41-5 17h-3l-14-15-13-13-14-11-14-9-17-9-17-7-23-6-25-3h-29l-27 3-19 5-21 8-16 9-13 10-15 15-11 16-8 15-8 21-7 26-4 23-2 20-1 17v352l3 40 4 27 6 22 5 13 8 16 7 11 12 14 13 12 14 10 16 9 20 8 20 6 20 3 16 1h36l24-3 19-5 20-8 19-10 24-16 16-12h2v76l-2 28-3 15-6 12-4 5-11 6-10 2h-17l-13-4-10-9-5-10-3-11-2-19-240-1 1 3 3 31 4 25 6 22 8 18 8 15 8 11 9 11 10 9 13 9 16 9 23 10 25 8 26 6 35 6 19 2 17 1h68l41-3 45-7 29-8 26-9 24-11 11-6 15-10 13-11 8-7 11-11 11-14 7-10 9-15 9-19 4-13 3-20 2-28 1-28 1-65v-263h194v925h-280l-5-12-36-108h-2l-16 24-9 12-11 14-14 15-9 10-12 11-16 13-21 14-18 10-19 9-25 9-30 8-22 4-21 2-20 1h-40l-33-3-30-5-27-6-29-9-28-11-33-16-17-9-22-14-20-14-18-14-11-9-13-12-19-19-9-11-10-12-14-20-11-17-9-16-14-28-12-29-11-33-8-34-5-33-3-29-4-52-3-80-1-42v-609l2-69 3-70 3-43 5-48 7-49 7-34 9-29 8-19 8-17 13-22 10-14 9-12 18-22 34-34 8-7 13-11 14-11 19-14 21-13 21-12 16-8 22-10 27-10 33-10 30-7 31-6 30-4 32-3z" fill="#727373"/>
<path transform="translate(954,690)" d="m0 0h12l11 3 8 7 4 6 2 8 2 27 1 45v233l-1 47-2 29-3 17-6 12-8 7-8 3-6 1h-9l-12-3-6-4-6-7-4-16-3-30v-309l2-29 3-21 4-10 6-8 9-6z" fill="#727373"/>
</svg>
