<?xml version="1.0" encoding="UTF-8"?>
<svg version="1.1" xmlns="http://www.w3.org/2000/svg" width="669" height="714">
<path d="M0 0 C220.77 0 441.54 0 669 0 C669 235.62 669 471.24 669 714 C448.23 714 227.46 714 0 714 C0 478.38 0 242.76 0 0 Z " fill="#FDFDFD" transform="translate(0,0)"/>
<path d="M0 0 C0.86367188 0.66902344 1.72734375 1.33804688 2.6171875 2.02734375 C7.7620054 6.07427995 12.68158758 10.31739657 17.51171875 14.734375 C19.12248184 16.20100388 20.74928985 17.65028091 22.39453125 19.078125 C34.64140341 29.76198763 44.88741463 41.92383439 54.50830078 54.97753906 C55.87831231 56.83501459 57.26365616 58.6799166 58.65234375 60.5234375 C72.3806053 78.9768997 83.76120484 100.13475842 90.96484375 121.9921875 C91.97496873 125.06586389 91.97496873 125.06586389 93.4140625 128.1953125 C99.97502603 143.25725393 103.21968113 160.00342451 105.57373047 176.17993164 C105.86024697 178.07543687 106.18288212 179.96579966 106.53955078 181.84936523 C108.52569871 193.23490979 108.30140399 204.6698915 108.26074219 216.19360352 C108.25005505 219.79395514 108.260666 223.39380447 108.2734375 226.99414062 C108.28302806 242.76850302 107.75233702 258.02099684 103.8984375 273.3984375 C103.21214534 276.14957388 102.57810534 278.89429686 101.9765625 281.6640625 C91.8987106 327.32414819 69.91030873 370.71206042 38 405 C36.93361713 406.24668915 35.87102009 407.49662796 34.8125 408.75 C26.07795632 418.74102097 16.49382104 427.88495964 6 436 C4.72351588 437.01637165 3.44750814 438.03334176 2.171875 439.05078125 C-7.14789491 446.40889696 -16.77806898 452.84879229 -27.02685547 458.83789062 C-28.73150028 459.84186356 -30.41659414 460.87889573 -32.09765625 461.921875 C-53.04042542 474.764417 -77.76739068 483.6382526 -101.4375 489.9375 C-102.22374756 490.14882568 -103.00999512 490.36015137 -103.82006836 490.57788086 C-107.6296 491.55550415 -111.03147112 492.26036074 -115 492 C-111.93381092 489.51784694 -108.82565262 487.89887608 -105.25 486.25 C-100.29163137 483.83749301 -96.46274664 481.15989229 -92.5234375 477.3203125 C-91 476 -91 476 -89 476 C-88.73703125 475.4328125 -88.4740625 474.865625 -88.203125 474.28125 C-86.90978636 471.82894556 -85.39876646 469.72806278 -83.75 467.5 C-71.68110663 450.29807107 -67.86718111 430.45395384 -65 410 C-64.82509033 408.77095947 -64.65018066 407.54191895 -64.4699707 406.27563477 C-63.64653683 398.64718197 -63.76137129 390.94207341 -63.68359375 383.27734375 C-63.6629901 381.56384316 -63.64199281 379.85034726 -63.62062073 378.13685608 C-63.56575197 373.65385772 -63.51618934 369.17081621 -63.46777344 364.68774414 C-63.41729937 360.10233781 -63.36174931 355.51699319 -63.30664062 350.93164062 C-63.19949038 341.95447996 -63.0979519 332.97726542 -63 324 C-53.41512458 322.4174867 -44.398887 321.63473573 -34.6875 321.625 C-33.38232422 321.60050781 -32.07714844 321.57601563 -30.73242188 321.55078125 C-23.25152157 321.52798521 -18.38066818 322.0607612 -12 326 C-3.13209924 329.13884649 4.43317776 328.69259579 13 325 C13.99 324.67 14.98 324.34 16 324 C18.83305731 318.48299366 18.65553486 312.04087818 18 306 C15.66727532 300.77469672 12.20279134 298.14008785 7 296 C-7.50509861 290.54008404 -30.06174288 290.89652205 -45.15063477 294.51586914 C-49.21075727 295.20571773 -53.2029934 295.10466542 -57.3125 295.0625 C-58.14845703 295.05798828 -58.98441406 295.05347656 -59.84570312 295.04882812 C-61.89716649 295.03710548 -63.94859273 295.01917203 -66 295 C-71.37970676 228.3641287 -69.52559752 159.52914724 -38 99 C-38.57790283 98.89913086 -39.15580566 98.79826172 -39.7512207 98.69433594 C-56.03502602 95.52341199 -68.75398798 80.7509973 -78.6875 68.25 C-86.11349587 58.91249779 -95.45383723 49.84872092 -107 46 C-112.08055163 45.51347936 -116.53718534 45.35298583 -121.25 47.4375 C-143.20236021 67.89310838 -149.52343847 104.99678249 -156 133 C-156.24089355 134.02689941 -156.48178711 135.05379883 -156.72998047 136.11181641 C-158.02462248 141.63448432 -159.28477359 147.16336114 -160.49755859 152.70458984 C-160.93583224 154.70684874 -161.38315803 156.70712193 -161.83203125 158.70703125 C-162.63390655 162.45912154 -163.33338688 166.22225662 -164 170 C-164.16918945 170.91797363 -164.33837891 171.83594727 -164.51269531 172.78173828 C-167.18449998 187.62171814 -168.38366248 202.07711167 -168.375 217.125 C-168.37672211 217.89508392 -168.37844421 218.66516785 -168.38021851 219.45858765 C-168.37527334 238.92404215 -164.35446552 261.93239033 -150.75 276.875 C-143.46405437 283.62545297 -134.70244601 286.47500254 -124.94140625 286.33203125 C-116.71606261 285.4035396 -110.97731947 280.76483831 -105.828125 274.55859375 C-102.76873758 270.27675879 -100.32557747 265.71281798 -98 261 C-97.34 261 -96.68 261 -96 261 C-94.53431274 274.71548034 -93.71329587 288.20634556 -94 302 C-96.43572059 302.83887056 -98.87333217 303.67126529 -101.3125 304.5 C-102.00279297 304.73847656 -102.69308594 304.97695313 -103.40429688 305.22265625 C-106.38931489 306.23208263 -108.82658914 307 -112 307 C-112.495 305.9275 -112.99 304.855 -113.5 303.75 C-116.02611492 299.30008225 -119.37142499 297.81867659 -124 296 C-124.65645508 295.65775391 -125.31291016 295.31550781 -125.98925781 294.96289062 C-130.41119039 293.54867541 -134.65525295 293.73482353 -139.26953125 293.76953125 C-140.76198616 293.77021858 -140.76198616 293.77021858 -142.28459167 293.7709198 C-144.38676141 293.77393618 -146.48892904 293.78180408 -148.59106445 293.79418945 C-151.79060899 293.81237557 -154.98986242 293.81469942 -158.18945312 293.81445312 C-160.23698164 293.81937172 -162.28450822 293.82520152 -164.33203125 293.83203125 C-165.28124954 293.83314407 -166.23046783 293.8342569 -167.20845032 293.83540344 C-172.5652502 293.87319944 -177.6956961 294.2586756 -183 295 C-185.16587688 295.06209509 -187.33337306 295.08712076 -189.5 295.0625 C-190.5415625 295.05347656 -191.583125 295.04445313 -192.65625 295.03515625 C-193.81640625 295.01775391 -193.81640625 295.01775391 -195 295 C-196.40121547 288.18437912 -197.2070027 281.41968745 -197.5546875 274.48046875 C-197.59624466 273.66266937 -197.63780182 272.84487 -197.68061829 272.00228882 C-198.11418936 262.69290559 -198.18607731 253.38507554 -198.18530273 244.06689453 C-198.18749306 241.13429304 -198.20575771 238.20206705 -198.22460938 235.26953125 C-198.28412782 215.98575623 -196.29701415 197.14741428 -193.25 178.125 C-193.12027802 177.30848969 -192.99055603 176.49197937 -192.85690308 175.65072632 C-188.62413181 149.23341453 -181.53751677 124.69896463 -169 101 C-168.67 100.34 -168.34 99.68 -168 99 C-169.216875 98.855625 -170.43375 98.71125 -171.6875 98.5625 C-188.33644138 94.71843865 -203.33768598 76.25075697 -213.3203125 63.28515625 C-219.7726993 55.15514888 -229.32403882 47.1209679 -239.80859375 45.58984375 C-245.05839986 45.22937017 -249.03327903 45.33574743 -253.25 48.6875 C-260.59714152 56.27903708 -265.2966977 65.77614464 -268.796875 75.63671875 C-269.75322649 78.31015588 -270.78544602 80.90043167 -271.875 83.51953125 C-274.43296272 89.88528918 -276.34934207 96.41301267 -278.25 103 C-278.44220123 103.66517639 -278.63440247 104.33035278 -278.83242798 105.01568604 C-287.94765948 136.70167734 -297.86890737 171.19063723 -297.9765625 204.33496094 C-298.00402495 207.45767078 -298.1137527 210.57426773 -298.21875 213.6953125 C-298.80248447 235.99093675 -296.51367544 258.03244493 -281.5 275.625 C-274.5596267 282.80064019 -267.21341365 285.9358821 -257.1875 286.5 C-249.7386735 286.3601597 -244.69470644 283.39879174 -239.29296875 278.4296875 C-235.36799077 274.14224453 -232.43350465 269.10616768 -229.41796875 264.16015625 C-228.95003906 263.44730469 -228.48210937 262.73445313 -228 262 C-227.67 262 -227.34 262 -227 262 C-224.71686651 275.34413943 -223.79767946 288.46700362 -224 302 C-232.58983039 304.79951962 -241.27246317 307.1738526 -250 309.5 C-263.08145378 312.974436 -263.08145378 312.974436 -276 317 C-276.93996826 317.30695801 -276.93996826 317.30695801 -277.89892578 317.62011719 C-303.52572666 326.07991818 -330.77056699 338.37951351 -350.25 357.453125 C-352 359 -352 359 -354 359 C-354 359.66 -354 360.32 -354 361 C-354.66 361 -355.32 361 -356 361 C-356.39445312 361.86625 -356.39445312 361.86625 -356.796875 362.75 C-358.0633429 365.11845944 -359.5232179 366.9465294 -361.25 369 C-370.2018326 380.325283 -373.19142494 391.84993652 -374 406 C-395.99602892 384.69134698 -414.29600873 355.618621 -425 327 C-425.64452563 325.43696012 -426.29036466 323.8744612 -426.9375 322.3125 C-427.62826262 320.54293679 -428.31543186 318.77196879 -429 317 C-429.42925781 315.94167969 -429.85851562 314.88335937 -430.30078125 313.79296875 C-445.53818818 274.7143646 -451.02278985 227.75170007 -444.359375 186.27392578 C-443.93225782 183.57136506 -443.56188071 180.86270413 -443.1875 178.15234375 C-440.34514667 158.3170621 -435.39635621 139.60234248 -428 121 C-427.40251953 119.37964844 -427.40251953 119.37964844 -426.79296875 117.7265625 C-416.17245973 88.95528389 -399.83140916 62.22233901 -379.30810547 39.45507812 C-378.12976766 38.14434776 -376.97176022 36.81540891 -375.81640625 35.484375 C-365.1254546 23.27769297 -353.68532088 11.94133776 -340.66162109 2.25146484 C-339.01806254 1.01360397 -337.40679119 -0.25687717 -335.80078125 -1.54296875 C-328.17775176 -7.61724064 -320.18687862 -12.87018846 -311.83691406 -17.89208984 C-310.23458363 -18.85851402 -308.64360037 -19.84370216 -307.0546875 -20.83203125 C-293.2362362 -29.23727157 -278.35176122 -35.96449153 -263 -41 C-261.47422354 -41.54397543 -259.94955912 -42.09107603 -258.42578125 -42.640625 C-172.13890002 -73.28841883 -72.06567349 -56.1068405 0 0 Z " fill="#030303" transform="translate(510,134)"/>
<path d="M0 0 C0.76570313 0.00451172 1.53140625 0.00902344 2.3203125 0.01367188 C4.17191037 0.02524436 6.02346688 0.04316845 7.875 0.0625 C8.59929344 14.26134825 8.99787403 28.45472308 9.05224609 42.67105103 C9.05896452 44.23794436 9.06909263 45.80482764 9.08300781 47.37167358 C9.19869375 61.5106644 9.03766697 76.39273252 4.5625 89.9375 C4.3444873 90.63109619 4.12647461 91.32469238 3.90185547 92.03930664 C-1.12429198 107.67600907 -8.66456023 123.78906119 -23.875 131.875 C-25.61090847 132.63710616 -27.36194947 133.36548002 -29.125 134.0625 C-30.0325 134.454375 -30.94 134.84625 -31.875 135.25 C-47.60500615 141.14875231 -65.89109386 139.47238591 -81.03125 132.77734375 C-88.14977926 129.18808532 -94.17942563 124.33517997 -100.125 119.0625 C-100.72570312 118.55074219 -101.32640625 118.03898438 -101.9453125 117.51171875 C-103.125 116.0625 -103.125 116.0625 -103 112.5625 C-102.46239758 109.29689852 -101.60459228 106.18828593 -100.671875 103.015625 C-99.06003342 97.14941875 -98.17351103 91.35134876 -97.5 85.3125 C-97.30410278 83.66737427 -97.30410278 83.66737427 -97.10424805 81.98901367 C-96.40098724 75.55168008 -96.03241852 69.19172493 -95.99609375 62.72265625 C-95.98878235 62.02616974 -95.98147095 61.32968323 -95.97393799 60.61209106 C-95.94087483 57.19690534 -95.95099268 53.79728735 -96.03076172 50.38183594 C-96.00382519 41.34287425 -96.00382519 41.34287425 -93.58935547 37.82519531 C-91.53855106 35.97477716 -89.46731217 34.52296512 -87.125 33.0625 C-85.73941444 32.0653388 -84.35399638 31.06794482 -82.96875 30.0703125 C-81.52609175 29.10149841 -80.07799009 28.14074883 -78.625 27.1875 C-77.84745361 26.67429199 -77.06990723 26.16108398 -76.26879883 25.63232422 C-68.75367647 20.72800708 -61.05870338 16.25056757 -53.125 12.0625 C-52.08601563 11.49789063 -51.04703125 10.93328125 -49.9765625 10.3515625 C-34.69813348 2.61415757 -16.99736638 -0.19589163 0 0 Z " fill="#030303" transform="translate(412.125,462.9375)"/>
<path d="M0 0 C1.74072283 26.45363102 1.74072283 26.45363102 -1.91015625 31.59375 C-4.4375 33.875 -4.4375 33.875 -7.19140625 35.87890625 C-15.77780003 42.36348458 -21.3316038 54.65815335 -23 65 C-24.3596528 79.02393594 -23.6520868 95.62125725 -16.796875 108.234375 C-15.44843729 110.79665999 -14.99582366 111.78969145 -15.0546875 114.75390625 C-16.80833334 118.92062673 -19.88104636 121.79896863 -23 125 C-23.49242187 125.54011719 -23.98484375 126.08023438 -24.4921875 126.63671875 C-33.69545975 135.72077763 -47.78196335 138.18750361 -60.125 138.25 C-61.61773437 138.2809375 -61.61773437 138.2809375 -63.140625 138.3125 C-81.67335364 138.40927665 -98.74425996 127.08862464 -112.22265625 115.0078125 C-122.75248641 103.85313528 -125.8670605 90.15932033 -125.5 75.3515625 C-124.60750349 61.27490927 -114.40368733 49.94200038 -104.5625 40.625 C-74.13935854 14.44153063 -40.32432555 -0.88841843 0 0 Z " fill="#030303" transform="translate(290,463)"/>
<path d="M0 0 C6.60638578 -0.71808541 11.57412206 1.19268904 17 5 C25.7094573 14.68167579 24.71144656 28.04185255 24.24267578 40.19628906 C22.97799664 60.01892598 19.53744224 79.77657922 13.68017578 98.74707031 C12.64357684 102.18057174 11.76558937 105.65143376 10.875 109.125 C9.17042644 115.5188902 7.16900988 121.75067451 5 128 C4.48988214 129.54263735 3.98085561 131.08563582 3.47265625 132.62890625 C-9.21277761 170.64477323 -9.21277761 170.64477323 -21 178 C-23.5 178.1875 -23.5 178.1875 -26 177 C-30.58620241 170.41115587 -31.15788218 163.55613552 -31.203125 155.71875 C-31.21009399 154.91687256 -31.21706299 154.11499512 -31.22424316 153.28881836 C-31.24166228 150.69249238 -31.24797102 148.09638211 -31.25 145.5 C-31.25100708 144.61530029 -31.25201416 143.73060059 -31.25305176 142.8190918 C-31.24352288 130.47526663 -30.81810273 118.52916261 -28.44873047 106.38134766 C-27.97137976 103.84811651 -27.57549843 101.31069414 -27.19140625 98.76171875 C-24.5822775 81.90767299 -20.31713652 65.47860195 -16 49 C-15.76667969 48.09378906 -15.53335937 47.18757813 -15.29296875 46.25390625 C-12.10071505 33.87619996 -8.06090147 21.77661947 -3.98828125 9.6640625 C-3.65352783 8.66842285 -3.31877441 7.6727832 -2.97387695 6.64697266 C-2.11966363 4.32524268 -1.16053464 2.18130041 0 0 Z " fill="#050505" transform="translate(273,217)"/>
<path d="M0 0 C6.69174963 0.40969896 12.26777516 2.49546056 17.25 7.0625 C26.82194054 23.12968591 22.90568851 42.26775862 21 60 C20.93055176 60.69335449 20.86110352 61.38670898 20.78955078 62.10107422 C19.00477024 79.72634979 13.98733557 96.80997937 8.72753906 113.66601562 C8.02632532 115.91554696 7.3359065 118.16811066 6.6484375 120.421875 C-8.32362899 169.30260498 -8.32362899 169.30260498 -22 179 C-24.5625 179.3125 -24.5625 179.3125 -27 178 C-31.49092086 170.79049494 -32.1531799 163.16473246 -32.203125 154.83984375 C-32.21371445 153.6729879 -32.21371445 153.6729879 -32.22451782 152.4825592 C-32.3395016 136.06448916 -32.22197683 120.15295871 -29 104 C-28.56932211 101.68638206 -28.13971641 99.37256438 -27.7109375 97.05859375 C-23.49278441 74.781021 -18.43473359 52.67634658 -11.3359375 31.12890625 C-10.07821877 27.30519296 -8.99421402 23.44698074 -7.9375 19.5625 C-3.41666667 3.41666667 -3.41666667 3.41666667 0 0 Z " fill="#050505" transform="translate(404,216)"/>
<path d="M0 0 C3.60566863 1.60251939 6.46368264 3.82376217 9.5625 6.25 C25.8179631 18.6706878 43.90889712 24.50694344 64 27 C64 27.33 64 27.66 64 28 C5.00876536 29.01138945 5.00876536 29.01138945 -20 21 C-20.66 20.34 -21.32 19.68 -22 19 C-21.23816406 18.52691406 -20.47632813 18.05382812 -19.69140625 17.56640625 C-8.24385976 10.4018785 -8.24385976 10.4018785 0 0 Z " fill="#0D0D0D" transform="translate(295,603)"/>
<path d="M0 0 C1.60488281 0.00483398 1.60488281 0.00483398 3.2421875 0.00976562 C4.35335938 0.01814453 5.46453125 0.02652344 6.609375 0.03515625 C8.29933594 0.04192383 8.29933594 0.04192383 10.0234375 0.04882812 C12.80213717 0.06060228 15.58072909 0.07704785 18.359375 0.09765625 C15.53377561 2.34332202 12.74090358 4.00205903 9.48046875 5.54296875 C8.09891602 6.19845703 8.09891602 6.19845703 6.68945312 6.8671875 C5.73490234 7.31449219 4.78035156 7.76179688 3.796875 8.22265625 C2.35924805 8.90521484 2.35924805 8.90521484 0.89257812 9.6015625 C-6.19464286 12.94899554 -6.19464286 12.94899554 -9.640625 14.09765625 C-9.640625 9.80765625 -9.640625 5.51765625 -9.640625 1.09765625 C-6.11780386 0.21695096 -3.5783246 -0.01903364 0 0 Z " fill="#0B0B0B" transform="translate(326.640625,456.90234375)"/>
<path d="M0 0 C0.66 0.33 1.32 0.66 2 1 C-3.94 6.94 -9.88 12.88 -16 19 C-16 13.49581073 -10.69222469 9.76817235 -7 6 C-4.72454022 3.90179524 -2.40856363 1.94734932 0 0 Z " fill="#2E2E2E" transform="translate(191,499)"/>
<path d="M0 0 C0 0.33 0 0.66 0 1 C-1.89385437 1.50744423 -3.79018666 2.00564574 -5.6875 2.5 C-6.74324219 2.7784375 -7.79898437 3.056875 -8.88671875 3.34375 C-11.71142672 3.9391715 -14.12836708 4.12786492 -17 4 C-11.53939871 -0.58690508 -6.79302423 -3.14798684 0 0 Z " fill="#3D3D3D" transform="translate(412,622)"/>
<path d="M0 0 C0.66 0.33 1.32 0.66 2 1 C-1.3 4.3 -4.6 7.6 -8 11 C-8.66 10.67 -9.32 10.34 -10 10 C-8.7121669 8.51749445 -7.41960936 7.03909182 -6.125 5.5625 C-5.40570313 4.73878906 -4.68640625 3.91507813 -3.9453125 3.06640625 C-2 1 -2 1 0 0 Z " fill="#D9D9D9" transform="translate(390,180)"/>
<path d="M0 0 C0.66 0 1.32 0 2 0 C2 2.31 2 4.62 2 7 C1.01 7 0.02 7 -1 7 C-1.99 7.66 -2.98 8.32 -4 9 C-2.80100302 5.9168649 -1.52299523 2.93720508 0 0 Z " fill="#4B4B4B" transform="translate(412,395)"/>
</svg>
