<?xml version="1.0" standalone="no"?> <!DOCTYPE svg PUBLIC "-//W3C//DTD SVG 20010904//EN" "http://www.w3.org/TR/2001/REC-SVG-20010904/DTD/svg10.dtd"> <svg version="1.0" xmlns="http://www.w3.org/2000/svg" width="600.000000pt" height="640.000000pt" viewBox="0 0 600.000000 640.000000" preserveAspectRatio="xMidYMid meet"> <g transform="translate(0.000000,640.000000) scale(0.050000,-0.050000)" fill="#ffffff" stroke="none"> <path d="M5740 11408 c-996 -112 -1727 -372 -2436 -862 -2384 -1653 -2867 -4949 -1055 -7211 178 -221 191 -229 191 -107 0 582 946 1322 2010 1571 233 55 655 179 676 199 15 15 -36 678 -53 696 -5 4 -33 -35 -64 -87 -434 -741 -1185 -264 -1224 778 -32 861 418 2677 759 3065 233 264 385 213 886 -299 367 -375 460 -451 611 -501 l98 -33 -78 -155 c-242 -481 -420 -1304 -472 -2182 -12 -188 39 -1155 61 -1177 5 -4 123 2 264 14 866 74 1155 27 1231 -201 4 -14 59 -6 161 24 l154 46 -1 132 c-1 73 -13 236 -26 362 l-24 230 -85 -133 c-354 -554 -931 -371 -1145 363 -212 727 270 3075 728 3546 214 220 412 141 875 -349 317 -336 420 -421 577 -478 l118 -43 -96 -193 c-260 -521 -462 -1546 -461 -2330 1 -258 49 -969 67 -987 6 -6 126 -1 267 11 853 72 1091 37 1202 -178 165 -317 -157 -532 -558 -372 -137 56 -463 71 -758 36 l-110 -13 -12 -760 c-13 -809 -34 -1020 -139 -1360 -123 -401 -414 -747 -716 -852 -119 -42 -49 -41 130 1 1030 243 2033 877 2690 1701 2421 3040 672 7479 -3173 8052 -190 29 -921 53 -1070 36z"/> <path d="M4882 8843 c-89 -173 -330 -1029 -429 -1523 -154 -770 -151 -1540 8 -1590 331 -105 1016 2282 831 2895 -75 251 -326 384 -410 218z"/> <path d="M7181 8760 c-85 -221 -266 -860 -350 -1240 -196 -880 -205 -1769 -19 -1796 222 -32 697 1264 819 2235 77 613 -17 907 -304 952 l-82 13 -64 -164z"/> <path d="M5800 4602 l-110 -12 -6 -115 c-3 -63 -2 -115 3 -115 16 0 513 244 513 252 0 11 -265 4 -400 -10z"/> <path d="M4770 4477 c-754 -96 -1727 -798 -1810 -1306 -70 -431 211 -813 800 -1089 329 -155 859 -28 1107 264 l79 93 -52 117 c-217 483 -149 963 188 1332 l118 128 0 180 c0 98 -6 207 -12 242 l-13 62 -132 -3 c-73 -1 -196 -10 -273 -20z"/> <path d="M7110 4477 c-389 -49 -854 -260 -1263 -573 l-143 -109 -13 -283 c-17 -356 -61 -716 -113 -922 l-41 -159 106 -95 c220 -195 527 -315 807 -315 853 0 1210 774 1077 2334 l-13 145 -132 -3 c-72 -1 -195 -10 -272 -20z"/> <path d="M5204 1874 c-58 -59 -150 -133 -204 -165 -128 -76 -128 -76 55 -115 319 -69 566 -96 965 -108 431 -12 488 0 222 46 -299 52 -579 178 -822 370 -120 95 -91 98 -216 -28z"/> </g> </svg>