<svg width="1200" height="630" viewBox="0 0 1200 630" xmlns="http://www.w3.org/2000/svg"><clipPath id="satori_cp-id"><path x="0" y="0" width="1200" height="630" d="M28,0 h1144 a28,28 0 0 1 28,28 v574 a28,28 0 0 1 -28,28 h-1144 a28,28 0 0 1 -28,-28 v-574 a28,28 0 0 1 28,-28"/></clipPath><mask id="satori_om-id"><rect x="0" y="0" width="1200" height="630" fill="#fff"/></mask><path x="0" y="0" width="1200" height="630" fill="#0d0d0d" d="M28,0 h1144 a28,28 0 0 1 28,28 v574 a28,28 0 0 1 -28,28 h-1144 a28,28 0 0 1 -28,-28 v-574 a28,28 0 0 1 28,-28"/><mask id="satori_om-id-0"><rect x="-120" y="-90" width="820" height="820" fill="#fff" mask="url(#satori_om-id)"/></mask><path x="-120" y="-90" width="820" height="820" fill="rgba(255, 255, 255, 0.07)" d="M290,-90 h0 a410,410 0 0 1 410,410 v0 a410,410 0 0 1 -410,410 h0 a410,410 0 0 1 -410,-410 v0 a410,410 0 0 1 410,-410" clip-path="url(#satori_cp-id)" mask="url(#satori_om-id)"/><mask id="satori_om-id-1"><rect x="1020" y="290" width="420" height="420" fill="#fff" mask="url(#satori_om-id)"/></mask><path x="1020" y="290" width="420" height="420" fill="rgba(255, 255, 255, 0.07)" d="M1230,290 h0 a210,210 0 0 1 210,210 v0 a210,210 0 0 1 -210,210 h0 a210,210 0 0 1 -210,-210 v0 a210,210 0 0 1 210,-210" clip-path="url(#satori_cp-id)" mask="url(#satori_om-id)"/><mask id="satori_om-id-2"><rect x="920" y="-130" width="520" height="520" fill="#fff" mask="url(#satori_om-id)"/></mask><path x="920" y="-130" width="520" height="520" fill="rgba(255, 255, 255, 0.07)" d="M1180,-130 h0 a260,260 0 0 1 260,260 v0 a260,260 0 0 1 -260,260 h0 a260,260 0 0 1 -260,-260 v0 a260,260 0 0 1 260,-260" clip-path="url(#satori_cp-id)" mask="url(#satori_om-id)"/><mask id="satori_om-id-3"><rect x="480" y="320" width="820" height="820" fill="#fff" mask="url(#satori_om-id)"/></mask><g clip-path="url(#satori_cp-id)" mask="url(#satori_om-id)"><path x="480" y="320" width="820" height="820" fill="rgba(255, 255, 255, 0.07)" d="M890,320 h0 a410,410 0 0 1 410,410 v0 a410,410 0 0 1 -410,410 h0 a410,410 0 0 1 -410,-410 v0 a410,410 0 0 1 410,-410" transform="matrix(1.00,0.00,0.00,1.00,-410.00,0.00)"/></g><mask id="satori_om-id-4"><rect x="0" y="216" width="1200" height="198" fill="#fff" mask="url(#satori_om-id)"/></mask><g mask="url(#satori_om-id)" clip-path="url(#satori_cp-id)"><path fill="#ffffff" d="M234.6 295L234.6 295L216.2 295L216.2 235.4L235.4 235.4Q244.1 235.4 250.3 238.9Q256.5 242.5 259.8 249.2Q263.0 255.8 263.0 265.1L263.0 265.1Q263.0 274.4 259.7 281.1Q256.4 287.8 250.1 291.4Q243.7 295 234.6 295ZM223.4 241.8L223.4 288.6L234.2 288.6Q241.6 288.6 246.4 285.7Q251.3 282.9 253.7 277.6Q256.1 272.3 256.1 265.1L256.1 265.1Q256.1 257.8 253.7 252.6Q251.3 247.4 246.7 244.6Q242.0 241.8 235.0 241.8L235.0 241.8L223.4 241.8ZM299.0 295.9L299.0 295.9Q292.5 295.9 287.8 293.1Q283.2 290.2 280.6 285.0Q278.1 279.9 278.1 273.0L278.1 273.0Q278.1 266.1 280.6 260.9Q283.2 255.6 287.7 252.6Q292.2 249.7 298.3 249.7L298.3 249.7Q301.8 249.7 305.2 250.9Q308.6 252.0 311.4 254.6Q314.2 257.2 315.8 261.5Q317.5 265.8 317.5 272.1L317.5 272.1L317.5 275.0L283.0 275.0L283.0 269.0L310.5 269.0Q310.5 265.2 309.0 262.3Q307.5 259.3 304.8 257.6Q302.0 255.9 298.3 255.9L298.3 255.9Q294.2 255.9 291.2 257.9Q288.2 259.9 286.6 263.1Q285.0 266.4 285.0 270.1L285.0 270.1L285.0 274.0Q285.0 279.1 286.8 282.6Q288.5 286.1 291.7 287.9Q294.8 289.8 299.0 289.8L299.0 289.8Q301.7 289.8 303.9 289.0Q306.1 288.2 307.7 286.7Q309.3 285.1 310.2 282.8L310.2 282.8L316.8 284.6Q315.8 288.0 313.3 290.6Q310.8 293.1 307.2 294.5Q303.5 295.9 299.0 295.9ZM365.7 260.3L365.7 260.3L359.5 262.0Q358.9 260.5 357.8 259.0Q356.7 257.6 354.7 256.6Q352.8 255.6 349.8 255.6L349.8 255.6Q345.7 255.6 343.0 257.5Q340.3 259.4 340.3 262.3L340.3 262.3Q340.3 264.8 342.1 266.3Q344 267.8 348.0 268.8L348.0 268.8L354.6 270.4Q360.6 271.9 363.5 274.9Q366.5 277.8 366.5 282.5L366.5 282.5Q366.5 286.4 364.3 289.4Q362.1 292.4 358.2 294.2Q354.2 295.9 349.0 295.9L349.0 295.9Q342.2 295.9 337.7 293.0Q333.2 290.0 332.0 284.3L332.0 284.3L338.5 282.7Q339.5 286.3 342.1 288.1Q344.7 289.9 348.9 289.9L348.9 289.9Q353.7 289.9 356.5 287.8Q359.4 285.8 359.4 282.9L359.4 282.9Q359.4 280.6 357.7 279.0Q356.1 277.4 352.7 276.6L352.7 276.6L345.3 274.8Q339.1 273.4 336.3 270.3Q333.4 267.2 333.4 262.6L333.4 262.6Q333.4 258.8 335.5 255.9Q337.7 253.0 341.4 251.4Q345.1 249.7 349.8 249.7L349.8 249.7Q356.5 249.7 360.3 252.6Q364.1 255.5 365.7 260.3ZM389.7 295L382.8 295L382.8 250.3L389.7 250.3L389.7 295ZM386.3 242.8L386.3 242.8Q384.3 242.8 382.9 241.4Q381.4 240.1 381.4 238.2L381.4 238.2Q381.4 236.2 382.9 234.9Q384.3 233.5 386.3 233.5L386.3 233.5Q388.4 233.5 389.8 234.9Q391.2 236.2 391.2 238.2L391.2 238.2Q391.2 240.1 389.8 241.4Q388.4 242.8 386.3 242.8ZM426.4 312.7L426.4 312.7Q421.4 312.7 417.8 311.4Q414.2 310.2 411.8 308.1Q409.5 306.1 408.1 303.7L408.1 303.7L413.5 299.9Q414.5 301.1 415.9 302.7Q417.3 304.3 419.8 305.5Q422.3 306.6 426.4 306.6L426.4 306.6Q431.8 306.6 435.3 304.0Q438.8 301.4 438.8 295.8L438.8 295.8L438.8 286.7L438.2 286.7Q437.5 288.0 436.1 289.7Q434.7 291.5 432.1 292.9Q429.6 294.3 425.2 294.3L425.2 294.3Q419.8 294.3 415.5 291.7Q411.2 289.2 408.7 284.3Q406.2 279.4 406.2 272.4L406.2 272.4Q406.2 265.5 408.6 260.4Q411.0 255.3 415.3 252.5Q419.7 249.7 425.3 249.7L425.3 249.7Q429.7 249.7 432.2 251.1Q434.8 252.6 436.2 254.4Q437.6 256.2 438.3 257.4L438.3 257.4L439.0 257.4L439.0 250.3L445.7 250.3L445.7 296.3Q445.7 302.0 443.1 305.7Q440.5 309.3 436.1 311.0Q431.7 312.7 426.4 312.7ZM426.1 288.1L426.1 288.1Q430.3 288.1 433.1 286.2Q436.0 284.3 437.4 280.8Q438.9 277.2 438.9 272.3L438.9 272.3Q438.9 267.5 437.5 263.8Q436.0 260.1 433.2 258.0Q430.3 255.9 426.1 255.9L426.1 255.9Q421.8 255.9 418.9 258.1Q416.0 260.3 414.5 264.0Q413.1 267.7 413.1 272.3L413.1 272.3Q413.1 276.9 414.5 280.5Q416.0 284.1 418.9 286.1Q421.8 288.1 426.1 288.1ZM471.1 268.1L471.1 268.1L471.1 295L464.3 295L464.3 250.3L470.9 250.3L470.9 257.3L471.5 257.3Q473.1 253.9 476.3 251.8Q479.5 249.7 484.5 249.7L484.5 249.7Q489.1 249.7 492.5 251.5Q495.9 253.4 497.8 257.1Q499.7 260.9 499.7 266.6L499.7 266.6L499.7 295L492.8 295L492.8 267.0Q492.8 261.8 490.1 258.8Q487.3 255.9 482.6 255.9L482.6 255.9Q479.3 255.9 476.7 257.3Q474.1 258.7 472.6 261.5Q471.1 264.2 471.1 268.1ZM525.1 295L518.3 295L518.3 250.3L525.1 250.3L525.1 295ZM521.8 242.8L521.8 242.8Q519.7 242.8 518.3 241.4Q516.9 240.1 516.9 238.2L516.9 238.2Q516.9 236.2 518.3 234.9Q519.7 233.5 521.8 233.5L521.8 233.5Q523.8 233.5 525.2 234.9Q526.6 236.2 526.6 238.2L526.6 238.2Q526.6 240.1 525.2 241.4Q523.8 242.8 521.8 242.8ZM550.6 268.1L550.6 268.1L550.6 295L543.7 295L543.7 250.3L550.3 250.3L550.3 257.3L550.9 257.3Q552.5 253.9 555.7 251.8Q558.9 249.7 564.0 249.7L564.0 249.7Q568.5 249.7 571.9 251.5Q575.3 253.4 577.2 257.1Q579.1 260.9 579.1 266.6L579.1 266.6L579.1 295L572.2 295L572.2 267.0Q572.2 261.8 569.5 258.8Q566.8 255.9 562.0 255.9L562.0 255.9Q558.7 255.9 556.1 257.3Q553.5 258.7 552.1 261.5Q550.6 264.2 550.6 268.1ZM615.8 312.7L615.8 312.7Q610.8 312.7 607.2 311.4Q603.6 310.2 601.2 308.1Q598.9 306.1 597.5 303.7L597.5 303.7L602.9 299.9Q603.9 301.1 605.3 302.7Q606.7 304.3 609.2 305.5Q611.7 306.6 615.8 306.6L615.8 306.6Q621.2 306.6 624.7 304.0Q628.2 301.4 628.2 295.8L628.2 295.8L628.2 286.7L627.6 286.7Q626.9 288.0 625.5 289.7Q624.1 291.5 621.5 292.9Q619.0 294.3 614.6 294.3L614.6 294.3Q609.2 294.3 604.9 291.7Q600.6 289.2 598.1 284.3Q595.6 279.4 595.6 272.4L595.6 272.4Q595.6 265.5 598.0 260.4Q600.4 255.3 604.7 252.5Q609.1 249.7 614.7 249.7L614.7 249.7Q619.1 249.7 621.6 251.1Q624.2 252.6 625.6 254.4Q627.0 256.2 627.7 257.4L627.7 257.4L628.4 257.4L628.4 250.3L635.1 250.3L635.1 296.3Q635.1 302.0 632.5 305.7Q629.9 309.3 625.5 311.0Q621.1 312.7 615.8 312.7ZM615.5 288.1L615.5 288.1Q619.7 288.1 622.5 286.2Q625.4 284.3 626.8 280.8Q628.3 277.2 628.3 272.3L628.3 272.3Q628.3 267.5 626.9 263.8Q625.4 260.1 622.6 258.0Q619.7 255.9 615.5 255.9L615.5 255.9Q611.1 255.9 608.3 258.1Q605.4 260.3 603.9 264.0Q602.5 267.7 602.5 272.3L602.5 272.3Q602.5 276.9 603.9 280.5Q605.4 284.1 608.3 286.1Q611.2 288.1 615.5 288.1Z M719.7 311.8L712.8 311.8L712.8 288.1L712.2 288.1Q711.5 289.4 710.1 291.2Q708.7 293.0 706.1 294.5Q703.5 295.9 699.2 295.9L699.2 295.9Q693.6 295.9 689.3 293.1Q685.0 290.3 682.6 285.1Q680.2 279.9 680.2 272.8L680.2 272.8Q680.2 265.7 682.6 260.5Q685.0 255.3 689.3 252.5Q693.6 249.7 699.3 249.7L699.3 249.7Q703.7 249.7 706.2 251.1Q708.8 252.6 710.1 254.4Q711.5 256.2 712.2 257.4L712.2 257.4L713.0 257.4L713.0 250.3L719.7 250.3L719.7 311.8ZM700.1 289.8L700.1 289.8Q704.2 289.8 707.1 287.6Q710.0 285.4 711.4 281.6Q712.9 277.7 712.9 272.6L712.9 272.6Q712.9 267.6 711.5 263.9Q710.0 260.1 707.2 258.0Q704.3 255.9 700.1 255.9L700.1 255.9Q695.7 255.9 692.8 258.1Q689.9 260.3 688.5 264.1Q687.1 267.9 687.1 272.6L687.1 272.6Q687.1 277.4 688.5 281.3Q690.0 285.2 692.9 287.5Q695.8 289.8 700.1 289.8ZM766.4 276.7L766.4 276.7L766.4 250.3L773.3 250.3L773.3 295L766.4 295L766.4 287.4L766.0 287.4Q764.4 290.8 761.1 293.2Q757.8 295.6 752.7 295.6L752.7 295.6Q748.5 295.6 745.2 293.7Q742.0 291.9 740.1 288.1Q738.3 284.4 738.3 278.7L738.3 278.7L738.3 250.3L745.1 250.3L745.1 278.2Q745.1 283.1 747.9 286.0Q750.6 288.9 754.9 288.9L754.9 288.9Q757.5 288.9 760.1 287.6Q762.8 286.3 764.6 283.6Q766.4 280.9 766.4 276.7ZM798.8 295L791.9 295L791.9 250.3L798.8 250.3L798.8 295ZM795.4 242.8L795.4 242.8Q793.4 242.8 791.9 241.4Q790.5 240.1 790.5 238.2L790.5 238.2Q790.5 236.2 791.9 234.9Q793.4 233.5 795.4 233.5L795.4 233.5Q797.4 233.5 798.8 234.9Q800.3 236.2 800.3 238.2L800.3 238.2Q800.3 240.1 798.8 241.4Q797.4 242.8 795.4 242.8ZM836.1 295.9L836.1 295.9Q829.6 295.9 825.0 293.1Q820.3 290.2 817.8 285.0Q815.3 279.9 815.3 273.0L815.3 273.0Q815.3 266.1 817.8 260.9Q820.3 255.6 824.8 252.6Q829.3 249.7 835.4 249.7L835.4 249.7Q838.9 249.7 842.3 250.9Q845.7 252.0 848.5 254.6Q851.3 257.2 853.0 261.5Q854.6 265.8 854.6 272.1L854.6 272.1L854.6 275.0L820.1 275.0L820.1 269.0L847.6 269.0Q847.6 265.2 846.1 262.3Q844.6 259.3 841.9 257.6Q839.1 255.9 835.4 255.9L835.4 255.9Q831.3 255.9 828.3 257.9Q825.3 259.9 823.7 263.1Q822.1 266.4 822.1 270.1L822.1 270.1L822.1 274.0Q822.1 279.1 823.9 282.6Q825.6 286.1 828.8 287.9Q831.9 289.8 836.1 289.8L836.1 289.8Q838.8 289.8 841.0 289.0Q843.2 288.2 844.8 286.7Q846.4 285.1 847.3 282.8L847.3 282.8L853.9 284.6Q852.9 288.0 850.4 290.6Q847.9 293.1 844.3 294.5Q840.6 295.9 836.1 295.9ZM867.4 250.3L890.6 250.3L890.6 256.1L867.4 256.1L867.4 250.3ZM874.1 284.1L874.1 239.6L881.0 239.6L881.0 282.2Q881.0 285.1 881.9 286.5Q882.7 288.0 884.1 288.5Q885.4 288.9 886.9 288.9L886.9 288.9Q888.1 288.9 888.8 288.8Q889.5 288.7 890.0 288.6L890.0 288.6L891.4 294.8Q890.7 295.0 889.4 295.3Q888.2 295.6 886.2 295.6L886.2 295.6Q883.3 295.6 880.6 294.3Q877.8 293.1 876.0 290.5Q874.1 288.0 874.1 284.1L874.1 284.1ZM925.2 295.9L925.2 295.9Q918.7 295.9 914.1 293.1Q909.4 290.2 906.9 285.0Q904.4 279.9 904.4 273.0L904.4 273.0Q904.4 266.1 906.9 260.9Q909.4 255.6 913.9 252.6Q918.5 249.7 924.5 249.7L924.5 249.7Q928.0 249.7 931.4 250.9Q934.8 252.0 937.6 254.6Q940.4 257.2 942.1 261.5Q943.7 265.8 943.7 272.1L943.7 272.1L943.7 275.0L909.3 275.0L909.3 269.0L936.7 269.0Q936.7 265.2 935.2 262.3Q933.7 259.3 931.0 257.6Q928.2 255.9 924.5 255.9L924.5 255.9Q920.4 255.9 917.4 257.9Q914.4 259.9 912.8 263.1Q911.2 266.4 911.2 270.1L911.2 270.1L911.2 274.0Q911.2 279.1 913.0 282.6Q914.8 286.1 917.9 287.9Q921.0 289.8 925.2 289.8L925.2 289.8Q927.9 289.8 930.1 289.0Q932.3 288.2 933.9 286.7Q935.5 285.1 936.4 282.8L936.4 282.8L943.0 284.6Q942.0 288.0 939.5 290.6Q937.0 293.1 933.4 294.5Q929.8 295.9 925.2 295.9ZM967.1 295L960.2 295L960.2 250.3L966.9 250.3L966.9 257.0L967.3 257.0Q968.5 253.7 971.7 251.6Q974.9 249.6 979.0 249.6L979.0 249.6Q979.7 249.6 980.9 249.6Q982.0 249.6 982.6 249.7L982.6 249.7L982.6 256.7Q982.2 256.6 981.0 256.4Q979.8 256.2 978.4 256.2L978.4 256.2Q975.1 256.2 972.6 257.6Q970.0 258.9 968.6 261.3Q967.1 263.7 967.1 266.7L967.1 266.7L967.1 295Z M389.2 394L382.3 394L382.3 349.3L389.2 349.3L389.2 394ZM385.8 341.8L385.8 341.8Q383.8 341.8 382.3 340.4Q380.9 339.1 380.9 337.2L380.9 337.2Q380.9 335.2 382.3 333.9Q383.8 332.5 385.8 332.5L385.8 332.5Q387.8 332.5 389.2 333.9Q390.7 335.2 390.7 337.2L390.7 337.2Q390.7 339.1 389.2 340.4Q387.8 341.8 385.8 341.8ZM414.6 367.1L414.6 367.1L414.6 394L407.7 394L407.7 349.3L414.4 349.3L414.4 356.3L415.0 356.3Q416.5 352.9 419.7 350.8Q422.9 348.7 428.0 348.7L428.0 348.7Q432.6 348.7 436.0 350.5Q439.4 352.4 441.3 356.1Q443.2 359.9 443.2 365.6L443.2 365.6L443.2 394L436.3 394L436.3 366.0Q436.3 360.8 433.5 357.8Q430.8 354.9 426.0 354.9L426.0 354.9Q422.7 354.9 420.2 356.3Q417.6 357.7 416.1 360.5Q414.6 363.2 414.6 367.1ZM458.0 349.3L481.2 349.3L481.2 355.1L458.0 355.1L458.0 349.3ZM464.8 383.1L464.8 338.6L471.6 338.6L471.6 381.2Q471.6 384.1 472.5 385.5Q473.3 387.0 474.7 387.5Q476.1 387.9 477.6 387.9L477.6 387.9Q478.7 387.9 479.4 387.8Q480.2 387.7 480.6 387.6L480.6 387.6L482.0 393.8Q481.3 394.0 480.0 394.3Q478.8 394.6 476.9 394.6L476.9 394.6Q474.0 394.6 471.2 393.3Q468.4 392.1 466.6 389.5Q464.8 387.0 464.8 383.1L464.8 383.1ZM515.8 394.9L515.8 394.9Q509.4 394.9 504.7 392.1Q500.0 389.2 497.5 384.0Q495.0 378.9 495.0 372.0L495.0 372.0Q495.0 365.1 497.5 359.9Q500.0 354.6 504.6 351.6Q509.1 348.7 515.1 348.7L515.1 348.7Q518.6 348.7 522.0 349.9Q525.4 351.0 528.2 353.6Q531.0 356.2 532.7 360.5Q534.4 364.8 534.4 371.1L534.4 371.1L534.4 374.0L499.9 374.0L499.9 368.0L527.4 368.0Q527.4 364.2 525.9 361.3Q524.4 358.3 521.6 356.6Q518.9 354.9 515.1 354.9L515.1 354.9Q511.0 354.9 508.0 356.9Q505.1 358.9 503.5 362.1Q501.9 365.4 501.9 369.1L501.9 369.1L501.9 373.0Q501.9 378.1 503.6 381.6Q505.4 385.1 508.5 386.9Q511.7 388.8 515.8 388.8L515.8 388.8Q518.5 388.8 520.7 388.0Q522.9 387.2 524.5 385.7Q526.1 384.1 527.0 381.8L527.0 381.8L533.7 383.6Q532.6 387.0 530.1 389.6Q527.7 392.1 524.0 393.5Q520.4 394.9 515.8 394.9ZM557.7 394L550.8 394L550.8 349.3L557.5 349.3L557.5 356.0L557.9 356.0Q559.2 352.7 562.4 350.6Q565.6 348.6 569.6 348.6L569.6 348.6Q570.3 348.6 571.5 348.6Q572.6 348.6 573.2 348.7L573.2 348.7L573.2 355.7Q572.9 355.6 571.6 355.4Q570.4 355.2 569.0 355.2L569.0 355.2Q565.7 355.2 563.2 356.6Q560.7 357.9 559.2 360.3Q557.7 362.7 557.7 365.7L557.7 365.7L557.7 394ZM586.0 349.3L610.1 349.3L610.1 355.1L586.0 355.1L586.0 349.3ZM600.1 394L593.2 394L593.2 343.1Q593.2 339.3 595.0 336.7Q596.8 334.1 599.7 332.8Q602.6 331.6 605.8 331.6L605.8 331.6Q608.3 331.6 609.9 332.0Q611.5 332.4 612.3 332.7L612.3 332.7L610.3 338.7Q609.8 338.5 608.9 338.2Q607.9 338.0 606.5 338.0L606.5 338.0Q603.1 338.0 601.6 339.7Q600.1 341.4 600.1 344.7L600.1 344.7L600.1 394ZM637.6 395.0L637.6 395.0Q633.4 395.0 629.9 393.4Q626.4 391.8 624.4 388.7Q622.4 385.7 622.4 381.3L622.4 381.3Q622.4 377.5 623.9 375.1Q625.4 372.7 627.9 371.3Q630.5 369.9 633.5 369.2Q636.6 368.5 639.7 368.1L639.7 368.1Q643.8 367.6 646.3 367.3Q648.9 367.1 650.1 366.4Q651.2 365.7 651.2 364.1L651.2 364.1L651.2 363.8Q651.2 359.5 648.9 357.1Q646.6 354.7 641.8 354.7L641.8 354.7Q636.9 354.7 634.1 356.9Q631.3 359.1 630.2 361.5L630.2 361.5L623.6 359.2Q625.4 355.1 628.3 352.8Q631.2 350.5 634.7 349.6Q638.2 348.7 641.6 348.7L641.6 348.7Q643.7 348.7 646.5 349.2Q649.4 349.7 652.0 351.3Q654.6 352.9 656.4 356.0Q658.1 359.2 658.1 364.5L658.1 364.5L658.1 394L651.2 394L651.2 387.9L650.9 387.9Q650.2 389.4 648.6 391.1Q646.9 392.7 644.2 393.9Q641.5 395.0 637.6 395.0ZM638.7 388.9L638.7 388.9Q642.7 388.9 645.6 387.3Q648.4 385.7 649.8 383.1Q651.2 380.6 651.2 377.8L651.2 377.8L651.2 371.5Q650.8 372.0 649.3 372.5Q647.9 372.9 646.0 373.2Q644.1 373.5 642.3 373.7Q640.5 373.9 639.4 374.1L639.4 374.1Q636.7 374.4 634.4 375.2Q632.1 376.0 630.6 377.5Q629.2 379.0 629.2 381.7L629.2 381.7Q629.2 385.2 631.9 387.1Q634.6 388.9 638.7 388.9ZM694.9 394.9L694.9 394.9Q688.6 394.9 684.0 392.0Q679.5 389.0 677.0 383.8Q674.6 378.6 674.6 371.9L674.6 371.9Q674.6 365.1 677.1 359.8Q679.6 354.6 684.2 351.6Q688.7 348.7 694.8 348.7L694.8 348.7Q699.5 348.7 703.3 350.4Q707.0 352.2 709.5 355.3Q711.9 358.5 712.5 362.7L712.5 362.7L705.6 362.7Q704.8 359.6 702.1 357.2Q699.4 354.9 694.9 354.9L694.9 354.9Q690.8 354.9 687.8 356.9Q684.8 359.0 683.1 362.8Q681.5 366.6 681.5 371.6L681.5 371.6Q681.5 376.8 683.1 380.7Q684.8 384.5 687.8 386.6Q690.8 388.8 694.9 388.8L694.9 388.8Q697.5 388.8 699.7 387.8Q701.9 386.9 703.4 385.1Q704.9 383.4 705.6 381.0L705.6 381.0L712.5 381.0Q711.9 384.9 709.6 388.1Q707.3 391.2 703.6 393.1Q699.8 394.9 694.9 394.9ZM747.2 394.9L747.2 394.9Q740.8 394.9 736.1 392.1Q731.4 389.2 728.9 384.0Q726.4 378.9 726.4 372.0L726.4 372.0Q726.4 365.1 728.9 359.9Q731.4 354.6 735.9 351.6Q740.5 348.7 746.5 348.7L746.5 348.7Q750.0 348.7 753.4 349.9Q756.8 351.0 759.6 353.6Q762.4 356.2 764.1 360.5Q765.7 364.8 765.7 371.1L765.7 371.1L765.7 374.0L731.3 374.0L731.3 368.0L758.8 368.0Q758.8 364.2 757.3 361.3Q755.8 358.3 753.0 356.6Q750.3 354.9 746.5 354.9L746.5 354.9Q742.4 354.9 739.4 356.9Q736.5 358.9 734.8 362.1Q733.2 365.4 733.2 369.1L733.2 369.1L733.2 373.0Q733.2 378.1 735.0 381.6Q736.8 385.1 739.9 386.9Q743.1 388.8 747.2 388.8L747.2 388.8Q749.9 388.8 752.1 388.0Q754.3 387.2 755.9 385.7Q757.5 384.1 758.4 381.8L758.4 381.8L765.0 383.6Q764.0 387.0 761.5 389.6Q759.0 392.1 755.4 393.5Q751.8 394.9 747.2 394.9ZM813.9 359.3L813.9 359.3L807.7 361.0Q807.2 359.5 806.0 358.0Q804.9 356.6 803.0 355.6Q801.1 354.6 798.1 354.6L798.1 354.6Q794.0 354.6 791.2 356.5Q788.5 358.4 788.5 361.3L788.5 361.3Q788.5 363.8 790.4 365.3Q792.2 366.8 796.2 367.8L796.2 367.8L802.8 369.4Q808.8 370.9 811.8 373.9Q814.7 376.8 814.7 381.5L814.7 381.5Q814.7 385.4 812.5 388.4Q810.3 391.4 806.4 393.2Q802.5 394.9 797.3 394.9L797.3 394.9Q790.4 394.9 785.9 392.0Q781.4 389.0 780.2 383.3L780.2 383.3L786.8 381.7Q787.7 385.3 790.3 387.1Q792.9 388.9 797.1 388.9L797.1 388.9Q801.9 388.9 804.8 386.8Q807.6 384.8 807.6 381.9L807.6 381.9Q807.6 379.6 806.0 378.0Q804.4 376.4 801.0 375.6L801.0 375.6L793.5 373.8Q787.4 372.4 784.5 369.3Q781.6 366.2 781.6 361.6L781.6 361.6Q781.6 357.8 783.8 354.9Q785.9 352.0 789.6 350.4Q793.4 348.7 798.1 348.7L798.1 348.7Q804.7 348.7 808.5 351.6Q812.3 354.5 813.9 359.3Z "/></g></svg>