<svg width="1200" height="630" viewBox="0 0 1200 630" xmlns="http://www.w3.org/2000/svg"><clipPath id="satori_cp-id"><path x="0" y="0" width="1200" height="630" d="M28,0 h1144 a28,28 0 0 1 28,28 v574 a28,28 0 0 1 -28,28 h-1144 a28,28 0 0 1 -28,-28 v-574 a28,28 0 0 1 28,-28"/></clipPath><mask id="satori_om-id"><rect x="0" y="0" width="1200" height="630" fill="#fff"/></mask><path x="0" y="0" width="1200" height="630" fill="#0d0d0d" d="M28,0 h1144 a28,28 0 0 1 28,28 v574 a28,28 0 0 1 -28,28 h-1144 a28,28 0 0 1 -28,-28 v-574 a28,28 0 0 1 28,-28"/><mask id="satori_om-id-0"><rect x="-120" y="-90" width="820" height="820" fill="#fff" mask="url(#satori_om-id)"/></mask><path x="-120" y="-90" width="820" height="820" fill="rgba(255, 255, 255, 0.07)" d="M290,-90 h0 a410,410 0 0 1 410,410 v0 a410,410 0 0 1 -410,410 h0 a410,410 0 0 1 -410,-410 v0 a410,410 0 0 1 410,-410" clip-path="url(#satori_cp-id)" mask="url(#satori_om-id)"/><mask id="satori_om-id-1"><rect x="1020" y="290" width="420" height="420" fill="#fff" mask="url(#satori_om-id)"/></mask><path x="1020" y="290" width="420" height="420" fill="rgba(255, 255, 255, 0.07)" d="M1230,290 h0 a210,210 0 0 1 210,210 v0 a210,210 0 0 1 -210,210 h0 a210,210 0 0 1 -210,-210 v0 a210,210 0 0 1 210,-210" clip-path="url(#satori_cp-id)" mask="url(#satori_om-id)"/><mask id="satori_om-id-2"><rect x="920" y="-130" width="520" height="520" fill="#fff" mask="url(#satori_om-id)"/></mask><path x="920" y="-130" width="520" height="520" fill="rgba(255, 255, 255, 0.07)" d="M1180,-130 h0 a260,260 0 0 1 260,260 v0 a260,260 0 0 1 -260,260 h0 a260,260 0 0 1 -260,-260 v0 a260,260 0 0 1 260,-260" clip-path="url(#satori_cp-id)" mask="url(#satori_om-id)"/><mask id="satori_om-id-3"><rect x="480" y="320" width="820" height="820" fill="#fff" mask="url(#satori_om-id)"/></mask><g clip-path="url(#satori_cp-id)" mask="url(#satori_om-id)"><path x="480" y="320" width="820" height="820" fill="rgba(255, 255, 255, 0.07)" d="M890,320 h0 a410,410 0 0 1 410,410 v0 a410,410 0 0 1 -410,410 h0 a410,410 0 0 1 -410,-410 v0 a410,410 0 0 1 410,-410" transform="matrix(1.00,0.00,0.00,1.00,-410.00,0.00)"/></g><mask id="satori_om-id-4"><rect x="0" y="216" width="1200" height="198" fill="#fff" mask="url(#satori_om-id)"/></mask><g mask="url(#satori_om-id)" clip-path="url(#satori_cp-id)"><path fill="#ffffff" d="M132.6 295L132.6 295L114.2 295L114.2 235.4L133.4 235.4Q142.1 235.4 148.3 238.9Q154.5 242.5 157.8 249.2Q161.0 255.8 161.0 265.1L161.0 265.1Q161.0 274.4 157.7 281.1Q154.4 287.8 148.1 291.4Q141.7 295 132.6 295ZM121.4 241.8L121.4 288.6L132.2 288.6Q139.6 288.6 144.4 285.7Q149.3 282.9 151.7 277.6Q154.1 272.3 154.1 265.1L154.1 265.1Q154.1 257.8 151.7 252.6Q149.3 247.4 144.7 244.6Q140.0 241.8 133.0 241.8L133.0 241.8L121.4 241.8ZM197.0 295.9L197.0 295.9Q190.5 295.9 185.8 293.1Q181.2 290.2 178.6 285.0Q176.1 279.9 176.1 273.0L176.1 273.0Q176.1 266.1 178.6 260.9Q181.2 255.6 185.7 252.6Q190.2 249.7 196.3 249.7L196.3 249.7Q199.8 249.7 203.2 250.9Q206.6 252.0 209.4 254.6Q212.2 257.2 213.8 261.5Q215.5 265.8 215.5 272.1L215.5 272.1L215.5 275.0L181.0 275.0L181.0 269.0L208.5 269.0Q208.5 265.2 207.0 262.3Q205.5 259.3 202.8 257.6Q200.0 255.9 196.3 255.9L196.3 255.9Q192.2 255.9 189.2 257.9Q186.2 259.9 184.6 263.1Q183.0 266.4 183.0 270.1L183.0 270.1L183.0 274.0Q183.0 279.1 184.8 282.6Q186.5 286.1 189.7 287.9Q192.8 289.8 197.0 289.8L197.0 289.8Q199.7 289.8 201.9 289.0Q204.1 288.2 205.7 286.7Q207.3 285.1 208.2 282.8L208.2 282.8L214.8 284.6Q213.8 288.0 211.3 290.6Q208.8 293.1 205.2 294.5Q201.5 295.9 197.0 295.9ZM263.7 260.3L263.7 260.3L257.5 262.0Q256.9 260.5 255.8 259.0Q254.7 257.6 252.7 256.6Q250.8 255.6 247.8 255.6L247.8 255.6Q243.7 255.6 241.0 257.5Q238.3 259.4 238.3 262.3L238.3 262.3Q238.3 264.8 240.1 266.3Q242 267.8 246.0 268.8L246.0 268.8L252.6 270.4Q258.6 271.9 261.5 274.9Q264.5 277.8 264.5 282.5L264.5 282.5Q264.5 286.4 262.3 289.4Q260.1 292.4 256.2 294.2Q252.2 295.9 247.0 295.9L247.0 295.9Q240.2 295.9 235.7 293.0Q231.2 290.0 230.0 284.3L230.0 284.3L236.5 282.7Q237.5 286.3 240.1 288.1Q242.7 289.9 246.9 289.9L246.9 289.9Q251.7 289.9 254.5 287.8Q257.4 285.8 257.4 282.9L257.4 282.9Q257.4 280.6 255.7 279.0Q254.1 277.4 250.7 276.6L250.7 276.6L243.3 274.8Q237.1 273.4 234.3 270.3Q231.4 267.2 231.4 262.6L231.4 262.6Q231.4 258.8 233.5 255.9Q235.7 253.0 239.4 251.4Q243.1 249.7 247.8 249.7L247.8 249.7Q254.5 249.7 258.3 252.6Q262.1 255.5 263.7 260.3ZM287.7 295L280.8 295L280.8 250.3L287.7 250.3L287.7 295ZM284.3 242.8L284.3 242.8Q282.3 242.8 280.9 241.4Q279.4 240.1 279.4 238.2L279.4 238.2Q279.4 236.2 280.9 234.9Q282.3 233.5 284.3 233.5L284.3 233.5Q286.4 233.5 287.8 234.9Q289.2 236.2 289.2 238.2L289.2 238.2Q289.2 240.1 287.8 241.4Q286.4 242.8 284.3 242.8ZM324.4 312.7L324.4 312.7Q319.4 312.7 315.8 311.4Q312.2 310.2 309.8 308.1Q307.5 306.1 306.1 303.7L306.1 303.7L311.5 299.9Q312.5 301.1 313.9 302.7Q315.3 304.3 317.8 305.5Q320.3 306.6 324.4 306.6L324.4 306.6Q329.8 306.6 333.3 304.0Q336.8 301.4 336.8 295.8L336.8 295.8L336.8 286.7L336.2 286.7Q335.5 288.0 334.1 289.7Q332.7 291.5 330.1 292.9Q327.6 294.3 323.2 294.3L323.2 294.3Q317.8 294.3 313.5 291.7Q309.2 289.2 306.7 284.3Q304.2 279.4 304.2 272.4L304.2 272.4Q304.2 265.5 306.6 260.4Q309.0 255.3 313.3 252.5Q317.7 249.7 323.3 249.7L323.3 249.7Q327.7 249.7 330.2 251.1Q332.8 252.6 334.2 254.4Q335.6 256.2 336.3 257.4L336.3 257.4L337.0 257.4L337.0 250.3L343.7 250.3L343.7 296.3Q343.7 302.0 341.1 305.7Q338.5 309.3 334.1 311.0Q329.7 312.7 324.4 312.7ZM324.1 288.1L324.1 288.1Q328.3 288.1 331.1 286.2Q334.0 284.3 335.4 280.8Q336.9 277.2 336.9 272.3L336.9 272.3Q336.9 267.5 335.5 263.8Q334.0 260.1 331.2 258.0Q328.3 255.9 324.1 255.9L324.1 255.9Q319.8 255.9 316.9 258.1Q314.0 260.3 312.5 264.0Q311.1 267.7 311.1 272.3L311.1 272.3Q311.1 276.9 312.5 280.5Q314.0 284.1 316.9 286.1Q319.8 288.1 324.1 288.1ZM369.1 268.1L369.1 268.1L369.1 295L362.3 295L362.3 250.3L368.9 250.3L368.9 257.3L369.5 257.3Q371.1 253.9 374.3 251.8Q377.5 249.7 382.5 249.7L382.5 249.7Q387.1 249.7 390.5 251.5Q393.9 253.4 395.8 257.1Q397.7 260.9 397.7 266.6L397.7 266.6L397.7 295L390.8 295L390.8 267.0Q390.8 261.8 388.1 258.8Q385.3 255.9 380.6 255.9L380.6 255.9Q377.3 255.9 374.7 257.3Q372.1 258.7 370.6 261.5Q369.1 264.2 369.1 268.1ZM423.1 295L416.3 295L416.3 250.3L423.1 250.3L423.1 295ZM419.8 242.8L419.8 242.8Q417.7 242.8 416.3 241.4Q414.9 240.1 414.9 238.2L414.9 238.2Q414.9 236.2 416.3 234.9Q417.7 233.5 419.8 233.5L419.8 233.5Q421.8 233.5 423.2 234.9Q424.6 236.2 424.6 238.2L424.6 238.2Q424.6 240.1 423.2 241.4Q421.8 242.8 419.8 242.8ZM448.6 268.1L448.6 268.1L448.6 295L441.7 295L441.7 250.3L448.3 250.3L448.3 257.3L448.9 257.3Q450.5 253.9 453.7 251.8Q456.9 249.7 462.0 249.7L462.0 249.7Q466.5 249.7 469.9 251.5Q473.3 253.4 475.2 257.1Q477.1 260.9 477.1 266.6L477.1 266.6L477.1 295L470.2 295L470.2 267.0Q470.2 261.8 467.5 258.8Q464.8 255.9 460.0 255.9L460.0 255.9Q456.7 255.9 454.1 257.3Q451.5 258.7 450.1 261.5Q448.6 264.2 448.6 268.1ZM513.8 312.7L513.8 312.7Q508.8 312.7 505.2 311.4Q501.6 310.2 499.2 308.1Q496.9 306.1 495.5 303.7L495.5 303.7L500.9 299.9Q501.9 301.1 503.3 302.7Q504.7 304.3 507.2 305.5Q509.7 306.6 513.8 306.6L513.8 306.6Q519.2 306.6 522.7 304.0Q526.2 301.4 526.2 295.8L526.2 295.8L526.2 286.7L525.6 286.7Q524.9 288.0 523.5 289.7Q522.1 291.5 519.5 292.9Q517.0 294.3 512.6 294.3L512.6 294.3Q507.2 294.3 502.9 291.7Q498.6 289.2 496.1 284.3Q493.6 279.4 493.6 272.4L493.6 272.4Q493.6 265.5 496.0 260.4Q498.4 255.3 502.7 252.5Q507.1 249.7 512.7 249.7L512.7 249.7Q517.1 249.7 519.6 251.1Q522.2 252.6 523.6 254.4Q525.0 256.2 525.7 257.4L525.7 257.4L526.4 257.4L526.4 250.3L533.1 250.3L533.1 296.3Q533.1 302.0 530.5 305.7Q527.9 309.3 523.5 311.0Q519.1 312.7 513.8 312.7ZM513.5 288.1L513.5 288.1Q517.7 288.1 520.5 286.2Q523.4 284.3 524.8 280.8Q526.3 277.2 526.3 272.3L526.3 272.3Q526.3 267.5 524.9 263.8Q523.4 260.1 520.6 258.0Q517.7 255.9 513.5 255.9L513.5 255.9Q509.1 255.9 506.3 258.1Q503.4 260.3 501.9 264.0Q500.5 267.7 500.5 272.3L500.5 272.3Q500.5 276.9 501.9 280.5Q503.4 284.1 506.3 286.1Q509.2 288.1 513.5 288.1Z M597.2 295.9L597.2 295.9Q591.6 295.9 587.3 293.1Q583.0 290.3 580.6 285.1Q578.2 279.9 578.2 272.8L578.2 272.8Q578.2 265.7 580.6 260.5Q583.0 255.3 587.3 252.5Q591.6 249.7 597.3 249.7L597.3 249.7Q601.7 249.7 604.2 251.1Q606.8 252.6 608.1 254.4Q609.5 256.2 610.2 257.4L610.2 257.4L610.8 257.4L610.8 235.4L617.7 235.4L617.7 295L611.0 295L611.0 288.1L610.2 288.1Q609.5 289.4 608.1 291.2Q606.7 293.0 604.1 294.5Q601.5 295.9 597.2 295.9ZM598.1 289.8L598.1 289.8Q602.2 289.8 605.1 287.6Q608.0 285.4 609.4 281.6Q610.9 277.7 610.9 272.6L610.9 272.6Q610.9 267.6 609.5 263.9Q608.0 260.1 605.2 258.0Q602.3 255.9 598.1 255.9L598.1 255.9Q593.7 255.9 590.8 258.1Q587.9 260.3 586.5 264.1Q585.1 267.9 585.1 272.6L585.1 272.6Q585.1 277.4 586.5 281.3Q588.0 285.2 590.9 287.5Q593.8 289.8 598.1 289.8ZM650.4 296.0L650.4 296.0Q646.1 296.0 642.6 294.4Q639.2 292.8 637.1 289.7Q635.1 286.7 635.1 282.3L635.1 282.3Q635.1 278.5 636.6 276.1Q638.1 273.7 640.7 272.3Q643.2 270.9 646.3 270.2Q649.3 269.5 652.4 269.1L652.4 269.1Q656.5 268.6 659.1 268.3Q661.6 268.1 662.8 267.4Q664.0 266.7 664.0 265.1L664.0 265.1L664.0 264.8Q664.0 260.5 661.6 258.1Q659.3 255.7 654.5 255.7L654.5 255.7Q649.6 255.7 646.8 257.9Q644.0 260.1 642.9 262.5L642.9 262.5L636.4 260.2Q638.1 256.1 641.0 253.8Q644.0 251.5 647.5 250.6Q650.9 249.7 654.3 249.7L654.3 249.7Q656.5 249.7 659.3 250.2Q662.1 250.7 664.7 252.3Q667.4 253.9 669.1 257.0Q670.9 260.2 670.9 265.5L670.9 265.5L670.9 295L664.0 295L664.0 288.9L663.6 288.9Q662.9 290.4 661.3 292.1Q659.7 293.7 657.0 294.9Q654.3 296.0 650.4 296.0ZM651.4 289.9L651.4 289.9Q655.5 289.9 658.3 288.3Q661.1 286.7 662.5 284.1Q664.0 281.6 664.0 278.8L664.0 278.8L664.0 272.5Q663.5 273.0 662.1 273.5Q660.6 273.9 658.7 274.2Q656.8 274.5 655.0 274.7Q653.2 274.9 652.1 275.1L652.1 275.1Q649.4 275.4 647.1 276.2Q644.8 277.0 643.4 278.5Q642.0 280.0 642.0 282.7L642.0 282.7Q642.0 286.2 644.6 288.1Q647.3 289.9 651.4 289.9ZM721.1 260.3L721.1 260.3L714.9 262.0Q714.4 260.5 713.2 259.0Q712.1 257.6 710.2 256.6Q708.3 255.6 705.3 255.6L705.3 255.6Q701.2 255.6 698.4 257.5Q695.7 259.4 695.7 262.3L695.7 262.3Q695.7 264.8 697.6 266.3Q699.4 267.8 703.4 268.8L703.4 268.8L710.0 270.4Q716.0 271.9 719.0 274.9Q721.9 277.8 721.9 282.5L721.9 282.5Q721.9 286.4 719.7 289.4Q717.5 292.4 713.6 294.2Q709.7 295.9 704.5 295.9L704.5 295.9Q697.6 295.9 693.1 293.0Q688.6 290.0 687.5 284.3L687.5 284.3L694.0 282.7Q694.9 286.3 697.5 288.1Q700.1 289.9 704.3 289.9L704.3 289.9Q709.1 289.9 712.0 287.8Q714.8 285.8 714.8 282.9L714.8 282.9Q714.8 280.6 713.2 279.0Q711.6 277.4 708.2 276.6L708.2 276.6L700.7 274.8Q694.6 273.4 691.7 270.3Q688.8 267.2 688.8 262.6L688.8 262.6Q688.8 258.8 691.0 255.9Q693.1 253.0 696.8 251.4Q700.6 249.7 705.3 249.7L705.3 249.7Q711.9 249.7 715.7 252.6Q719.5 255.5 721.1 260.3ZM745.2 268.1L745.2 268.1L745.2 295L738.3 295L738.3 235.4L745.2 235.4L745.2 257.3L745.8 257.3Q747.3 253.8 750.5 251.7Q753.6 249.7 758.9 249.7L758.9 249.7Q763.5 249.7 766.9 251.5Q770.4 253.3 772.3 257.1Q774.2 260.8 774.2 266.6L774.2 266.6L774.2 295L767.3 295L767.3 267.0Q767.3 261.7 764.5 258.8Q761.8 255.9 756.9 255.9L756.9 255.9Q753.6 255.9 750.9 257.3Q748.2 258.7 746.7 261.5Q745.2 264.2 745.2 268.1ZM800.3 295L793.7 295L793.7 235.4L800.6 235.4L800.6 257.4L801.1 257.4Q801.9 256.2 803.2 254.4Q804.6 252.6 807.1 251.1Q809.7 249.7 814.1 249.7L814.1 249.7Q819.7 249.7 824.0 252.5Q828.3 255.3 830.8 260.5Q833.2 265.7 833.2 272.8L833.2 272.8Q833.2 279.9 830.8 285.1Q828.3 290.3 824.1 293.1Q819.8 295.9 814.2 295.9L814.2 295.9Q809.9 295.9 807.3 294.5Q804.7 293.0 803.3 291.2Q801.9 289.4 801.1 288.1L801.1 288.1L800.3 288.1L800.3 295ZM800.4 272.6L800.4 272.6Q800.4 277.7 801.9 281.6Q803.4 285.4 806.3 287.6Q809.1 289.8 813.3 289.8L813.3 289.8Q817.6 289.8 820.5 287.5Q823.4 285.2 824.8 281.3Q826.3 277.4 826.3 272.6L826.3 272.6Q826.3 267.9 824.9 264.1Q823.4 260.3 820.5 258.1Q817.6 255.9 813.3 255.9L813.3 255.9Q809.1 255.9 806.2 258.0Q803.3 260.1 801.9 263.9Q800.4 267.6 800.4 272.6ZM867.8 295.9L867.8 295.9Q861.8 295.9 857.2 293.0Q852.6 290.2 850.1 285.0Q847.6 279.8 847.6 272.9L847.6 272.9Q847.6 265.9 850.1 260.7Q852.6 255.5 857.2 252.6Q861.8 249.7 867.8 249.7L867.8 249.7Q873.9 249.7 878.4 252.6Q883.0 255.5 885.5 260.7Q888.1 265.9 888.1 272.9L888.1 272.9Q888.1 279.8 885.5 285.0Q883.0 290.2 878.4 293.0Q873.9 295.9 867.8 295.9ZM867.8 289.8L867.8 289.8Q872.4 289.8 875.4 287.4Q878.4 285.0 879.8 281.2Q881.2 277.4 881.2 272.9L881.2 272.9Q881.2 268.4 879.8 264.5Q878.4 260.6 875.4 258.3Q872.4 255.9 867.8 255.9L867.8 255.9Q863.2 255.9 860.3 258.3Q857.3 260.6 855.9 264.5Q854.4 268.4 854.4 272.9L854.4 272.9Q854.4 277.4 855.9 281.2Q857.3 285.0 860.3 287.4Q863.2 289.8 867.8 289.8ZM917.7 296.0L917.7 296.0Q913.5 296.0 910.0 294.4Q906.6 292.8 904.5 289.7Q902.5 286.7 902.5 282.3L902.5 282.3Q902.5 278.5 904.0 276.1Q905.5 273.7 908.0 272.3Q910.6 270.9 913.6 270.2Q916.7 269.5 919.8 269.1L919.8 269.1Q923.9 268.6 926.5 268.3Q929.0 268.1 930.2 267.4Q931.4 266.7 931.4 265.1L931.4 265.1L931.4 264.8Q931.4 260.5 929.0 258.1Q926.7 255.7 921.9 255.7L921.9 255.7Q917.0 255.7 914.2 257.9Q911.4 260.1 910.3 262.5L910.3 262.5L903.8 260.2Q905.5 256.1 908.4 253.8Q911.4 251.5 914.8 250.6Q918.3 249.7 921.7 249.7L921.7 249.7Q923.8 249.7 926.7 250.2Q929.5 250.7 932.1 252.3Q934.7 253.9 936.5 257.0Q938.2 260.2 938.2 265.5L938.2 265.5L938.2 295L931.4 295L931.4 288.9L931.0 288.9Q930.3 290.4 928.7 292.1Q927.1 293.7 924.3 294.9Q921.6 296.0 917.7 296.0ZM918.8 289.9L918.8 289.9Q922.9 289.9 925.7 288.3Q928.5 286.7 929.9 284.1Q931.4 281.6 931.4 278.8L931.4 278.8L931.4 272.5Q930.9 273.0 929.5 273.5Q928.0 273.9 926.1 274.2Q924.2 274.5 922.4 274.7Q920.6 274.9 919.5 275.1L919.5 275.1Q916.8 275.4 914.5 276.2Q912.2 277.0 910.8 278.5Q909.3 280.0 909.3 282.7L909.3 282.7Q909.3 286.2 912.0 288.1Q914.7 289.9 918.8 289.9ZM963.7 295L956.8 295L956.8 250.3L963.5 250.3L963.5 257.0L963.9 257.0Q965.1 253.7 968.3 251.6Q971.5 249.6 975.6 249.6L975.6 249.6Q976.3 249.6 977.5 249.6Q978.6 249.6 979.2 249.7L979.2 249.7L979.2 256.7Q978.8 256.6 977.6 256.4Q976.4 256.2 975.0 256.2L975.0 256.2Q971.7 256.2 969.2 257.6Q966.6 258.9 965.2 261.3Q963.7 263.7 963.7 266.7L963.7 266.7L963.7 295ZM1008.8 295.9L1008.8 295.9Q1003.2 295.9 998.9 293.1Q994.7 290.3 992.3 285.1Q989.8 279.9 989.8 272.8L989.8 272.8Q989.8 265.7 992.3 260.5Q994.7 255.3 999.0 252.5Q1003.3 249.7 1008.9 249.7L1008.9 249.7Q1013.3 249.7 1015.9 251.1Q1018.4 252.6 1019.8 254.4Q1021.1 256.2 1021.9 257.4L1021.9 257.4L1022.4 257.4L1022.4 235.4L1029.3 235.4L1029.3 295L1022.7 295L1022.7 288.1L1021.9 288.1Q1021.1 289.4 1019.7 291.2Q1018.3 293.0 1015.7 294.5Q1013.1 295.9 1008.8 295.9ZM1009.8 289.8L1009.8 289.8Q1013.9 289.8 1016.7 287.6Q1019.6 285.4 1021.1 281.6Q1022.6 277.7 1022.6 272.6L1022.6 272.6Q1022.6 267.6 1021.1 263.9Q1019.7 260.1 1016.8 258.0Q1013.9 255.9 1009.8 255.9L1009.8 255.9Q1005.4 255.9 1002.5 258.1Q999.6 260.3 998.1 264.1Q996.7 267.9 996.7 272.6L996.7 272.6Q996.7 277.4 998.2 281.3Q999.6 285.2 1002.5 287.5Q1005.4 289.8 1009.8 289.8ZM1080.5 260.3L1080.5 260.3L1074.3 262.0Q1073.8 260.5 1072.6 259.0Q1071.5 257.6 1069.6 256.6Q1067.7 255.6 1064.7 255.6L1064.7 255.6Q1060.6 255.6 1057.8 257.5Q1055.1 259.4 1055.1 262.3L1055.1 262.3Q1055.1 264.8 1057.0 266.3Q1058.8 267.8 1062.8 268.8L1062.8 268.8L1069.4 270.4Q1075.4 271.9 1078.4 274.9Q1081.3 277.8 1081.3 282.5L1081.3 282.5Q1081.3 286.4 1079.1 289.4Q1076.9 292.4 1073.0 294.2Q1069.1 295.9 1063.9 295.9L1063.9 295.9Q1057.0 295.9 1052.5 293.0Q1048.0 290.0 1046.9 284.3L1046.9 284.3L1053.4 282.7Q1054.3 286.3 1056.9 288.1Q1059.5 289.9 1063.7 289.9L1063.7 289.9Q1068.5 289.9 1071.4 287.8Q1074.2 285.8 1074.2 282.9L1074.2 282.9Q1074.2 280.6 1072.6 279.0Q1071.0 277.4 1067.6 276.6L1067.6 276.6L1060.1 274.8Q1054.0 273.4 1051.1 270.3Q1048.3 267.2 1048.3 262.6L1048.3 262.6Q1048.3 258.8 1050.4 255.9Q1052.5 253.0 1056.2 251.4Q1060.0 249.7 1064.7 249.7L1064.7 249.7Q1071.3 249.7 1075.1 252.6Q1078.9 255.5 1080.5 260.3Z M251.6 349.3L274.7 349.3L274.7 355.1L251.6 355.1L251.6 349.3ZM258.3 383.1L258.3 338.6L265.2 338.6L265.2 381.2Q265.2 384.1 266.0 385.5Q266.9 387.0 268.3 387.5Q269.6 387.9 271.1 387.9L271.1 387.9Q272.3 387.9 273.0 387.8Q273.7 387.7 274.2 387.6L274.2 387.6L275.6 393.8Q274.9 394.0 273.6 394.3Q272.4 394.6 270.4 394.6L270.4 394.6Q267.5 394.6 264.7 393.3Q262.0 392.1 260.1 389.5Q258.3 387.0 258.3 383.1L258.3 383.1ZM298.9 367.1L298.9 367.1L298.9 394L292.0 394L292.0 334.4L298.9 334.4L298.9 356.3L299.5 356.3Q301.1 352.8 304.2 350.7Q307.4 348.7 312.7 348.7L312.7 348.7Q317.2 348.7 320.7 350.5Q324.1 352.3 326.0 356.1Q327.9 359.8 327.9 365.6L327.9 365.6L327.9 394L321.0 394L321.0 366.0Q321.0 360.7 318.3 357.8Q315.5 354.9 310.7 354.9L310.7 354.9Q307.3 354.9 304.6 356.3Q302.0 357.7 300.4 360.5Q298.9 363.2 298.9 367.1ZM359.7 395.0L359.7 395.0Q355.4 395.0 351.9 393.4Q348.5 391.8 346.4 388.7Q344.4 385.7 344.4 381.3L344.4 381.3Q344.4 377.5 345.9 375.1Q347.4 372.7 350.0 371.3Q352.5 369.9 355.6 369.2Q358.6 368.5 361.8 368.1L361.8 368.1Q365.8 367.6 368.4 367.3Q370.9 367.1 372.1 366.4Q373.3 365.7 373.3 364.1L373.3 364.1L373.3 363.8Q373.3 359.5 370.9 357.1Q368.6 354.7 363.8 354.7L363.8 354.7Q358.9 354.7 356.1 356.9Q353.3 359.1 352.2 361.5L352.2 361.5L345.7 359.2Q347.4 355.1 350.4 352.8Q353.3 350.5 356.8 349.6Q360.2 348.7 363.6 348.7L363.6 348.7Q365.8 348.7 368.6 349.2Q371.4 349.7 374.0 351.3Q376.7 352.9 378.4 356.0Q380.2 359.2 380.2 364.5L380.2 364.5L380.2 394L373.3 394L373.3 387.9L372.9 387.9Q372.2 389.4 370.6 391.1Q369.0 392.7 366.3 393.9Q363.6 395.0 359.7 395.0ZM360.7 388.9L360.7 388.9Q364.8 388.9 367.6 387.3Q370.4 385.7 371.8 383.1Q373.3 380.6 373.3 377.8L373.3 377.8L373.3 371.5Q372.8 372.0 371.4 372.5Q369.9 372.9 368.0 373.2Q366.1 373.5 364.3 373.7Q362.5 373.9 361.4 374.1L361.4 374.1Q358.7 374.4 356.4 375.2Q354.1 376.0 352.7 377.5Q351.3 379.0 351.3 381.7L351.3 381.7Q351.3 385.2 353.9 387.1Q356.6 388.9 360.7 388.9ZM395.0 349.3L418.2 349.3L418.2 355.1L395.0 355.1L395.0 349.3ZM401.8 383.1L401.8 338.6L408.6 338.6L408.6 381.2Q408.6 384.1 409.5 385.5Q410.4 387.0 411.7 387.5Q413.1 387.9 414.6 387.9L414.6 387.9Q415.7 387.9 416.4 387.8Q417.2 387.7 417.6 387.6L417.6 387.6L419.0 393.8Q418.3 394.0 417.1 394.3Q415.8 394.6 413.9 394.6L413.9 394.6Q411.0 394.6 408.2 393.3Q405.4 392.1 403.6 389.5Q401.8 387.0 401.8 383.1L401.8 383.1Z M458.1 349.3L482.2 349.3L482.2 355.1L458.1 355.1L458.1 349.3ZM472.2 394L465.3 394L465.3 343.1Q465.3 339.3 467.1 336.7Q468.9 334.1 471.8 332.8Q474.7 331.6 477.9 331.6L477.9 331.6Q480.4 331.6 482.0 332.0Q483.6 332.4 484.4 332.7L484.4 332.7L482.4 338.7Q481.9 338.5 481.0 338.2Q480.1 338.0 478.6 338.0L478.6 338.0Q475.2 338.0 473.7 339.7Q472.2 341.4 472.2 344.7L472.2 344.7L472.2 394ZM514.8 394.9L514.8 394.9Q508.3 394.9 503.6 392.1Q499.0 389.2 496.4 384.0Q493.9 378.9 493.9 372.0L493.9 372.0Q493.9 365.1 496.4 359.9Q499.0 354.6 503.5 351.6Q508.0 348.7 514.1 348.7L514.1 348.7Q517.6 348.7 521.0 349.9Q524.4 351.0 527.2 353.6Q530.0 356.2 531.6 360.5Q533.3 364.8 533.3 371.1L533.3 371.1L533.3 374.0L498.8 374.0L498.8 368.0L526.3 368.0Q526.3 364.2 524.8 361.3Q523.3 358.3 520.5 356.6Q517.8 354.9 514.1 354.9L514.1 354.9Q510.0 354.9 507.0 356.9Q504.0 358.9 502.4 362.1Q500.8 365.4 500.8 369.1L500.8 369.1L500.8 373.0Q500.8 378.1 502.5 381.6Q504.3 385.1 507.5 386.9Q510.6 388.8 514.8 388.8L514.8 388.8Q517.5 388.8 519.7 388.0Q521.9 387.2 523.5 385.7Q525.1 384.1 525.9 381.8L525.9 381.8L532.6 383.6Q531.5 387.0 529.1 389.6Q526.6 392.1 522.9 393.5Q519.3 394.9 514.8 394.9ZM568.5 394.9L568.5 394.9Q562.1 394.9 557.4 392.1Q552.7 389.2 550.2 384.0Q547.7 378.9 547.7 372.0L547.7 372.0Q547.7 365.1 550.2 359.9Q552.7 354.6 557.2 351.6Q561.8 348.7 567.8 348.7L567.8 348.7Q571.3 348.7 574.7 349.9Q578.1 351.0 580.9 353.6Q583.7 356.2 585.4 360.5Q587.0 364.8 587.0 371.1L587.0 371.1L587.0 374.0L552.6 374.0L552.6 368.0L580.1 368.0Q580.1 364.2 578.6 361.3Q577.1 358.3 574.3 356.6Q571.5 354.9 567.8 354.9L567.8 354.9Q563.7 354.9 560.7 356.9Q557.7 358.9 556.1 362.1Q554.5 365.4 554.5 369.1L554.5 369.1L554.5 373.0Q554.5 378.1 556.3 381.6Q558.1 385.1 561.2 386.9Q564.4 388.8 568.5 388.8L568.5 388.8Q571.2 388.8 573.4 388.0Q575.6 387.2 577.2 385.7Q578.8 384.1 579.7 381.8L579.7 381.8L586.3 383.6Q585.3 387.0 582.8 389.6Q580.3 392.1 576.7 393.5Q573.1 394.9 568.5 394.9ZM603.5 334.4L610.4 334.4L610.4 394L603.5 394L603.5 334.4Z M678.5 394.9L678.5 394.9Q672.2 394.9 667.6 392.0Q663.1 389.0 660.6 383.8Q658.2 378.6 658.2 371.9L658.2 371.9Q658.2 365.1 660.7 359.8Q663.2 354.6 667.8 351.6Q672.3 348.7 678.3 348.7L678.3 348.7Q683.1 348.7 686.8 350.4Q690.6 352.2 693.0 355.3Q695.5 358.5 696.0 362.7L696.0 362.7L689.2 362.7Q688.4 359.6 685.7 357.2Q683.0 354.9 678.5 354.9L678.5 354.9Q674.4 354.9 671.4 356.9Q668.4 359.0 666.7 362.8Q665.1 366.6 665.1 371.6L665.1 371.6Q665.1 376.8 666.7 380.7Q668.4 384.5 671.4 386.6Q674.4 388.8 678.5 388.8L678.5 388.8Q681.1 388.8 683.3 387.8Q685.5 386.9 687.0 385.1Q688.5 383.4 689.2 381.0L689.2 381.0L696.0 381.0Q695.5 384.9 693.2 388.1Q690.9 391.2 687.2 393.1Q683.4 394.9 678.5 394.9ZM725.2 395.0L725.2 395.0Q721.0 395.0 717.5 393.4Q714.0 391.8 712.0 388.7Q710.0 385.7 710.0 381.3L710.0 381.3Q710.0 377.5 711.5 375.1Q713.0 372.7 715.5 371.3Q718.1 369.9 721.1 369.2Q724.2 368.5 727.3 368.1L727.3 368.1Q731.4 367.6 733.9 367.3Q736.5 367.1 737.7 366.4Q738.9 365.7 738.9 364.1L738.9 364.1L738.9 363.8Q738.9 359.5 736.5 357.1Q734.2 354.7 729.4 354.7L729.4 354.7Q724.5 354.7 721.7 356.9Q718.9 359.1 717.8 361.5L717.8 361.5L711.3 359.2Q713.0 355.1 715.9 352.8Q718.9 350.5 722.3 349.6Q725.8 348.7 729.2 348.7L729.2 348.7Q731.3 348.7 734.2 349.2Q737.0 349.7 739.6 351.3Q742.2 352.9 744.0 356.0Q745.7 359.2 745.7 364.5L745.7 364.5L745.7 394L738.9 394L738.9 387.9L738.5 387.9Q737.8 389.4 736.2 391.1Q734.5 392.7 731.8 393.9Q729.1 395.0 725.2 395.0ZM726.3 388.9L726.3 388.9Q730.4 388.9 733.2 387.3Q736.0 385.7 737.4 383.1Q738.9 380.6 738.9 377.8L738.9 377.8L738.9 371.5Q738.4 372.0 736.9 372.5Q735.5 372.9 733.6 373.2Q731.7 373.5 729.9 373.7Q728.1 373.9 727.0 374.1L727.0 374.1Q724.3 374.4 722.0 375.2Q719.7 376.0 718.3 377.5Q716.8 379.0 716.8 381.7L716.8 381.7Q716.8 385.2 719.5 387.1Q722.2 388.9 726.3 388.9ZM764.3 334.4L771.2 334.4L771.2 394L764.3 394L764.3 334.4ZM796.6 394L789.8 394L789.8 349.3L796.4 349.3L796.4 356.3L797.0 356.3Q798.4 352.7 801.5 350.7Q804.6 348.7 809.0 348.7L809.0 348.7Q813.4 348.7 816.4 350.7Q819.3 352.7 821.0 356.3L821.0 356.3L821.4 356.3Q823.2 352.8 826.6 350.7Q830.0 348.7 834.8 348.7L834.8 348.7Q840.8 348.7 844.6 352.4Q848.5 356.2 848.5 364.1L848.5 364.1L848.5 394L841.6 394L841.6 364.1Q841.6 359.1 838.9 357.0Q836.2 354.9 832.5 354.9L832.5 354.9Q827.8 354.9 825.2 357.7Q822.6 360.5 822.6 364.9L822.6 364.9L822.6 394L815.6 394L815.6 363.4Q815.6 359.6 813.1 357.2Q810.7 354.9 806.8 354.9L806.8 354.9Q804.1 354.9 801.8 356.3Q799.5 357.7 798.0 360.2Q796.6 362.8 796.6 366.0L796.6 366.0L796.6 394ZM885.8 394.9L885.8 394.9Q879.3 394.9 874.7 392.1Q870.0 389.2 867.5 384.0Q864.9 378.9 864.9 372.0L864.9 372.0Q864.9 365.1 867.5 359.9Q870.0 354.6 874.5 351.6Q879.0 348.7 885.1 348.7L885.1 348.7Q888.6 348.7 892.0 349.9Q895.4 351.0 898.2 353.6Q901.0 356.2 902.7 360.5Q904.3 364.8 904.3 371.1L904.3 371.1L904.3 374.0L869.8 374.0L869.8 368.0L897.3 368.0Q897.3 364.2 895.8 361.3Q894.3 358.3 891.6 356.6Q888.8 354.9 885.1 354.9L885.1 354.9Q881.0 354.9 878.0 356.9Q875.0 358.9 873.4 362.1Q871.8 365.4 871.8 369.1L871.8 369.1L871.8 373.0Q871.8 378.1 873.6 381.6Q875.3 385.1 878.5 386.9Q881.6 388.8 885.8 388.8L885.8 388.8Q888.5 388.8 890.7 388.0Q892.9 387.2 894.5 385.7Q896.1 384.1 897.0 381.8L897.0 381.8L903.6 383.6Q902.6 387.0 900.1 389.6Q897.6 392.1 894.0 393.5Q890.3 394.9 885.8 394.9ZM927.7 394L920.8 394L920.8 349.3L927.4 349.3L927.4 356.0L927.9 356.0Q929.1 352.7 932.3 350.6Q935.5 348.6 939.6 348.6L939.6 348.6Q940.3 348.6 941.4 348.6Q942.6 348.6 943.2 348.7L943.2 348.7L943.2 355.7Q942.8 355.6 941.6 355.4Q940.3 355.2 939.0 355.2L939.0 355.2Q935.7 355.2 933.2 356.6Q930.6 357.9 929.1 360.3Q927.7 362.7 927.7 365.7L927.7 365.7L927.7 394Z "/></g></svg>