<svg width="1200" height="630" viewBox="0 0 1200 630" xmlns="http://www.w3.org/2000/svg"><clipPath id="satori_cp-id"><path x="0" y="0" width="1200" height="630" d="M28,0 h1144 a28,28 0 0 1 28,28 v574 a28,28 0 0 1 -28,28 h-1144 a28,28 0 0 1 -28,-28 v-574 a28,28 0 0 1 28,-28"/></clipPath><mask id="satori_om-id"><rect x="0" y="0" width="1200" height="630" fill="#fff"/></mask><path x="0" y="0" width="1200" height="630" fill="#0d0d0d" d="M28,0 h1144 a28,28 0 0 1 28,28 v574 a28,28 0 0 1 -28,28 h-1144 a28,28 0 0 1 -28,-28 v-574 a28,28 0 0 1 28,-28"/><mask id="satori_om-id-0"><rect x="-120" y="-90" width="820" height="820" fill="#fff" mask="url(#satori_om-id)"/></mask><path x="-120" y="-90" width="820" height="820" fill="rgba(255, 255, 255, 0.07)" d="M290,-90 h0 a410,410 0 0 1 410,410 v0 a410,410 0 0 1 -410,410 h0 a410,410 0 0 1 -410,-410 v0 a410,410 0 0 1 410,-410" clip-path="url(#satori_cp-id)" mask="url(#satori_om-id)"/><mask id="satori_om-id-1"><rect x="1020" y="290" width="420" height="420" fill="#fff" mask="url(#satori_om-id)"/></mask><path x="1020" y="290" width="420" height="420" fill="rgba(255, 255, 255, 0.07)" d="M1230,290 h0 a210,210 0 0 1 210,210 v0 a210,210 0 0 1 -210,210 h0 a210,210 0 0 1 -210,-210 v0 a210,210 0 0 1 210,-210" clip-path="url(#satori_cp-id)" mask="url(#satori_om-id)"/><mask id="satori_om-id-2"><rect x="920" y="-130" width="520" height="520" fill="#fff" mask="url(#satori_om-id)"/></mask><path x="920" y="-130" width="520" height="520" fill="rgba(255, 255, 255, 0.07)" d="M1180,-130 h0 a260,260 0 0 1 260,260 v0 a260,260 0 0 1 -260,260 h0 a260,260 0 0 1 -260,-260 v0 a260,260 0 0 1 260,-260" clip-path="url(#satori_cp-id)" mask="url(#satori_om-id)"/><mask id="satori_om-id-3"><rect x="480" y="320" width="820" height="820" fill="#fff" mask="url(#satori_om-id)"/></mask><g clip-path="url(#satori_cp-id)" mask="url(#satori_om-id)"><path x="480" y="320" width="820" height="820" fill="rgba(255, 255, 255, 0.07)" d="M890,320 h0 a410,410 0 0 1 410,410 v0 a410,410 0 0 1 -410,410 h0 a410,410 0 0 1 -410,-410 v0 a410,410 0 0 1 410,-410" transform="matrix(1.00,0.00,0.00,1.00,-410.00,0.00)"/></g><mask id="satori_om-id-4"><rect x="0" y="216" width="1200" height="198" fill="#fff" mask="url(#satori_om-id)"/></mask><g mask="url(#satori_om-id)" clip-path="url(#satori_cp-id)"><path fill="#ffffff" d="M85.8 250.3L78.8 250.3Q78.3 245.8 74.6 243.4Q70.9 241.0 65.4 241.0L65.4 241.0Q61.5 241.0 58.5 242.2Q55.6 243.5 53.9 245.8Q52.3 248.0 52.3 250.9L52.3 250.9Q52.3 253.2 53.4 254.9Q54.6 256.6 56.4 257.8Q58.2 258.9 60.2 259.6Q62.1 260.3 63.8 260.8L63.8 260.8L69.9 262.4Q72.2 263.0 75.1 264.1Q77.9 265.2 80.6 267.0Q83.2 268.9 84.9 271.7Q86.6 274.6 86.6 278.8L86.6 278.8Q86.6 283.6 84.1 287.5Q81.6 291.4 76.8 293.7Q72.0 296.0 65.1 296.0L65.1 296.0Q58.7 296.0 54.0 294.0Q49.3 291.9 46.7 288.2Q44.0 284.5 43.7 279.6L43.7 279.6L51.1 279.6Q51.4 283.0 53.4 285.2Q55.4 287.4 58.5 288.5Q61.5 289.5 65.1 289.5L65.1 289.5Q69.2 289.5 72.5 288.2Q75.8 286.8 77.7 284.4Q79.7 282.0 79.7 278.7L79.7 278.7Q79.7 275.7 78.0 273.9Q76.3 272.0 73.6 270.8Q70.9 269.7 67.8 268.8L67.8 268.8L60.4 266.7Q53.4 264.7 49.4 261.0Q45.3 257.2 45.3 251.2L45.3 251.2Q45.3 246.2 48.0 242.5Q50.7 238.7 55.4 236.6Q60.0 234.5 65.7 234.5L65.7 234.5Q71.4 234.5 75.9 236.6Q80.4 238.7 83.0 242.2Q85.7 245.8 85.8 250.3L85.8 250.3ZM110.5 268.1L110.5 268.1L110.5 295L103.6 295L103.6 235.4L110.5 235.4L110.5 257.3L111.0 257.3Q112.6 253.8 115.8 251.7Q118.9 249.7 124.2 249.7L124.2 249.7Q128.8 249.7 132.2 251.5Q135.6 253.3 137.6 257.1Q139.5 260.8 139.5 266.6L139.5 266.6L139.5 295L132.6 295L132.6 267.0Q132.6 261.7 129.8 258.8Q127.1 255.9 122.2 255.9L122.2 255.9Q118.8 255.9 116.2 257.3Q113.5 258.7 112.0 261.5Q110.5 264.2 110.5 268.1ZM164.9 295L158.0 295L158.0 250.3L164.9 250.3L164.9 295ZM161.5 242.8L161.5 242.8Q159.5 242.8 158.1 241.4Q156.6 240.1 156.6 238.2L156.6 238.2Q156.6 236.2 158.1 234.9Q159.5 233.5 161.5 233.5L161.5 233.5Q163.5 233.5 165.0 234.9Q166.4 236.2 166.4 238.2L166.4 238.2Q166.4 240.1 165.0 241.4Q163.5 242.8 161.5 242.8ZM190.4 311.8L183.5 311.8L183.5 250.3L190.1 250.3L190.1 257.4L190.9 257.4Q191.7 256.2 193.1 254.4Q194.4 252.6 197.0 251.1Q199.5 249.7 203.9 249.7L203.9 249.7Q209.5 249.7 213.8 252.5Q218.1 255.3 220.6 260.5Q223.0 265.7 223.0 272.8L223.0 272.8Q223.0 279.9 220.6 285.1Q218.1 290.3 213.9 293.1Q209.6 295.9 204.0 295.9L204.0 295.9Q199.7 295.9 197.1 294.5Q194.5 293.0 193.1 291.2Q191.7 289.4 190.9 288.1L190.9 288.1L190.4 288.1L190.4 311.8ZM190.3 272.6L190.3 272.6Q190.3 277.7 191.7 281.6Q193.2 285.4 196.1 287.6Q198.9 289.8 203.1 289.8L203.1 289.8Q207.4 289.8 210.3 287.5Q213.2 285.2 214.6 281.3Q216.1 277.4 216.1 272.6L216.1 272.6Q216.1 267.9 214.7 264.1Q213.2 260.3 210.3 258.1Q207.4 255.9 203.1 255.9L203.1 255.9Q198.9 255.9 196.0 258.0Q193.2 260.1 191.7 263.9Q190.3 267.6 190.3 272.6ZM246.3 311.8L239.5 311.8L239.5 250.3L246.1 250.3L246.1 257.4L246.9 257.4Q247.7 256.2 249.0 254.4Q250.4 252.6 252.9 251.1Q255.5 249.7 259.8 249.7L259.8 249.7Q265.5 249.7 269.8 252.5Q274.1 255.3 276.5 260.5Q278.9 265.7 278.9 272.8L278.9 272.8Q278.9 279.9 276.5 285.1Q274.1 290.3 269.8 293.1Q265.6 295.9 260.0 295.9L260.0 295.9Q255.7 295.9 253.1 294.5Q250.5 293.0 249.1 291.2Q247.7 289.4 246.9 288.1L246.9 288.1L246.3 288.1L246.3 311.8ZM246.2 272.6L246.2 272.6Q246.2 277.7 247.7 281.6Q249.2 285.4 252.0 287.6Q254.9 289.8 259.0 289.8L259.0 289.8Q263.3 289.8 266.2 287.5Q269.1 285.2 270.6 281.3Q272.1 277.4 272.1 272.6L272.1 272.6Q272.1 267.9 270.6 264.1Q269.2 260.3 266.3 258.1Q263.4 255.9 259.0 255.9L259.0 255.9Q254.8 255.9 252.0 258.0Q249.1 260.1 247.7 263.9Q246.2 267.6 246.2 272.6ZM302.3 295L295.4 295L295.4 250.3L302.3 250.3L302.3 295ZM298.9 242.8L298.9 242.8Q296.9 242.8 295.5 241.4Q294.0 240.1 294.0 238.2L294.0 238.2Q294.0 236.2 295.5 234.9Q296.9 233.5 298.9 233.5L298.9 233.5Q300.9 233.5 302.4 234.9Q303.8 236.2 303.8 238.2L303.8 238.2Q303.8 240.1 302.4 241.4Q300.9 242.8 298.9 242.8ZM327.8 268.1L327.8 268.1L327.8 295L320.9 295L320.9 250.3L327.5 250.3L327.5 257.3L328.1 257.3Q329.7 253.9 332.9 251.8Q336.1 249.7 341.2 249.7L341.2 249.7Q345.7 249.7 349.1 251.5Q352.5 253.4 354.4 257.1Q356.3 260.9 356.3 266.6L356.3 266.6L356.3 295L349.4 295L349.4 267.0Q349.4 261.8 346.7 258.8Q343.9 255.9 339.2 255.9L339.2 255.9Q335.9 255.9 333.3 257.3Q330.7 258.7 329.2 261.5Q327.8 264.2 327.8 268.1ZM392.9 312.7L392.9 312.7Q387.9 312.7 384.4 311.4Q380.8 310.2 378.4 308.1Q376.0 306.1 374.6 303.7L374.6 303.7L380.1 299.9Q381.0 301.1 382.5 302.7Q383.9 304.3 386.4 305.5Q388.9 306.6 392.9 306.6L392.9 306.6Q398.3 306.6 401.9 304.0Q405.4 301.4 405.4 295.8L405.4 295.8L405.4 286.7L404.8 286.7Q404.0 288.0 402.7 289.7Q401.3 291.5 398.7 292.9Q396.1 294.3 391.8 294.3L391.8 294.3Q386.3 294.3 382.1 291.7Q377.8 289.2 375.3 284.3Q372.8 279.4 372.8 272.4L372.8 272.4Q372.8 265.5 375.2 260.4Q377.6 255.3 381.9 252.5Q386.2 249.7 391.9 249.7L391.9 249.7Q396.2 249.7 398.8 251.1Q401.4 252.6 402.8 254.4Q404.2 256.2 404.9 257.4L404.9 257.4L405.6 257.4L405.6 250.3L412.3 250.3L412.3 296.3Q412.3 302.0 409.7 305.7Q407.0 309.3 402.7 311.0Q398.3 312.7 392.9 312.7ZM392.7 288.1L392.7 288.1Q396.8 288.1 399.7 286.2Q402.5 284.3 404.0 280.8Q405.5 277.2 405.5 272.3L405.5 272.3Q405.5 267.5 404.0 263.8Q402.6 260.1 399.7 258.0Q396.9 255.9 392.7 255.9L392.7 255.9Q388.3 255.9 385.4 258.1Q382.5 260.3 381.1 264.0Q379.6 267.7 379.6 272.3L379.6 272.3Q379.6 276.9 381.1 280.5Q382.6 284.1 385.5 286.1Q388.4 288.1 392.7 288.1Z M473.5 296.0L473.5 296.0Q469.2 296.0 465.7 294.4Q462.3 292.8 460.2 289.7Q458.2 286.7 458.2 282.3L458.2 282.3Q458.2 278.5 459.7 276.1Q461.2 273.7 463.8 272.3Q466.3 270.9 469.4 270.2Q472.4 269.5 475.5 269.1L475.5 269.1Q479.6 268.6 482.2 268.3Q484.7 268.1 485.9 267.4Q487.1 266.7 487.1 265.1L487.1 265.1L487.1 264.8Q487.1 260.5 484.7 258.1Q482.4 255.7 477.6 255.7L477.6 255.7Q472.7 255.7 469.9 257.9Q467.1 260.1 466.0 262.5L466.0 262.5L459.5 260.2Q461.2 256.1 464.1 253.8Q467.1 251.5 470.6 250.6Q474.0 249.7 477.4 249.7L477.4 249.7Q479.6 249.7 482.4 250.2Q485.2 250.7 487.8 252.3Q490.5 253.9 492.2 257.0Q494.0 260.2 494.0 265.5L494.0 265.5L494.0 295L487.1 295L487.1 288.9L486.7 288.9Q486.0 290.4 484.4 292.1Q482.8 293.7 480.1 294.9Q477.4 296.0 473.5 296.0ZM474.5 289.9L474.5 289.9Q478.6 289.9 481.4 288.3Q484.2 286.7 485.6 284.1Q487.1 281.6 487.1 278.8L487.1 278.8L487.1 272.5Q486.6 273.0 485.2 273.5Q483.7 273.9 481.8 274.2Q479.9 274.5 478.1 274.7Q476.3 274.9 475.2 275.1L475.2 275.1Q472.5 275.4 470.2 276.2Q467.9 277.0 466.5 278.5Q465.1 280.0 465.1 282.7L465.1 282.7Q465.1 286.2 467.7 288.1Q470.4 289.9 474.5 289.9Z M548.9 295L542.2 295L542.2 235.4L549.1 235.4L549.1 257.4L549.7 257.4Q550.4 256.2 551.8 254.4Q553.1 252.6 555.7 251.1Q558.2 249.7 562.6 249.7L562.6 249.7Q568.3 249.7 572.6 252.5Q576.9 255.3 579.3 260.5Q581.7 265.7 581.7 272.8L581.7 272.8Q581.7 279.9 579.3 285.1Q576.9 290.3 572.6 293.1Q568.3 295.9 562.7 295.9L562.7 295.9Q558.4 295.9 555.8 294.5Q553.2 293.0 551.8 291.2Q550.4 289.4 549.7 288.1L549.7 288.1L548.9 288.1L548.9 295ZM549.0 272.6L549.0 272.6Q549.0 277.7 550.5 281.6Q551.9 285.4 554.8 287.6Q557.7 289.8 561.8 289.8L561.8 289.8Q566.1 289.8 569.0 287.5Q571.9 285.2 573.4 281.3Q574.8 277.4 574.8 272.6L574.8 272.6Q574.8 267.9 573.4 264.1Q572.0 260.3 569.1 258.1Q566.2 255.9 561.8 255.9L561.8 255.9Q557.6 255.9 554.7 258.0Q551.9 260.1 550.4 263.9Q549.0 267.6 549.0 272.6ZM598.2 235.4L605.1 235.4L605.1 295L598.2 295L598.2 235.4ZM641.8 295.9L641.8 295.9Q635.8 295.9 631.2 293.0Q626.6 290.2 624.1 285.0Q621.5 279.8 621.5 272.9L621.5 272.9Q621.5 265.9 624.1 260.7Q626.6 255.5 631.2 252.6Q635.8 249.7 641.8 249.7L641.8 249.7Q647.9 249.7 652.4 252.6Q657.0 255.5 659.5 260.7Q662.1 265.9 662.1 272.9L662.1 272.9Q662.1 279.8 659.5 285.0Q657.0 290.2 652.4 293.0Q647.9 295.9 641.8 295.9ZM641.8 289.8L641.8 289.8Q646.4 289.8 649.4 287.4Q652.4 285.0 653.8 281.2Q655.2 277.4 655.2 272.9L655.2 272.9Q655.2 268.4 653.8 264.5Q652.4 260.6 649.4 258.3Q646.4 255.9 641.8 255.9L641.8 255.9Q637.2 255.9 634.2 258.3Q631.3 260.6 629.8 264.5Q628.4 268.4 628.4 272.9L628.4 272.9Q628.4 277.4 629.8 281.2Q631.3 285.0 634.2 287.4Q637.2 289.8 641.8 289.8ZM696.6 312.7L696.6 312.7Q691.6 312.7 688.1 311.4Q684.5 310.2 682.1 308.1Q679.7 306.1 678.3 303.7L678.3 303.7L683.8 299.9Q684.7 301.1 686.2 302.7Q687.6 304.3 690.1 305.5Q692.6 306.6 696.6 306.6L696.6 306.6Q702.0 306.6 705.6 304.0Q709.1 301.4 709.1 295.8L709.1 295.8L709.1 286.7L708.5 286.7Q707.7 288.0 706.4 289.7Q705.0 291.5 702.4 292.9Q699.8 294.3 695.5 294.3L695.5 294.3Q690.0 294.3 685.7 291.7Q681.4 289.2 679.0 284.3Q676.5 279.4 676.5 272.4L676.5 272.4Q676.5 265.5 678.9 260.4Q681.3 255.3 685.6 252.5Q689.9 249.7 695.6 249.7L695.6 249.7Q699.9 249.7 702.5 251.1Q705.1 252.6 706.5 254.4Q707.9 256.2 708.6 257.4L708.6 257.4L709.3 257.4L709.3 250.3L716.0 250.3L716.0 296.3Q716.0 302.0 713.3 305.7Q710.7 309.3 706.4 311.0Q702.0 312.7 696.6 312.7ZM696.4 288.1L696.4 288.1Q700.5 288.1 703.4 286.2Q706.2 284.3 707.7 280.8Q709.2 277.2 709.2 272.3L709.2 272.3Q709.2 267.5 707.7 263.8Q706.3 260.1 703.4 258.0Q700.6 255.9 696.4 255.9L696.4 255.9Q692.0 255.9 689.1 258.1Q686.2 260.3 684.8 264.0Q683.3 267.7 683.3 272.3L683.3 272.3Q683.3 276.9 684.8 280.5Q686.3 284.1 689.2 286.1Q692.1 288.1 696.4 288.1Z M780.2 295L773.4 295L759.8 250.3L767.0 250.3L776.7 284.5L777.2 284.5L786.7 250.3L794.0 250.3L803.5 284.4L803.9 284.4L813.6 250.3L820.8 250.3L807.2 295L800.4 295L790.7 260.6L790.0 260.6L780.2 295ZM842.8 295L835.9 295L835.9 250.3L842.8 250.3L842.8 295ZM839.4 242.8L839.4 242.8Q837.4 242.8 836.0 241.4Q834.5 240.1 834.5 238.2L834.5 238.2Q834.5 236.2 836.0 234.9Q837.4 233.5 839.4 233.5L839.4 233.5Q841.4 233.5 842.9 234.9Q844.3 236.2 844.3 238.2L844.3 238.2Q844.3 240.1 842.9 241.4Q841.4 242.8 839.4 242.8ZM857.6 250.3L880.8 250.3L880.8 256.1L857.6 256.1L857.6 250.3ZM864.4 284.1L864.4 239.6L871.3 239.6L871.3 282.2Q871.3 285.1 872.1 286.5Q873.0 288.0 874.3 288.5Q875.7 288.9 877.2 288.9L877.2 288.9Q878.3 288.9 879.1 288.8Q879.8 288.7 880.2 288.6L880.2 288.6L881.6 294.8Q880.9 295.0 879.7 295.3Q878.4 295.6 876.5 295.6L876.5 295.6Q873.6 295.6 870.8 294.3Q868.0 293.1 866.2 290.5Q864.4 288.0 864.4 284.1L864.4 284.1ZM905.0 268.1L905.0 268.1L905.0 295L898.1 295L898.1 235.4L905.0 235.4L905.0 257.3L905.6 257.3Q907.1 253.8 910.3 251.7Q913.5 249.7 918.7 249.7L918.7 249.7Q923.3 249.7 926.7 251.5Q930.2 253.3 932.1 257.1Q934.0 260.8 934.0 266.6L934.0 266.6L934.0 295L927.1 295L927.1 267.0Q927.1 261.7 924.4 258.8Q921.6 255.9 916.8 255.9L916.8 255.9Q913.4 255.9 910.7 257.3Q908.0 258.7 906.5 261.5Q905.0 264.2 905.0 268.1Z M982.2 295L982.2 235.4L990.8 235.4L1011.1 284.9L1011.8 284.9L1032.1 235.4L1040.7 235.4L1040.7 295L1033.9 295L1033.9 249.7L1033.4 249.7L1014.7 295L1008.2 295L989.6 249.7L989.0 249.7L989.0 295L982.2 295ZM1079.5 295L1079.5 295L1061.1 295L1061.1 235.4L1080.4 235.4Q1089.0 235.4 1095.2 238.9Q1101.4 242.5 1104.7 249.2Q1108.0 255.8 1108.0 265.1L1108.0 265.1Q1108.0 274.4 1104.6 281.1Q1101.3 287.8 1095.0 291.4Q1088.6 295 1079.5 295ZM1068.4 241.8L1068.4 288.6L1079.1 288.6Q1086.5 288.6 1091.3 285.7Q1096.2 282.9 1098.6 277.6Q1101.0 272.3 1101.0 265.1L1101.0 265.1Q1101.0 257.8 1098.6 252.6Q1096.3 247.4 1091.6 244.6Q1086.9 241.8 1079.9 241.8L1079.9 241.8L1068.4 241.8ZM1120.1 235.4L1128.6 235.4L1144.0 260.2L1144.5 260.2L1159.9 235.4L1168.4 235.4L1149.6 265.2L1168.4 295L1159.9 295L1144.5 270.7L1144.0 270.7L1128.6 295L1120.1 295L1139.4 265.2L1120.1 235.4Z M319.2 394L312.3 394L312.3 349.3L319.2 349.3L319.2 394ZM315.8 341.8L315.8 341.8Q313.8 341.8 312.3 340.4Q310.9 339.1 310.9 337.2L310.9 337.2Q310.9 335.2 312.3 333.9Q313.8 332.5 315.8 332.5L315.8 332.5Q317.8 332.5 319.2 333.9Q320.7 335.2 320.7 337.2L320.7 337.2Q320.7 339.1 319.2 340.4Q317.8 341.8 315.8 341.8ZM344.6 367.1L344.6 367.1L344.6 394L337.7 394L337.7 349.3L344.4 349.3L344.4 356.3L345.0 356.3Q346.5 352.9 349.7 350.8Q352.9 348.7 358.0 348.7L358.0 348.7Q362.6 348.7 366.0 350.5Q369.4 352.4 371.3 356.1Q373.2 359.9 373.2 365.6L373.2 365.6L373.2 394L366.3 394L366.3 366.0Q366.3 360.8 363.5 357.8Q360.8 354.9 356.0 354.9L356.0 354.9Q352.7 354.9 350.2 356.3Q347.6 357.7 346.1 360.5Q344.6 363.2 344.6 367.1Z M441.5 343.8L423.7 394L416.1 394L438.0 334.4L445.4 334.4L467.3 394L459.8 394L442.0 343.8L441.5 343.8ZM426.5 377.1L426.5 370.7L457.0 370.7L457.0 377.1L426.5 377.1ZM488.6 410.8L481.7 410.8L481.7 349.3L488.4 349.3L488.4 356.4L489.2 356.4Q489.9 355.2 491.3 353.4Q492.7 351.6 495.2 350.1Q497.7 348.7 502.1 348.7L502.1 348.7Q507.8 348.7 512.1 351.5Q516.4 354.3 518.8 359.5Q521.2 364.7 521.2 371.8L521.2 371.8Q521.2 378.9 518.8 384.1Q516.4 389.3 512.1 392.1Q507.8 394.9 502.2 394.9L502.2 394.9Q497.9 394.9 495.3 393.5Q492.7 392.0 491.3 390.2Q489.9 388.4 489.2 387.1L489.2 387.1L488.6 387.1L488.6 410.8ZM488.5 371.6L488.5 371.6Q488.5 376.7 490.0 380.6Q491.5 384.4 494.3 386.6Q497.2 388.8 501.3 388.8L501.3 388.8Q505.6 388.8 508.5 386.5Q511.4 384.2 512.9 380.3Q514.3 376.4 514.3 371.6L514.3 371.6Q514.3 366.9 512.9 363.1Q511.5 359.3 508.6 357.1Q505.7 354.9 501.3 354.9L501.3 354.9Q497.1 354.9 494.3 357.0Q491.4 359.1 489.9 362.9Q488.5 366.6 488.5 371.6ZM544.6 410.8L537.7 410.8L537.7 349.3L544.3 349.3L544.3 356.4L545.2 356.4Q545.9 355.2 547.3 353.4Q548.6 351.6 551.2 350.1Q553.7 348.7 558.1 348.7L558.1 348.7Q563.7 348.7 568.0 351.5Q572.4 354.3 574.8 359.5Q577.2 364.7 577.2 371.8L577.2 371.8Q577.2 378.9 574.8 384.1Q572.4 389.3 568.1 392.1Q563.8 394.9 558.2 394.9L558.2 394.9Q553.9 394.9 551.3 393.5Q548.7 392.0 547.3 390.2Q545.9 388.4 545.2 387.1L545.2 387.1L544.6 387.1L544.6 410.8ZM544.5 371.6L544.5 371.6Q544.5 376.7 545.9 380.6Q547.4 384.4 550.3 386.6Q553.1 388.8 557.3 388.8L557.3 388.8Q561.6 388.8 564.5 386.5Q567.4 384.2 568.8 380.3Q570.3 376.4 570.3 371.6L570.3 371.6Q570.3 366.9 568.9 363.1Q567.4 359.3 564.5 357.1Q561.6 354.9 557.3 354.9L557.3 354.9Q553.1 354.9 550.2 357.0Q547.4 359.1 545.9 362.9Q544.5 366.6 544.5 371.6Z M631.4 394L624.2 394L624.2 334.4L644.4 334.4Q651.4 334.4 655.8 336.7Q660.3 339.1 662.5 343.2Q664.6 347.4 664.6 352.7L664.6 352.7Q664.6 357.9 662.5 362.0Q660.3 366.1 655.9 368.4Q651.4 370.7 644.5 370.7L644.5 370.7L628.2 370.7L628.2 364.2L644.3 364.2Q649.0 364.2 652.0 362.8Q654.9 361.4 656.2 358.8Q657.5 356.2 657.5 352.7L657.5 352.7Q657.5 349.1 656.2 346.4Q654.9 343.7 651.9 342.2Q649.0 340.8 644.1 340.8L644.1 340.8L631.4 340.8L631.4 394ZM644.1 367.2L652.3 367.2L667.0 394L658.6 394L644.1 367.2ZM699.4 394.9L699.4 394.9Q693.4 394.9 688.8 392.0Q684.2 389.2 681.7 384.0Q679.1 378.8 679.1 371.9L679.1 371.9Q679.1 364.9 681.7 359.7Q684.2 354.5 688.8 351.6Q693.4 348.7 699.4 348.7L699.4 348.7Q705.5 348.7 710.0 351.6Q714.6 354.5 717.1 359.7Q719.7 364.9 719.7 371.9L719.7 371.9Q719.7 378.8 717.1 384.0Q714.6 389.2 710.0 392.0Q705.5 394.9 699.4 394.9ZM699.4 388.8L699.4 388.8Q704.0 388.8 707.0 386.4Q710.0 384.0 711.4 380.2Q712.8 376.4 712.8 371.9L712.8 371.9Q712.8 367.4 711.4 363.5Q710.0 359.6 707.0 357.3Q704.0 354.9 699.4 354.9L699.4 354.9Q694.8 354.9 691.8 357.3Q688.9 359.6 687.4 363.5Q686.0 367.4 686.0 371.9L686.0 371.9Q686.0 376.4 687.4 380.2Q688.9 384.0 691.8 386.4Q694.8 388.8 699.4 388.8ZM764.3 375.7L764.3 375.7L764.3 349.3L771.2 349.3L771.2 394L764.3 394L764.3 386.4L763.9 386.4Q762.3 389.8 759.0 392.2Q755.7 394.6 750.6 394.6L750.6 394.6Q746.4 394.6 743.1 392.7Q739.9 390.9 738.0 387.1Q736.2 383.4 736.2 377.7L736.2 377.7L736.2 349.3L743.0 349.3L743.0 377.2Q743.0 382.1 745.8 385.0Q748.5 387.9 752.8 387.9L752.8 387.9Q755.4 387.9 758.0 386.6Q760.7 385.3 762.5 382.6Q764.3 379.9 764.3 375.7ZM786.1 349.3L809.2 349.3L809.2 355.1L786.1 355.1L786.1 349.3ZM792.8 383.1L792.8 338.6L799.7 338.6L799.7 381.2Q799.7 384.1 800.6 385.5Q801.4 387.0 802.8 387.5Q804.1 387.9 805.6 387.9L805.6 387.9Q806.8 387.9 807.5 387.8Q808.2 387.7 808.7 387.6L808.7 387.6L810.1 393.8Q809.4 394.0 808.1 394.3Q806.9 394.6 804.9 394.6L804.9 394.6Q802.0 394.6 799.2 393.3Q796.5 392.1 794.6 389.5Q792.8 387.0 792.8 383.1L792.8 383.1ZM843.9 394.9L843.9 394.9Q837.4 394.9 832.8 392.1Q828.1 389.2 825.6 384.0Q823.1 378.9 823.1 372.0L823.1 372.0Q823.1 365.1 825.6 359.9Q828.1 354.6 832.6 351.6Q837.1 348.7 843.2 348.7L843.2 348.7Q846.7 348.7 850.1 349.9Q853.5 351.0 856.3 353.6Q859.1 356.2 860.8 360.5Q862.4 364.8 862.4 371.1L862.4 371.1L862.4 374.0L827.9 374.0L827.9 368.0L855.4 368.0Q855.4 364.2 853.9 361.3Q852.4 358.3 849.7 356.6Q846.9 354.9 843.2 354.9L843.2 354.9Q839.1 354.9 836.1 356.9Q833.1 358.9 831.5 362.1Q829.9 365.4 829.9 369.1L829.9 369.1L829.9 373.0Q829.9 378.1 831.7 381.6Q833.4 385.1 836.6 386.9Q839.7 388.8 843.9 388.8L843.9 388.8Q846.6 388.8 848.8 388.0Q851.0 387.2 852.6 385.7Q854.2 384.1 855.1 381.8L855.1 381.8L861.7 383.6Q860.7 387.0 858.2 389.6Q855.7 392.1 852.1 393.5Q848.4 394.9 843.9 394.9ZM885.8 394L878.9 394L878.9 349.3L885.5 349.3L885.5 356.0L886.0 356.0Q887.2 352.7 890.4 350.6Q893.6 348.6 897.7 348.6L897.7 348.6Q898.4 348.6 899.6 348.6Q900.7 348.6 901.3 348.7L901.3 348.7L901.3 355.7Q900.9 355.6 899.7 355.4Q898.4 355.2 897.1 355.2L897.1 355.2Q893.8 355.2 891.3 356.6Q888.7 357.9 887.2 360.3Q885.8 362.7 885.8 365.7L885.8 365.7L885.8 394Z "/></g></svg>