<svg width="1200" height="630" viewBox="0 0 1200 630" xmlns="http://www.w3.org/2000/svg"><clipPath id="satori_cp-id"><path x="0" y="0" width="1200" height="630" d="M28,0 h1144 a28,28 0 0 1 28,28 v574 a28,28 0 0 1 -28,28 h-1144 a28,28 0 0 1 -28,-28 v-574 a28,28 0 0 1 28,-28"/></clipPath><mask id="satori_om-id"><rect x="0" y="0" width="1200" height="630" fill="#fff"/></mask><path x="0" y="0" width="1200" height="630" fill="#0d0d0d" d="M28,0 h1144 a28,28 0 0 1 28,28 v574 a28,28 0 0 1 -28,28 h-1144 a28,28 0 0 1 -28,-28 v-574 a28,28 0 0 1 28,-28"/><mask id="satori_om-id-0"><rect x="-120" y="-90" width="820" height="820" fill="#fff" mask="url(#satori_om-id)"/></mask><path x="-120" y="-90" width="820" height="820" fill="rgba(255, 255, 255, 0.07)" d="M290,-90 h0 a410,410 0 0 1 410,410 v0 a410,410 0 0 1 -410,410 h0 a410,410 0 0 1 -410,-410 v0 a410,410 0 0 1 410,-410" clip-path="url(#satori_cp-id)" mask="url(#satori_om-id)"/><mask id="satori_om-id-1"><rect x="1020" y="290" width="420" height="420" fill="#fff" mask="url(#satori_om-id)"/></mask><path x="1020" y="290" width="420" height="420" fill="rgba(255, 255, 255, 0.07)" d="M1230,290 h0 a210,210 0 0 1 210,210 v0 a210,210 0 0 1 -210,210 h0 a210,210 0 0 1 -210,-210 v0 a210,210 0 0 1 210,-210" clip-path="url(#satori_cp-id)" mask="url(#satori_om-id)"/><mask id="satori_om-id-2"><rect x="920" y="-130" width="520" height="520" fill="#fff" mask="url(#satori_om-id)"/></mask><path x="920" y="-130" width="520" height="520" fill="rgba(255, 255, 255, 0.07)" d="M1180,-130 h0 a260,260 0 0 1 260,260 v0 a260,260 0 0 1 -260,260 h0 a260,260 0 0 1 -260,-260 v0 a260,260 0 0 1 260,-260" clip-path="url(#satori_cp-id)" mask="url(#satori_om-id)"/><mask id="satori_om-id-3"><rect x="480" y="320" width="820" height="820" fill="#fff" mask="url(#satori_om-id)"/></mask><g clip-path="url(#satori_cp-id)" mask="url(#satori_om-id)"><path x="480" y="320" width="820" height="820" fill="rgba(255, 255, 255, 0.07)" d="M890,320 h0 a410,410 0 0 1 410,410 v0 a410,410 0 0 1 -410,410 h0 a410,410 0 0 1 -410,-410 v0 a410,410 0 0 1 410,-410" transform="matrix(1.00,0.00,0.00,1.00,-410.00,0.00)"/></g><mask id="satori_om-id-4"><rect x="0" y="216" width="1200" height="198" fill="#fff" mask="url(#satori_om-id)"/></mask><g mask="url(#satori_om-id)" clip-path="url(#satori_cp-id)"><path fill="#ffffff" d="M111.5 295L104.1 295L87.7 235.4L95.1 235.4L107.5 283.9L108.1 283.9L120.8 235.4L129.0 235.4L141.7 283.9L142.3 283.9L154.7 235.4L162.1 235.4L145.8 295L138.3 295L125.1 247.5L124.7 247.5L111.5 295ZM183.0 268.1L183.0 268.1L183.0 295L176.1 295L176.1 235.4L183.0 235.4L183.0 257.3L183.6 257.3Q185.1 253.8 188.3 251.7Q191.4 249.7 196.7 249.7L196.7 249.7Q201.3 249.7 204.7 251.5Q208.2 253.3 210.1 257.1Q212.0 260.8 212.0 266.6L212.0 266.6L212.0 295L205.1 295L205.1 267.0Q205.1 261.7 202.3 258.8Q199.6 255.9 194.7 255.9L194.7 255.9Q191.4 255.9 188.7 257.3Q186.0 258.7 184.5 261.5Q183.0 264.2 183.0 268.1ZM243.7 296.0L243.7 296.0Q239.5 296.0 236.0 294.4Q232.5 292.8 230.5 289.7Q228.5 286.7 228.5 282.3L228.5 282.3Q228.5 278.5 230.0 276.1Q231.5 273.7 234.0 272.3Q236.5 270.9 239.6 270.2Q242.7 269.5 245.8 269.1L245.8 269.1Q249.9 268.6 252.4 268.3Q255.0 268.1 256.2 267.4Q257.3 266.7 257.3 265.1L257.3 265.1L257.3 264.8Q257.3 260.5 255.0 258.1Q252.7 255.7 247.9 255.7L247.9 255.7Q243.0 255.7 240.2 257.9Q237.4 260.1 236.3 262.5L236.3 262.5L229.7 260.2Q231.5 256.1 234.4 253.8Q237.3 251.5 240.8 250.6Q244.3 249.7 247.7 249.7L247.7 249.7Q249.8 249.7 252.6 250.2Q255.4 250.7 258.1 252.3Q260.7 253.9 262.5 257.0Q264.2 260.2 264.2 265.5L264.2 265.5L264.2 295L257.3 295L257.3 288.9L257.0 288.9Q256.3 290.4 254.7 292.1Q253.0 293.7 250.3 294.9Q247.6 296.0 243.7 296.0ZM244.8 289.9L244.8 289.9Q248.8 289.9 251.6 288.3Q254.5 286.7 255.9 284.1Q257.3 281.6 257.3 278.8L257.3 278.8L257.3 272.5Q256.9 273.0 255.4 273.5Q254.0 273.9 252.1 274.2Q250.1 274.5 248.4 274.7Q246.6 274.9 245.5 275.1L245.5 275.1Q242.8 275.4 240.5 276.2Q238.2 277.0 236.7 278.5Q235.3 280.0 235.3 282.7L235.3 282.7Q235.3 286.2 238.0 288.1Q240.7 289.9 244.8 289.9ZM279.1 250.3L302.2 250.3L302.2 256.1L279.1 256.1L279.1 250.3ZM285.8 284.1L285.8 239.6L292.7 239.6L292.7 282.2Q292.7 285.1 293.6 286.5Q294.4 288.0 295.8 288.5Q297.1 288.9 298.6 288.9L298.6 288.9Q299.8 288.9 300.5 288.8Q301.2 288.7 301.7 288.6L301.7 288.6L303.1 294.8Q302.4 295.0 301.1 295.3Q299.9 295.6 297.9 295.6L297.9 295.6Q295.0 295.6 292.2 294.3Q289.5 293.1 287.6 290.5Q285.8 288.0 285.8 284.1L285.8 284.1Z M354.2 295L347.3 295L347.3 250.3L353.9 250.3L353.9 257.3L354.5 257.3Q355.9 253.7 359.0 251.7Q362.1 249.7 366.5 249.7L366.5 249.7Q370.9 249.7 373.9 251.7Q376.8 253.7 378.5 257.3L378.5 257.3L379.0 257.3Q380.7 253.8 384.1 251.7Q387.6 249.7 392.4 249.7L392.4 249.7Q398.4 249.7 402.2 253.4Q406.0 257.2 406.0 265.1L406.0 265.1L406.0 295L399.1 295L399.1 265.1Q399.1 260.1 396.4 258.0Q393.7 255.9 390.0 255.9L390.0 255.9Q385.3 255.9 382.7 258.7Q380.1 261.5 380.1 265.9L380.1 265.9L380.1 295L373.1 295L373.1 264.4Q373.1 260.6 370.7 258.2Q368.2 255.9 364.3 255.9L364.3 255.9Q361.6 255.9 359.3 257.3Q357.0 258.7 355.6 261.2Q354.2 263.8 354.2 267.0L354.2 267.0L354.2 295ZM437.7 296.0L437.7 296.0Q433.5 296.0 430.0 294.4Q426.6 292.8 424.5 289.7Q422.5 286.7 422.5 282.3L422.5 282.3Q422.5 278.5 424.0 276.1Q425.5 273.7 428.0 272.3Q430.6 270.9 433.6 270.2Q436.7 269.5 439.8 269.1L439.8 269.1Q443.9 268.6 446.5 268.3Q449.0 268.1 450.2 267.4Q451.4 266.7 451.4 265.1L451.4 265.1L451.4 264.8Q451.4 260.5 449.0 258.1Q446.7 255.7 441.9 255.7L441.9 255.7Q437.0 255.7 434.2 257.9Q431.4 260.1 430.3 262.5L430.3 262.5L423.8 260.2Q425.5 256.1 428.4 253.8Q431.4 251.5 434.8 250.6Q438.3 249.7 441.7 249.7L441.7 249.7Q443.9 249.7 446.7 250.2Q449.5 250.7 452.1 252.3Q454.7 253.9 456.5 257.0Q458.2 260.2 458.2 265.5L458.2 265.5L458.2 295L451.4 295L451.4 288.9L451.0 288.9Q450.3 290.4 448.7 292.1Q447.1 293.7 444.3 294.9Q441.6 296.0 437.7 296.0ZM438.8 289.9L438.8 289.9Q442.9 289.9 445.7 288.3Q448.5 286.7 449.9 284.1Q451.4 281.6 451.4 278.8L451.4 278.8L451.4 272.5Q450.9 273.0 449.5 273.5Q448.0 273.9 446.1 274.2Q444.2 274.5 442.4 274.7Q440.6 274.9 439.5 275.1L439.5 275.1Q436.8 275.4 434.5 276.2Q432.2 277.0 430.8 278.5Q429.3 280.0 429.3 282.7L429.3 282.7Q429.3 286.2 432.0 288.1Q434.7 289.9 438.8 289.9ZM491.1 271.4L483.2 278.7L483.1 270.2L484.5 270.2L504.1 250.3L512.6 250.3L491.7 271.4L491.1 271.4ZM483.7 295L476.8 295L476.8 235.4L483.7 235.4L483.7 295ZM514.0 295L505.2 295L487.8 272.9L492.7 268.1L514.0 295ZM544.3 295.9L544.3 295.9Q537.9 295.9 533.2 293.1Q528.5 290.2 526.0 285.0Q523.5 279.9 523.5 273.0L523.5 273.0Q523.5 266.1 526.0 260.9Q528.5 255.6 533.0 252.6Q537.6 249.7 543.6 249.7L543.6 249.7Q547.1 249.7 550.5 250.9Q553.9 252.0 556.7 254.6Q559.5 257.2 561.2 261.5Q562.8 265.8 562.8 272.1L562.8 272.1L562.8 275.0L528.4 275.0L528.4 269.0L555.8 269.0Q555.8 265.2 554.3 262.3Q552.8 259.3 550.1 257.6Q547.3 255.9 543.6 255.9L543.6 255.9Q539.5 255.9 536.5 257.9Q533.5 259.9 531.9 263.1Q530.3 266.4 530.3 270.1L530.3 270.1L530.3 274.0Q530.3 279.1 532.1 282.6Q533.9 286.1 537.0 287.9Q540.2 289.8 544.3 289.8L544.3 289.8Q547.0 289.8 549.2 289.0Q551.4 288.2 553.0 286.7Q554.6 285.1 555.5 282.8L555.5 282.8L562.1 284.6Q561.1 288.0 558.6 290.6Q556.1 293.1 552.5 294.5Q548.9 295.9 544.3 295.9ZM611 260.3L611 260.3L604.8 262.0Q604.2 260.5 603.1 259.0Q602.0 257.6 600.1 256.6Q598.2 255.6 595.2 255.6L595.2 255.6Q591.1 255.6 588.3 257.5Q585.6 259.4 585.6 262.3L585.6 262.3Q585.6 264.8 587.5 266.3Q589.3 267.8 593.3 268.8L593.3 268.8L599.9 270.4Q605.9 271.9 608.9 274.9Q611.8 277.8 611.8 282.5L611.8 282.5Q611.8 286.4 609.6 289.4Q607.4 292.4 603.5 294.2Q599.6 295.9 594.3 295.9L594.3 295.9Q587.5 295.9 583.0 293.0Q578.5 290.0 577.3 284.3L577.3 284.3L583.9 282.7Q584.8 286.3 587.4 288.1Q590.0 289.9 594.2 289.9L594.2 289.9Q599.0 289.9 601.9 287.8Q604.7 285.8 604.7 282.9L604.7 282.9Q604.7 280.6 603.1 279.0Q601.4 277.4 598.1 276.6L598.1 276.6L590.6 274.8Q584.5 273.4 581.6 270.3Q578.7 267.2 578.7 262.6L578.7 262.6Q578.7 258.8 580.9 255.9Q583.0 253.0 586.7 251.4Q590.4 249.7 595.2 249.7L595.2 249.7Q601.8 249.7 605.6 252.6Q609.4 255.5 611 260.3Z M672.5 296.0L672.5 296.0Q668.2 296.0 664.7 294.4Q661.3 292.8 659.2 289.7Q657.2 286.7 657.2 282.3L657.2 282.3Q657.2 278.5 658.7 276.1Q660.2 273.7 662.8 272.3Q665.3 270.9 668.4 270.2Q671.4 269.5 674.5 269.1L674.5 269.1Q678.6 268.6 681.2 268.3Q683.7 268.1 684.9 267.4Q686.1 266.7 686.1 265.1L686.1 265.1L686.1 264.8Q686.1 260.5 683.7 258.1Q681.4 255.7 676.6 255.7L676.6 255.7Q671.7 255.7 668.9 257.9Q666.1 260.1 665.0 262.5L665.0 262.5L658.5 260.2Q660.2 256.1 663.1 253.8Q666.1 251.5 669.6 250.6Q673.0 249.7 676.4 249.7L676.4 249.7Q678.6 249.7 681.4 250.2Q684.2 250.7 686.8 252.3Q689.5 253.9 691.2 257.0Q693.0 260.2 693.0 265.5L693.0 265.5L693.0 295L686.1 295L686.1 288.9L685.7 288.9Q685.0 290.4 683.4 292.1Q681.8 293.7 679.1 294.9Q676.4 296.0 672.5 296.0ZM673.5 289.9L673.5 289.9Q677.6 289.9 680.4 288.3Q683.2 286.7 684.6 284.1Q686.1 281.6 686.1 278.8L686.1 278.8L686.1 272.5Q685.6 273.0 684.2 273.5Q682.7 273.9 680.8 274.2Q678.9 274.5 677.1 274.7Q675.3 274.9 674.2 275.1L674.2 275.1Q671.5 275.4 669.2 276.2Q666.9 277.0 665.5 278.5Q664.1 280.0 664.1 282.7L664.1 282.7Q664.1 286.2 666.7 288.1Q669.4 289.9 673.5 289.9Z M747.2 311.8L740.3 311.8L740.3 250.3L746.9 250.3L746.9 257.4L747.7 257.4Q748.5 256.2 749.9 254.4Q751.2 252.6 753.8 251.1Q756.3 249.7 760.7 249.7L760.7 249.7Q766.3 249.7 770.6 252.5Q774.9 255.3 777.4 260.5Q779.8 265.7 779.8 272.8L779.8 272.8Q779.8 279.9 777.4 285.1Q774.9 290.3 770.7 293.1Q766.4 295.9 760.8 295.9L760.8 295.9Q756.5 295.9 753.9 294.5Q751.3 293.0 749.9 291.2Q748.5 289.4 747.7 288.1L747.7 288.1L747.2 288.1L747.2 311.8ZM747.0 272.6L747.0 272.6Q747.0 277.7 748.5 281.6Q750.0 285.4 752.9 287.6Q755.7 289.8 759.9 289.8L759.9 289.8Q764.2 289.8 767.1 287.5Q770.0 285.2 771.4 281.3Q772.9 277.4 772.9 272.6L772.9 272.6Q772.9 267.9 771.5 264.1Q770.0 260.3 767.1 258.1Q764.2 255.9 759.9 255.9L759.9 255.9Q755.7 255.9 752.8 258.0Q750.0 260.1 748.5 263.9Q747.0 267.6 747.0 272.6ZM814.4 295.9L814.4 295.9Q808.4 295.9 803.8 293.0Q799.3 290.2 796.7 285.0Q794.2 279.8 794.2 272.9L794.2 272.9Q794.2 265.9 796.7 260.7Q799.3 255.5 803.8 252.6Q808.4 249.7 814.4 249.7L814.4 249.7Q820.5 249.7 825.0 252.6Q829.6 255.5 832.1 260.7Q834.7 265.9 834.7 272.9L834.7 272.9Q834.7 279.8 832.1 285.0Q829.6 290.2 825.0 293.0Q820.5 295.9 814.4 295.9ZM814.4 289.8L814.4 289.8Q819.0 289.8 822 287.4Q825.0 285.0 826.4 281.2Q827.8 277.4 827.8 272.9L827.8 272.9Q827.8 268.4 826.4 264.5Q825.0 260.6 822 258.3Q819.0 255.9 814.4 255.9L814.4 255.9Q809.8 255.9 806.9 258.3Q803.9 260.6 802.5 264.5Q801.0 268.4 801.0 272.9L801.0 272.9Q801.0 277.4 802.5 281.2Q803.9 285.0 806.9 287.4Q809.8 289.8 814.4 289.8ZM858.1 295L851.2 295L851.2 250.3L857.8 250.3L857.8 257.0L858.3 257.0Q859.5 253.7 862.7 251.6Q865.9 249.6 869.9 249.6L869.9 249.6Q870.7 249.6 871.8 249.6Q873.0 249.6 873.5 249.7L873.5 249.7L873.5 256.7Q873.2 256.6 872.0 256.4Q870.7 256.2 869.3 256.2L869.3 256.2Q866.1 256.2 863.5 257.6Q861.0 258.9 859.5 261.3Q858.1 263.7 858.1 266.7L858.1 266.7L858.1 295ZM886.8 250.3L909.9 250.3L909.9 256.1L886.8 256.1L886.8 250.3ZM893.5 284.1L893.5 239.6L900.4 239.6L900.4 282.2Q900.4 285.1 901.3 286.5Q902.1 288.0 903.5 288.5Q904.8 288.9 906.3 288.9L906.3 288.9Q907.5 288.9 908.2 288.8Q908.9 288.7 909.4 288.6L909.4 288.6L910.8 294.8Q910.1 295.0 908.8 295.3Q907.6 295.6 905.6 295.6L905.6 295.6Q902.7 295.6 899.9 294.3Q897.2 293.1 895.3 290.5Q893.5 288.0 893.5 284.1L893.5 284.1ZM922.1 250.3L946.2 250.3L946.2 256.1L922.1 256.1L922.1 250.3ZM936.2 295L929.3 295L929.3 244.1Q929.3 240.3 931.1 237.7Q932.9 235.1 935.8 233.8Q938.7 232.6 941.9 232.6L941.9 232.6Q944.5 232.6 946.1 233.0Q947.7 233.4 948.4 233.7L948.4 233.7L946.5 239.7Q945.9 239.5 945.0 239.2Q944.1 239.0 942.6 239.0L942.6 239.0Q939.2 239.0 937.7 240.7Q936.2 242.4 936.2 245.7L936.2 245.7L936.2 295ZM978.2 295.9L978.2 295.9Q972.1 295.9 967.6 293.0Q963.0 290.2 960.5 285.0Q957.9 279.8 957.9 272.9L957.9 272.9Q957.9 265.9 960.5 260.7Q963.0 255.5 967.6 252.6Q972.1 249.7 978.2 249.7L978.2 249.7Q984.3 249.7 988.8 252.6Q993.4 255.5 995.9 260.7Q998.5 265.9 998.5 272.9L998.5 272.9Q998.5 279.8 995.9 285.0Q993.4 290.2 988.8 293.0Q984.3 295.9 978.2 295.9ZM978.2 289.8L978.2 289.8Q982.8 289.8 985.8 287.4Q988.7 285.0 990.2 281.2Q991.6 277.4 991.6 272.9L991.6 272.9Q991.6 268.4 990.2 264.5Q988.7 260.6 985.8 258.3Q982.8 255.9 978.2 255.9L978.2 255.9Q973.6 255.9 970.6 258.3Q967.7 260.6 966.2 264.5Q964.8 268.4 964.8 272.9L964.8 272.9Q964.8 277.4 966.2 281.2Q967.7 285.0 970.6 287.4Q973.6 289.8 978.2 289.8ZM1015.0 235.4L1021.8 235.4L1021.8 295L1015.0 295L1015.0 235.4ZM1047.3 295L1040.4 295L1040.4 250.3L1047.3 250.3L1047.3 295ZM1043.9 242.8L1043.9 242.8Q1041.9 242.8 1040.4 241.4Q1039.0 240.1 1039.0 238.2L1039.0 238.2Q1039.0 236.2 1040.4 234.9Q1041.9 233.5 1043.9 233.5L1043.9 233.5Q1045.9 233.5 1047.3 234.9Q1048.8 236.2 1048.8 238.2L1048.8 238.2Q1048.8 240.1 1047.3 241.4Q1045.9 242.8 1043.9 242.8ZM1084.0 295.9L1084.0 295.9Q1078.0 295.9 1073.4 293.0Q1068.9 290.2 1066.3 285.0Q1063.8 279.8 1063.8 272.9L1063.8 272.9Q1063.8 265.9 1066.3 260.7Q1068.9 255.5 1073.4 252.6Q1078.0 249.7 1084.0 249.7L1084.0 249.7Q1090.1 249.7 1094.6 252.6Q1099.2 255.5 1101.7 260.7Q1104.3 265.9 1104.3 272.9L1104.3 272.9Q1104.3 279.8 1101.7 285.0Q1099.2 290.2 1094.6 293.0Q1090.1 295.9 1084.0 295.9ZM1084.0 289.8L1084.0 289.8Q1088.6 289.8 1091.6 287.4Q1094.6 285.0 1096.0 281.2Q1097.4 277.4 1097.4 272.9L1097.4 272.9Q1097.4 268.4 1096.0 264.5Q1094.6 260.6 1091.6 258.3Q1088.6 255.9 1084.0 255.9L1084.0 255.9Q1079.4 255.9 1076.5 258.3Q1073.5 260.6 1072.1 264.5Q1070.6 268.4 1070.6 272.9L1070.6 272.9Q1070.6 277.4 1072.1 281.2Q1073.5 285.0 1076.5 287.4Q1079.4 289.8 1084.0 289.8Z M245.1 349.3L269.2 349.3L269.2 355.1L245.1 355.1L245.1 349.3ZM259.2 394L252.3 394L252.3 343.1Q252.3 339.3 254.1 336.7Q255.9 334.1 258.8 332.8Q261.7 331.6 264.9 331.6L264.9 331.6Q267.4 331.6 269.0 332.0Q270.6 332.4 271.4 332.7L271.4 332.7L269.4 338.7Q268.9 338.5 268.0 338.2Q267.1 338.0 265.6 338.0L265.6 338.0Q262.2 338.0 260.7 339.7Q259.2 341.4 259.2 344.7L259.2 344.7L259.2 394ZM301.8 394.9L301.8 394.9Q295.3 394.9 290.6 392.1Q286.0 389.2 283.4 384.0Q280.9 378.9 280.9 372.0L280.9 372.0Q280.9 365.1 283.4 359.9Q286.0 354.6 290.5 351.6Q295.0 348.7 301.1 348.7L301.1 348.7Q304.6 348.7 308.0 349.9Q311.4 351.0 314.2 353.6Q317.0 356.2 318.6 360.5Q320.3 364.8 320.3 371.1L320.3 371.1L320.3 374.0L285.8 374.0L285.8 368.0L313.3 368.0Q313.3 364.2 311.8 361.3Q310.3 358.3 307.5 356.6Q304.8 354.9 301.1 354.9L301.1 354.9Q297.0 354.9 294.0 356.9Q291.0 358.9 289.4 362.1Q287.8 365.4 287.8 369.1L287.8 369.1L287.8 373.0Q287.8 378.1 289.5 381.6Q291.3 385.1 294.5 386.9Q297.6 388.8 301.8 388.8L301.8 388.8Q304.5 388.8 306.7 388.0Q308.9 387.2 310.5 385.7Q312.1 384.1 312.9 381.8L312.9 381.8L319.6 383.6Q318.5 387.0 316.1 389.6Q313.6 392.1 309.9 393.5Q306.3 394.9 301.8 394.9ZM355.5 394.9L355.5 394.9Q349.1 394.9 344.4 392.1Q339.7 389.2 337.2 384.0Q334.7 378.9 334.7 372.0L334.7 372.0Q334.7 365.1 337.2 359.9Q339.7 354.6 344.2 351.6Q348.8 348.7 354.8 348.7L354.8 348.7Q358.3 348.7 361.7 349.9Q365.1 351.0 367.9 353.6Q370.7 356.2 372.4 360.5Q374.0 364.8 374.0 371.1L374.0 371.1L374.0 374.0L339.6 374.0L339.6 368.0L367.1 368.0Q367.1 364.2 365.6 361.3Q364.1 358.3 361.3 356.6Q358.5 354.9 354.8 354.9L354.8 354.9Q350.7 354.9 347.7 356.9Q344.7 358.9 343.1 362.1Q341.5 365.4 341.5 369.1L341.5 369.1L341.5 373.0Q341.5 378.1 343.3 381.6Q345.1 385.1 348.2 386.9Q351.4 388.8 355.5 388.8L355.5 388.8Q358.2 388.8 360.4 388.0Q362.6 387.2 364.2 385.7Q365.8 384.1 366.7 381.8L366.7 381.8L373.3 383.6Q372.3 387.0 369.8 389.6Q367.3 392.1 363.7 393.5Q360.1 394.9 355.5 394.9ZM390.5 334.4L397.4 334.4L397.4 394L390.5 394L390.5 334.4Z M442.6 349.3L465.7 349.3L465.7 355.1L442.6 355.1L442.6 349.3ZM449.3 383.1L449.3 338.6L456.2 338.6L456.2 381.2Q456.2 384.1 457.0 385.5Q457.9 387.0 459.3 387.5Q460.6 387.9 462.1 387.9L462.1 387.9Q463.3 387.9 464.0 387.8Q464.7 387.7 465.2 387.6L465.2 387.6L466.6 393.8Q465.9 394.0 464.6 394.3Q463.4 394.6 461.4 394.6L461.4 394.6Q458.5 394.6 455.7 393.3Q453.0 392.1 451.1 389.5Q449.3 387.0 449.3 383.1L449.3 383.1ZM489.0 394L482.1 394L482.1 349.3L488.7 349.3L488.7 356.0L489.2 356.0Q490.4 352.7 493.6 350.6Q496.8 348.6 500.9 348.6L500.9 348.6Q501.6 348.6 502.8 348.6Q503.9 348.6 504.5 348.7L504.5 348.7L504.5 355.7Q504.1 355.6 502.9 355.4Q501.6 355.2 500.3 355.2L500.3 355.2Q497.0 355.2 494.5 356.6Q491.9 357.9 490.5 360.3Q489.0 362.7 489.0 365.7L489.0 365.7L489.0 394ZM546.8 375.7L546.8 375.7L546.8 349.3L553.7 349.3L553.7 394L546.8 394L546.8 386.4L546.3 386.4Q544.8 389.8 541.5 392.2Q538.1 394.6 533.1 394.6L533.1 394.6Q528.9 394.6 525.6 392.7Q522.4 390.9 520.5 387.1Q518.6 383.4 518.6 377.7L518.6 377.7L518.6 349.3L525.5 349.3L525.5 377.2Q525.5 382.1 528.2 385.0Q531.0 387.9 535.3 387.9L535.3 387.9Q537.8 387.9 540.5 386.6Q543.2 385.3 545.0 382.6Q546.8 379.9 546.8 375.7ZM603.9 359.3L603.9 359.3L597.8 361.0Q597.2 359.5 596.1 358.0Q594.9 356.6 593.0 355.6Q591.1 354.6 588.1 354.6L588.1 354.6Q584.0 354.6 581.3 356.5Q578.6 358.4 578.6 361.3L578.6 361.3Q578.6 363.8 580.4 365.3Q582.3 366.8 586.2 367.8L586.2 367.8L592.9 369.4Q598.9 370.9 601.8 373.9Q604.8 376.8 604.8 381.5L604.8 381.5Q604.8 385.4 602.6 388.4Q600.4 391.4 596.4 393.2Q592.5 394.9 587.3 394.9L587.3 394.9Q580.4 394.9 576.0 392.0Q571.5 389.0 570.3 383.3L570.3 383.3L576.8 381.7Q577.7 385.3 580.3 387.1Q583.0 388.9 587.2 388.9L587.2 388.9Q592.0 388.9 594.8 386.8Q597.7 384.8 597.7 381.9L597.7 381.9Q597.7 379.6 596.0 378.0Q594.4 376.4 591.0 375.6L591.0 375.6L583.6 373.8Q577.4 372.4 574.6 369.3Q571.7 366.2 571.7 361.6L571.7 361.6Q571.7 357.8 573.8 354.9Q576.0 352.0 579.7 350.4Q583.4 348.7 588.1 348.7L588.1 348.7Q594.7 348.7 598.5 351.6Q602.3 354.5 603.9 359.3ZM617.4 349.3L640.6 349.3L640.6 355.1L617.4 355.1L617.4 349.3ZM624.2 383.1L624.2 338.6L631.0 338.6L631.0 381.2Q631.0 384.1 631.9 385.5Q632.7 387.0 634.1 387.5Q635.5 387.9 637.0 387.9L637.0 387.9Q638.1 387.9 638.8 387.8Q639.6 387.7 640.0 387.6L640.0 387.6L641.4 393.8Q640.7 394.0 639.4 394.3Q638.2 394.6 636.3 394.6L636.3 394.6Q633.4 394.6 630.6 393.3Q627.8 392.1 626.0 389.5Q624.2 387.0 624.2 383.1L624.2 383.1ZM673.8 394L667.1 394L653.5 349.3L660.7 349.3L670.3 383.5L670.8 383.5L680.4 349.3L687.7 349.3L697.1 383.4L697.6 383.4L707.3 349.3L714.5 349.3L700.9 394L694.1 394L684.3 359.6L683.6 359.6L673.8 394ZM746.2 394.9L746.2 394.9Q740.2 394.9 735.6 392.0Q731.1 389.2 728.5 384.0Q726.0 378.8 726.0 371.9L726.0 371.9Q726.0 364.9 728.5 359.7Q731.1 354.5 735.6 351.6Q740.2 348.7 746.2 348.7L746.2 348.7Q752.3 348.7 756.8 351.6Q761.4 354.5 763.9 359.7Q766.5 364.9 766.5 371.9L766.5 371.9Q766.5 378.8 763.9 384.0Q761.4 389.2 756.8 392.0Q752.3 394.9 746.2 394.9ZM746.2 388.8L746.2 388.8Q750.8 388.8 753.8 386.4Q756.8 384.0 758.2 380.2Q759.6 376.4 759.6 371.9L759.6 371.9Q759.6 367.4 758.2 363.5Q756.8 359.6 753.8 357.3Q750.8 354.9 746.2 354.9L746.2 354.9Q741.6 354.9 738.7 357.3Q735.7 359.6 734.3 363.5Q732.8 367.4 732.8 371.9L732.8 371.9Q732.8 376.4 734.3 380.2Q735.7 384.0 738.7 386.4Q741.6 388.8 746.2 388.8ZM789.8 394L783.0 394L783.0 349.3L789.6 349.3L789.6 356.0L790.1 356.0Q791.3 352.7 794.5 350.6Q797.7 348.6 801.7 348.6L801.7 348.6Q802.5 348.6 803.6 348.6Q804.8 348.6 805.3 348.7L805.3 348.7L805.3 355.7Q805.0 355.6 803.8 355.4Q802.5 355.2 801.1 355.2L801.1 355.2Q797.9 355.2 795.3 356.6Q792.8 357.9 791.3 360.3Q789.8 362.7 789.8 365.7L789.8 365.7L789.8 394ZM818.6 349.3L841.7 349.3L841.7 355.1L818.6 355.1L818.6 349.3ZM825.3 383.1L825.3 338.6L832.2 338.6L832.2 381.2Q832.2 384.1 833.0 385.5Q833.9 387.0 835.3 387.5Q836.6 387.9 838.1 387.9L838.1 387.9Q839.3 387.9 840.0 387.8Q840.7 387.7 841.2 387.6L841.2 387.6L842.6 393.8Q841.9 394.0 840.6 394.3Q839.4 394.6 837.4 394.6L837.4 394.6Q834.5 394.6 831.7 393.3Q829.0 392.1 827.1 389.5Q825.3 387.0 825.3 383.1L825.3 383.1ZM865.9 367.1L865.9 367.1L865.9 394L859.0 394L859.0 334.4L865.9 334.4L865.9 356.3L866.5 356.3Q868.1 352.8 871.2 350.7Q874.4 348.7 879.7 348.7L879.7 348.7Q884.2 348.7 887.7 350.5Q891.1 352.3 893.0 356.1Q894.9 359.8 894.9 365.6L894.9 365.6L894.9 394L888.0 394L888.0 366.0Q888.0 360.7 885.3 357.8Q882.5 354.9 877.7 354.9L877.7 354.9Q874.3 354.9 871.6 356.3Q869.0 357.7 867.4 360.5Q865.9 363.2 865.9 367.1ZM916.3 410.8L916.3 410.8Q914.5 410.8 913.2 410.5Q911.8 410.2 911.3 410.0L911.3 410.0L913.0 403.9Q915.5 404.5 917.5 404.4Q919.4 404.2 920.9 402.7Q922.4 401.1 923.6 397.7L923.6 397.7L924.9 394.2L908.4 349.3L915.8 349.3L928.2 384.9L928.6 384.9L941.0 349.3L948.4 349.3L929.5 400.5Q928.2 404.0 926.3 406.3Q924.4 408.6 921.9 409.7Q919.4 410.8 916.3 410.8Z "/></g></svg>